<?xml version="1.0" encoding="UTF-8" standalone="no" ?>
<!DOCTYPE svg PUBLIC "-//W3C//DTD SVG 1.1//EN" "http://www.w3.org/Graphics/SVG/1.1/DTD/svg11.dtd">
<svg xmlns="http://www.w3.org/2000/svg" xmlns:xlink="http://www.w3.org/1999/xlink" version="1.1" width="430" height="140" viewBox="0 0 430 140" xml:space="preserve">
<desc>Created with Fabric.js 5.2.4</desc>
<defs>
</defs>
<rect x="0" y="0" width="100%" height="100%" fill="transparent"></rect>
<g transform="matrix(Infinity NaN NaN Infinity 0 0)" id="2b73953d-3660-449f-a66a-fdd069c31a37"  >
</g>
<g transform="matrix(1 0 0 1 215 70)" id="c76c17ce-c152-4ef5-96b6-367f9d708c1d"  >
<rect style="stroke: none; stroke-width: 1; stroke-dasharray: none; stroke-linecap: butt; stroke-dashoffset: 0; stroke-linejoin: miter; stroke-miterlimit: 4; fill: rgb(255,0,0); fill-rule: nonzero; opacity: 1; visibility: hidden;" vector-effect="non-scaling-stroke"  x="-215" y="-70" rx="0" ry="0" width="430" height="140" />
</g>
<g transform="matrix(1.28 0 0 1.28 215 70)"  >
<g style="" vector-effect="non-scaling-stroke"   >
		<g transform="matrix(0.5 0 0 0.5 -33.9 -24.43)"  >
<path style="stroke: none; stroke-width: 1; stroke-dasharray: none; stroke-linecap: butt; stroke-dashoffset: 0; stroke-linejoin: miter; stroke-miterlimit: 4; fill: rgb(0,0,0); fill-rule: nonzero; opacity: 1;" vector-effect="non-scaling-stroke"  transform=" translate(295.6, 0.55)" d="M -310.99 -16.4 L -310.99 -16.4 Q -310.99 -21.61 -309.36 -24.99 Q -307.73 -28.37 -304.39 -30 Q -301.05 -31.63 -297.43 -32.2 Q -293.8 -32.77 -288.51 -32.77 L -288.51 -32.77 Q -282.16 -32.77 -277.6 -31.95 L -277.6 -31.95 Q -277.11 -30.65 -276.98 -25.72 Q -276.86 -20.79 -276.7 -5.93 Q -276.54 8.93 -276.05 24.98 L -276.05 24.98 Q -276.78 27.42 -278.9 27.42 L -278.9 27.42 Q -280.36 27.42 -281.71 26.24 Q -283.05 25.06 -283.38 23.35 L -283.38 23.35 Q -283.05 12.03 -282.89 0.54 L -282.89 0.54 Q -283.54 0.54 -285.17 0.63 Q -286.8 0.71 -287.61 0.71 L -287.61 0.71 Q -288.59 9.18 -297.1 19.48 Q -305.61 29.78 -313.84 31.66 L -313.84 31.66 L -315.14 27.99 Q -311.31 26.69 -308.1 24.2 Q -304.88 21.72 -302.84 19.03 Q -300.81 16.34 -299.06 12.76 Q -297.31 9.18 -296.45 6.57 Q -295.6 3.96 -294.7 0.71 L -294.7 0.71 Q -302.52 0.71 -306.75 -3.81 Q -310.99 -8.33 -310.99 -16.4 Z M -282.56 -4.67 L -282.56 -4.67 L -282.16 -25.84 Q -287.29 -27.39 -291.52 -27.39 L -291.52 -27.39 Q -297.96 -27.39 -301.42 -24.17 Q -304.88 -20.96 -304.88 -15.99 L -304.88 -15.99 Q -304.15 -3.61 -291.2 -3.61 L -291.2 -3.61 Q -287.29 -3.61 -282.56 -4.67 Z" stroke-linecap="round" />
</g>
		<g transform="matrix(0.5 0 0 0.5 -5.35 -25.48)"  >
<path style="stroke: none; stroke-width: 1; stroke-dasharray: none; stroke-linecap: butt; stroke-dashoffset: 0; stroke-linejoin: miter; stroke-miterlimit: 4; fill: rgb(0,0,0); fill-rule: nonzero; opacity: 1;" vector-effect="non-scaling-stroke"  transform=" translate(238.48, 2.64)" d="M -253.47 -33.34 L -253.47 -33.34 L -224.88 -33.34 Q -223.41 -21.85 -223.05 -1.45 Q -222.68 18.95 -222.27 25.55 L -222.27 25.55 Q -223.01 28.07 -225.12 28.07 L -225.12 28.07 Q -226.59 28.07 -227.93 26.85 Q -229.28 25.63 -229.6 23.92 L -229.6 23.92 Q -229.6 17.32 -230.01 -2.92 Q -230.42 -23.16 -230.42 -27.55 L -230.42 -27.55 Q -232.21 -27.55 -236.24 -27.31 Q -240.27 -27.07 -242.72 -27.07 L -242.72 -27.07 Q -246.63 -27.07 -248.74 -27.23 L -248.74 -27.23 Q -248.74 -26.98 -248.13 -3.37 Q -247.52 20.25 -247.36 25.55 L -247.36 25.55 Q -248.09 28.07 -250.21 28.07 L -250.21 28.07 Q -251.68 28.07 -253.02 26.85 Q -254.36 25.63 -254.69 23.92 L -254.69 23.92 Q -254.45 16.91 -254.24 -3.28 Q -254.04 -23.48 -253.47 -33.34 Z" stroke-linecap="round" />
</g>
		<g transform="matrix(0.5 0 0 0.5 22.76 -26.14)"  >
<path style="stroke: none; stroke-width: 1; stroke-dasharray: none; stroke-linecap: butt; stroke-dashoffset: 0; stroke-linejoin: miter; stroke-miterlimit: 4; fill: rgb(0,0,0); fill-rule: nonzero; opacity: 1;" vector-effect="non-scaling-stroke"  transform=" translate(182.26, 3.98)" d="M -200.75 -1.08 L -200.75 -1.08 Q -200.75 -3.85 -200.75 -5.28 Q -200.75 -6.7 -200.63 -9.64 Q -200.51 -12.57 -200.3 -14.28 Q -200.1 -15.99 -199.69 -18.72 Q -199.29 -21.45 -198.63 -23.12 Q -197.98 -24.79 -197.13 -26.9 Q -196.27 -29.02 -194.97 -30.32 Q -193.67 -31.63 -192.12 -32.81 Q -190.57 -33.99 -188.45 -34.56 Q -186.34 -35.13 -183.81 -35.13 L -183.81 -35.13 Q -178.76 -35.13 -175.02 -33.13 Q -171.27 -31.14 -169.15 -28.12 Q -167.03 -25.11 -165.77 -20.71 Q -164.51 -16.32 -164.14 -12.32 Q -163.78 -8.33 -163.78 -3.53 L -163.78 -3.53 Q -163.78 -0.27 -163.9 2.34 Q -164.02 4.94 -164.39 8.24 Q -164.75 11.54 -165.45 14.06 Q -166.14 16.59 -167.36 19.15 Q -168.58 21.72 -170.25 23.39 Q -171.92 25.06 -174.45 26.12 Q -176.97 27.18 -180.07 27.18 L -180.07 27.18 Q -185.12 27.18 -188.74 25.95 Q -192.36 24.73 -194.68 22.53 Q -197.01 20.34 -198.35 16.75 Q -199.69 13.17 -200.22 8.93 Q -200.75 4.7 -200.75 -1.08 Z M -169.64 -0.43 L -169.64 -0.43 Q -169.64 -4.42 -170.25 -8.74 Q -170.86 -13.06 -172.29 -18.03 Q -173.71 -22.99 -176.81 -26.13 Q -179.9 -29.26 -184.22 -29.26 L -184.22 -29.26 Q -187.48 -29.26 -189.96 -24.91 Q -192.45 -20.55 -193.5 -15.13 Q -194.56 -9.72 -194.56 -4.91 L -194.56 -4.91 Q -194.56 -1.57 -194.52 0.18 Q -194.48 1.93 -194.24 5.15 Q -193.99 8.36 -193.54 10.24 Q -193.1 12.11 -192.12 14.55 Q -191.14 17 -189.8 18.34 Q -188.45 19.68 -186.3 20.7 Q -184.14 21.72 -181.45 21.8 L -181.45 21.8 Q -175.5 21.48 -172.57 15.12 Q -169.64 8.77 -169.64 -0.43 Z" stroke-linecap="round" />
</g>
		<g transform="matrix(0.5 0 0 0.5 50.79 -25.48)"  >
<path style="stroke: none; stroke-width: 1; stroke-dasharray: none; stroke-linecap: butt; stroke-dashoffset: 0; stroke-linejoin: miter; stroke-miterlimit: 4; fill: rgb(0,0,0); fill-rule: nonzero; opacity: 1;" vector-effect="non-scaling-stroke"  transform=" translate(126.21, 2.64)" d="M -117.33 -32.36 L -117.33 -32.36 L -112.61 -33.34 Q -111.14 -21.85 -110.78 -1.45 Q -110.41 18.95 -110 25.55 L -110 25.55 Q -110.74 28.07 -112.85 28.07 L -112.85 28.07 Q -114.32 28.07 -115.66 26.85 Q -117.01 25.63 -117.33 23.92 L -117.33 23.92 Q -117.25 20.99 -117.25 14.15 L -117.25 14.15 L -117.25 -1.9 Q -119.04 -1.82 -122.26 -1.53 Q -125.48 -1.25 -128.12 -1.08 Q -130.77 -0.92 -133.13 -0.92 L -133.13 -0.92 Q -135.25 -0.92 -136.23 -1 L -136.23 -1 Q -136.06 3.96 -135.66 13.05 Q -135.25 22.13 -135.09 25.55 L -135.09 25.55 Q -135.82 28.07 -137.94 28.07 L -137.94 28.07 Q -139.4 28.07 -140.75 26.85 Q -142.09 25.63 -142.42 23.92 L -142.42 23.92 Q -142.17 16.91 -141.97 -3.28 Q -141.77 -23.48 -141.2 -33.34 L -141.2 -33.34 L -137.53 -32.52 Q -137.53 -32.28 -137.49 -31.75 Q -137.45 -31.22 -137.45 -30.89 L -137.45 -30.89 Q -136.39 -10.86 -136.23 -5.81 L -136.23 -5.81 Q -133.46 -6.05 -130.32 -6.34 Q -127.19 -6.62 -123.4 -6.99 Q -119.61 -7.36 -117.5 -7.52 L -117.5 -7.52 Q -117.41 -7.52 -117.41 -8.33 Q -117.41 -9.15 -117.37 -14.93 Q -117.33 -20.71 -117.33 -32.36 Z" stroke-linecap="round" />
</g>
		<g transform="matrix(0.5 0 0 0.5 76.9 -24.43)"  >
<path style="stroke: none; stroke-width: 1; stroke-dasharray: none; stroke-linecap: butt; stroke-dashoffset: 0; stroke-linejoin: miter; stroke-miterlimit: 4; fill: rgb(0,0,0); fill-rule: nonzero; opacity: 1;" vector-effect="non-scaling-stroke"  transform=" translate(73.98, 0.55)" d="M -89.38 -16.4 L -89.38 -16.4 Q -89.38 -21.61 -87.75 -24.99 Q -86.12 -28.37 -82.78 -30 Q -79.44 -31.63 -75.82 -32.2 Q -72.19 -32.77 -66.9 -32.77 L -66.9 -32.77 Q -60.54 -32.77 -55.98 -31.95 L -55.98 -31.95 Q -55.5 -30.65 -55.37 -25.72 Q -55.25 -20.79 -55.09 -5.93 Q -54.92 8.93 -54.44 24.98 L -54.44 24.98 Q -55.17 27.42 -57.29 27.42 L -57.29 27.42 Q -58.75 27.42 -60.1 26.24 Q -61.44 25.06 -61.77 23.35 L -61.77 23.35 Q -61.44 12.03 -61.28 0.54 L -61.28 0.54 Q -61.93 0.54 -63.56 0.63 Q -65.19 0.71 -66 0.71 L -66 0.71 Q -66.98 9.18 -75.49 19.48 Q -84 29.78 -92.23 31.66 L -92.23 31.66 L -93.53 27.99 Q -89.7 26.69 -86.49 24.2 Q -83.27 21.72 -81.23 19.03 Q -79.2 16.34 -77.44 12.76 Q -75.69 9.18 -74.84 6.57 Q -73.98 3.96 -73.09 0.71 L -73.09 0.71 Q -80.91 0.71 -85.14 -3.81 Q -89.38 -8.33 -89.38 -16.4 Z M -60.95 -4.67 L -60.95 -4.67 L -60.54 -25.84 Q -65.68 -27.39 -69.91 -27.39 L -69.91 -27.39 Q -76.35 -27.39 -79.81 -24.17 Q -83.27 -20.96 -83.27 -15.99 L -83.27 -15.99 Q -82.53 -3.61 -69.59 -3.61 L -69.59 -3.61 Q -65.68 -3.61 -60.95 -4.67 Z" stroke-linecap="round" />
</g>
		<g transform="matrix(0.5 0 0 0.5 104.67 -25.78)"  >
<path style="stroke: none; stroke-width: 1; stroke-dasharray: none; stroke-linecap: butt; stroke-dashoffset: 0; stroke-linejoin: miter; stroke-miterlimit: 4; fill: rgb(0,0,0); fill-rule: nonzero; opacity: 1;" vector-effect="non-scaling-stroke"  transform=" translate(18.46, 3.24)" d="M -35.6 -28.45 L -35.6 -28.45 L -36.42 -32.12 L -5.3 -33.91 Q -3.27 -33.83 -1.88 -32.44 Q -0.5 -31.06 -0.5 -29.43 L -0.5 -29.43 Q -0.5 -28.37 -1.31 -27.55 Q -2.13 -26.74 -3.76 -26.58 L -3.76 -26.58 L -17.44 -27.31 Q -15.4 1.44 -14.43 24.98 L -14.43 24.98 Q -15.16 27.42 -17.2 27.42 L -17.2 27.42 Q -18.66 27.42 -20.05 26.24 Q -21.43 25.06 -21.76 23.35 L -21.76 23.35 Q -21.59 18.95 -21.59 9.99 L -21.59 9.99 Q -21.59 6.65 -21.63 -0.03 Q -21.68 -6.7 -21.68 -10.04 L -21.68 -10.04 Q -21.68 -19.74 -21.35 -27.55 L -21.35 -27.55 Q -30.55 -28.21 -35.6 -28.45 Z" stroke-linecap="round" />
</g>
		<g transform="matrix(0.5 0 0 0.5 128.7 -25.27)"  >
<path style="stroke: none; stroke-width: 1; stroke-dasharray: none; stroke-linecap: butt; stroke-dashoffset: 0; stroke-linejoin: miter; stroke-miterlimit: 4; fill: rgb(0,0,0); fill-rule: nonzero; opacity: 1;" vector-effect="non-scaling-stroke"  transform=" translate(-29.62, 2.23)" d="M 26.64 -32.85 L 26.64 -32.85 L 32.83 -32.44 Q 35.11 -22.34 42.2 -3.89 Q 49.28 14.55 51.56 23.67 L 51.56 23.67 Q 51.56 26.04 50.75 27.22 Q 49.94 28.4 48.71 28.4 L 48.71 28.4 Q 47.66 28.4 46.72 27.54 Q 45.78 26.69 45.46 25.14 L 45.46 25.14 Q 44.72 21.56 40.73 10.81 L 40.73 10.81 Q 23.95 8.69 19.64 8.2 L 19.64 8.2 Q 18.58 11.13 17.03 17.73 Q 15.48 24.33 14.59 26.85 L 14.59 26.85 Q 13.37 28.32 11.82 28.32 L 11.82 28.32 Q 10.11 28.32 8.89 26.81 Q 7.67 25.3 7.67 23.1 L 7.67 23.1 Q 10.27 13.58 17.11 -4.91 Q 23.95 -23.4 26.64 -32.85 Z M 29.49 -24.62 L 29.49 -24.62 Q 27.86 -14.77 20.45 4.29 L 20.45 4.29 L 29.57 4.29 Q 35.76 4.29 39.92 4.7 L 39.92 4.7 Q 31.53 -13.3 29.49 -24.62 Z" stroke-linecap="round" />
</g>
		<g transform="matrix(0.5 0 0 0.5 -37.34 15.55)"  >
<path style="stroke: none; stroke-width: 1; stroke-dasharray: none; stroke-linecap: butt; stroke-dashoffset: 0; stroke-linejoin: miter; stroke-miterlimit: 4; fill: rgb(0,0,0); fill-rule: nonzero; opacity: 1;" vector-effect="non-scaling-stroke"  transform=" translate(254.33, 18.68)" d="M -246.07 -30.98 L -246.07 -30.98 L -247.62 -29.2 Q -250.63 -31.45 -253.57 -31.45 L -253.57 -31.45 Q -255.51 -31.45 -256.9 -30.52 Q -258.29 -29.59 -259.01 -28.28 Q -259.72 -26.96 -260.13 -24.95 Q -260.53 -22.94 -260.63 -21.47 Q -260.73 -20 -260.73 -18.03 L -260.73 -18.03 Q -260.73 -16.09 -260.01 -13.64 Q -259.3 -11.18 -257.59 -9.06 Q -255.89 -6.93 -253.65 -6.93 L -253.65 -6.93 Q -251.21 -6.93 -246.19 -9.48 L -246.19 -9.48 Q -245.68 -8.75 -244.87 -7.04 L -244.87 -7.04 Q -249.74 -3.68 -253.57 -3.68 L -253.57 -3.68 Q -256.05 -3.68 -258.1 -5.19 Q -260.15 -6.7 -261.33 -9.02 Q -262.51 -11.34 -263.14 -13.87 Q -263.78 -16.4 -263.78 -18.69 L -263.78 -18.69 Q -263.78 -21.2 -263.4 -23.58 Q -263.01 -25.96 -262.08 -28.35 Q -261.15 -30.75 -259.28 -32.22 Q -257.4 -33.69 -254.81 -33.69 L -254.81 -33.69 Q -252.57 -33.69 -250.17 -32.92 Q -247.77 -32.14 -246.07 -30.98 Z" stroke-linecap="round" />
</g>
		<g transform="matrix(0.5 0 0 0.5 -25.3 17.2)"  >
<path style="stroke: none; stroke-width: 1; stroke-dasharray: none; stroke-linecap: butt; stroke-dashoffset: 0; stroke-linejoin: miter; stroke-miterlimit: 4; fill: rgb(0,0,0); fill-rule: nonzero; opacity: 1;" vector-effect="non-scaling-stroke"  transform=" translate(230.25, 15.4)" d="M -231.68 -22.86 L -239.19 -23.21 L -239.53 -24.91 Q -234.35 -25.22 -223.22 -25.76 L -223.22 -25.76 Q -222.29 -25.72 -221.63 -25.07 Q -220.97 -24.41 -220.97 -23.67 L -220.97 -23.67 Q -220.97 -22.51 -222.52 -22.36 L -222.52 -22.36 L -229.75 -22.71 Q -229.56 -19.81 -229.54 -14.26 Q -229.52 -8.71 -229.4 -6.16 L -229.4 -6.16 Q -229.75 -5.03 -230.76 -5.03 L -230.76 -5.03 Q -231.41 -5.03 -232.03 -5.58 Q -232.65 -6.12 -232.81 -6.89 L -232.81 -6.89 Q -232.26 -16.4 -231.68 -22.86 L -231.68 -22.86 Z" stroke-linecap="round" />
</g>
		<g transform="matrix(0.5 0 0 0.5 -14.41 17.13)"  >
<path style="stroke: none; stroke-width: 1; stroke-dasharray: none; stroke-linecap: butt; stroke-dashoffset: 0; stroke-linejoin: miter; stroke-miterlimit: 4; fill: rgb(0,0,0); fill-rule: nonzero; opacity: 1;" vector-effect="non-scaling-stroke"  transform=" translate(208.47, 15.55)" d="M -213.04 -22.17 L -213.04 -22.17 L -213.82 -24.14 Q -212.81 -25.14 -211.27 -25.74 Q -209.72 -26.34 -208.21 -26.34 L -208.21 -26.34 Q -201.68 -26.34 -201.68 -15.05 L -201.68 -15.05 Q -201.68 -13.5 -201.85 -10.49 Q -202.02 -7.47 -202.02 -5.96 L -202.02 -5.96 Q -202.33 -4.76 -203.22 -4.76 L -203.22 -4.76 Q -203.92 -4.76 -204.5 -5.46 Q -205.08 -6.16 -205.08 -7.01 L -205.08 -7.01 Q -205.08 -7.28 -205.04 -7.39 L -205.04 -7.39 Q -207.44 -5.07 -210.14 -5.07 L -210.14 -5.07 Q -212.19 -5.07 -213.72 -6.56 Q -215.25 -8.05 -215.25 -10.18 L -215.25 -10.18 Q -215.25 -13.77 -212.45 -16.67 Q -209.64 -19.57 -206.08 -19.57 L -206.08 -19.57 Q -205.93 -19.57 -205.77 -19.56 Q -205.62 -19.54 -205.41 -19.5 Q -205.19 -19.46 -205.08 -19.46 L -205.08 -19.46 Q -205.39 -23.98 -208.67 -23.98 L -208.67 -23.98 Q -210.61 -23.98 -213.04 -22.17 Z M -204.96 -10.06 L -204.96 -10.06 Q -204.88 -12.77 -204.88 -14.16 L -204.88 -14.16 Q -204.88 -15.32 -204.96 -17.41 L -204.96 -17.41 L -205.27 -17.41 Q -208.02 -17.37 -210.28 -15.36 Q -212.54 -13.35 -212.54 -10.49 L -212.54 -10.49 Q -212.54 -9.25 -211.79 -8.51 Q -211.03 -7.78 -209.95 -7.78 L -209.95 -7.78 Q -208.25 -7.78 -204.96 -10.06 Z" stroke-linecap="round" />
</g>
		<g transform="matrix(0.5 0 0 0.5 -3.42 17.44)"  >
<path style="stroke: none; stroke-width: 1; stroke-dasharray: none; stroke-linecap: butt; stroke-dashoffset: 0; stroke-linejoin: miter; stroke-miterlimit: 4; fill: rgb(0,0,0); fill-rule: nonzero; opacity: 1;" vector-effect="non-scaling-stroke"  transform=" translate(186.5, 14.91)" d="M -182.03 -25.07 L -182.03 -25.07 L -180.29 -24.68 L -179.4 -5.92 Q -179.75 -4.76 -180.75 -4.76 L -180.75 -4.76 Q -181.45 -4.76 -182.11 -5.32 Q -182.76 -5.88 -182.92 -6.7 L -182.92 -6.7 Q -182.92 -6.81 -182.57 -13.23 L -182.57 -13.23 L -182.57 -13.54 Q -183.65 -13.62 -185.78 -13.62 L -185.78 -13.62 Q -188.99 -13.62 -190.62 -13.81 L -190.62 -13.81 Q -190.42 -11.57 -190.11 -6.58 L -190.11 -6.58 Q -190.46 -5.38 -191.47 -5.38 L -191.47 -5.38 Q -192.16 -5.38 -192.8 -5.94 Q -193.44 -6.5 -193.59 -7.32 L -193.59 -7.32 Q -193.48 -9.25 -193.48 -11.18 L -193.48 -11.18 Q -193.48 -12.42 -193.52 -14.9 Q -193.55 -17.37 -193.55 -18.57 L -193.55 -18.57 Q -193.55 -22.28 -193.32 -24.8 L -193.32 -24.8 L -191.58 -24.37 Q -190.81 -15.98 -190.77 -15.75 L -190.77 -15.75 Q -184.16 -15.4 -183.96 -15.4 L -183.96 -15.4 Q -182.38 -15.4 -182.38 -15.59 L -182.38 -15.59 Q -182.38 -16.36 -182.22 -20.5 Q -182.07 -24.64 -182.03 -25.07 Z" stroke-linecap="round" />
</g>
		<g transform="matrix(0.5 0 0 0.5 7.45 17.39)"  >
<path style="stroke: none; stroke-width: 1; stroke-dasharray: none; stroke-linecap: butt; stroke-dashoffset: 0; stroke-linejoin: miter; stroke-miterlimit: 4; fill: rgb(0,0,0); fill-rule: nonzero; opacity: 1;" vector-effect="non-scaling-stroke"  transform=" translate(164.75, 15.02)" d="M -171.2 -25.07 L -171.2 -25.07 L -169.46 -24.68 Q -169.38 -23.44 -169.21 -21.78 Q -169.04 -20.12 -168.8 -17.99 L -168.8 -17.99 Q -167.26 -18.45 -165.87 -18.45 L -165.87 -18.45 Q -164.2 -18.45 -162.77 -17.81 Q -161.34 -17.18 -160.33 -16.13 Q -159.33 -15.09 -158.75 -13.75 Q -158.17 -12.42 -158.17 -11.03 L -158.17 -11.03 Q -158.17 -9.67 -158.75 -8.55 Q -159.33 -7.43 -160.3 -6.64 Q -161.26 -5.85 -162.54 -5.4 Q -163.82 -4.96 -165.25 -4.96 L -165.25 -4.96 Q -165.52 -4.96 -166.45 -5 Q -167.37 -5.03 -168.4 -5.17 Q -169.42 -5.3 -170.23 -5.54 Q -171.05 -5.77 -171.09 -6.19 L -171.09 -6.19 Q -171.09 -6.85 -171.11 -7.99 Q -171.12 -9.13 -171.14 -10.53 Q -171.16 -11.92 -171.2 -13.44 Q -171.24 -14.97 -171.26 -16.4 Q -171.28 -17.83 -171.3 -19.03 Q -171.32 -20.23 -171.32 -20.93 L -171.32 -20.93 Q -171.32 -23.09 -171.2 -25.07 Z M -168.46 -15.59 L -168.46 -15.59 L -168.8 -7.82 Q -167.26 -7.28 -165.87 -7.28 L -165.87 -7.28 Q -164.78 -7.28 -163.87 -7.64 Q -162.96 -8.01 -162.35 -8.61 Q -161.73 -9.21 -161.38 -9.98 Q -161.03 -10.76 -161.03 -11.61 L -161.03 -11.61 Q -161.03 -12.46 -161.38 -13.21 Q -161.73 -13.97 -162.42 -14.55 Q -163.12 -15.13 -164.12 -15.46 Q -165.13 -15.78 -166.41 -15.78 L -166.41 -15.78 Q -166.83 -15.78 -167.33 -15.73 Q -167.84 -15.67 -168.46 -15.59 Z" stroke-linecap="round" />
</g>
		<g transform="matrix(0.5 0 0 0.5 89.82 24.9)"  >
<path style="stroke: none; stroke-width: 1; stroke-dasharray: none; stroke-linecap: butt; stroke-dashoffset: 0; stroke-linejoin: miter; stroke-miterlimit: 4; fill: rgb(0,0,0); fill-rule: nonzero; opacity: 1;" vector-effect="non-scaling-stroke"  transform=" translate(0, 0)" d="" stroke-linecap="round" />
</g>
		<g transform="matrix(0.5 0 0 0.5 25.95 17.44)"  >
<path style="stroke: none; stroke-width: 1; stroke-dasharray: none; stroke-linecap: butt; stroke-dashoffset: 0; stroke-linejoin: miter; stroke-miterlimit: 4; fill: rgb(88,143,39); fill-rule: nonzero; opacity: 1;" vector-effect="non-scaling-stroke"  transform=" translate(127.75, 14.91)" d="M -123.29 -25.07 L -123.29 -25.07 L -121.55 -24.68 L -120.66 -5.92 Q -121.01 -4.76 -122.01 -4.76 L -122.01 -4.76 Q -122.71 -4.76 -123.36 -5.32 Q -124.02 -5.88 -124.18 -6.7 L -124.18 -6.7 Q -124.18 -6.81 -123.83 -13.23 L -123.83 -13.23 L -123.83 -13.54 Q -124.91 -13.62 -127.04 -13.62 L -127.04 -13.62 Q -130.25 -13.62 -131.87 -13.81 L -131.87 -13.81 Q -131.68 -11.57 -131.37 -6.58 L -131.37 -6.58 Q -131.72 -5.38 -132.72 -5.38 L -132.72 -5.38 Q -133.42 -5.38 -134.06 -5.94 Q -134.7 -6.5 -134.85 -7.32 L -134.85 -7.32 Q -134.73 -9.25 -134.73 -11.18 L -134.73 -11.18 Q -134.73 -12.42 -134.77 -14.9 Q -134.81 -17.37 -134.81 -18.57 L -134.81 -18.57 Q -134.81 -22.28 -134.58 -24.8 L -134.58 -24.8 L -132.84 -24.37 Q -132.07 -15.98 -132.03 -15.75 L -132.03 -15.75 Q -125.41 -15.4 -125.22 -15.4 L -125.22 -15.4 Q -123.64 -15.4 -123.64 -15.59 L -123.64 -15.59 Q -123.64 -16.36 -123.48 -20.5 Q -123.33 -24.64 -123.29 -25.07 Z" stroke-linecap="round" />
</g>
		<g transform="matrix(0.5 0 0 0.5 37.35 17.32)"  >
<path style="stroke: none; stroke-width: 1; stroke-dasharray: none; stroke-linecap: butt; stroke-dashoffset: 0; stroke-linejoin: miter; stroke-miterlimit: 4; fill: rgb(88,143,39); fill-rule: nonzero; opacity: 1;" vector-effect="non-scaling-stroke"  transform=" translate(104.94, 15.15)" d="M -109.17 -8.67 L -109.17 -8.67 Q -109.17 -8.01 -109.09 -6.93 L -109.09 -6.93 Q -109.44 -5.73 -110.45 -5.73 L -110.45 -5.73 Q -111.14 -5.73 -111.78 -6.29 Q -112.42 -6.85 -112.58 -7.66 L -112.58 -7.66 Q -112.46 -10.8 -112.29 -16.83 Q -112.11 -22.86 -112.03 -24.99 L -112.03 -24.99 L -110.25 -25.3 Q -109.79 -22.82 -109.67 -18.72 Q -109.56 -14.62 -109.37 -12.61 L -109.37 -12.61 Q -108.63 -13.7 -105.19 -18.26 Q -101.75 -22.82 -100.51 -25.07 L -100.51 -25.07 Q -99.66 -25.22 -99.43 -25.22 L -99.43 -25.22 Q -98.69 -25.22 -98.4 -24.56 Q -98.11 -23.91 -98.03 -22.09 L -98.03 -22.09 L -97.3 -6.16 Q -97.65 -5 -98.65 -5 L -98.65 -5 Q -99.35 -5 -99.99 -5.56 Q -100.63 -6.12 -100.78 -6.93 L -100.78 -6.93 Q -100.74 -8.2 -100.57 -13.17 Q -100.39 -18.14 -100.28 -20.23 L -100.28 -20.23 Q -106.89 -12.69 -109.17 -8.67 Z" stroke-linecap="round" />
</g>
		<g transform="matrix(0.5 0 0 0.5 48.78 17.44)"  >
<path style="stroke: none; stroke-width: 1; stroke-dasharray: none; stroke-linecap: butt; stroke-dashoffset: 0; stroke-linejoin: miter; stroke-miterlimit: 4; fill: rgb(88,143,39); fill-rule: nonzero; opacity: 1;" vector-effect="non-scaling-stroke"  transform=" translate(82.09, 14.91)" d="M -77.62 -25.07 L -77.62 -25.07 L -75.88 -24.68 L -74.99 -5.92 Q -75.33 -4.76 -76.34 -4.76 L -76.34 -4.76 Q -77.04 -4.76 -77.69 -5.32 Q -78.35 -5.88 -78.51 -6.7 L -78.51 -6.7 Q -78.51 -6.81 -78.16 -13.23 L -78.16 -13.23 L -78.16 -13.54 Q -79.24 -13.62 -81.37 -13.62 L -81.37 -13.62 Q -84.58 -13.62 -86.2 -13.81 L -86.2 -13.81 Q -86.01 -11.57 -85.7 -6.58 L -85.7 -6.58 Q -86.05 -5.38 -87.05 -5.38 L -87.05 -5.38 Q -87.75 -5.38 -88.39 -5.94 Q -89.02 -6.5 -89.18 -7.32 L -89.18 -7.32 Q -89.06 -9.25 -89.06 -11.18 L -89.06 -11.18 Q -89.06 -12.42 -89.1 -14.9 Q -89.14 -17.37 -89.14 -18.57 L -89.14 -18.57 Q -89.14 -22.28 -88.91 -24.8 L -88.91 -24.8 L -87.17 -24.37 Q -86.39 -15.98 -86.36 -15.75 L -86.36 -15.75 Q -79.74 -15.4 -79.55 -15.4 L -79.55 -15.4 Q -77.96 -15.4 -77.96 -15.59 L -77.96 -15.59 Q -77.96 -16.36 -77.81 -20.5 Q -77.65 -24.64 -77.62 -25.07 Z" stroke-linecap="round" />
</g>
		<g transform="matrix(0.5 0 0 0.5 60.61 18.45)"  >
<path style="stroke: none; stroke-width: 1; stroke-dasharray: none; stroke-linecap: butt; stroke-dashoffset: 0; stroke-linejoin: miter; stroke-miterlimit: 4; fill: rgb(88,143,39); fill-rule: nonzero; opacity: 1;" vector-effect="non-scaling-stroke"  transform=" translate(58.44, 12.9)" d="M -65.55 -5.69 L -66.44 -0.39 L -68.18 -0.78 Q -68.18 -1.21 -68.33 -3.29 Q -68.49 -5.38 -68.49 -6.31 L -68.49 -6.31 Q -68.49 -7.08 -68.37 -7.97 L -68.37 -7.97 L -65.86 -7.97 Q -65.67 -8.63 -65.22 -9.95 Q -64.78 -11.26 -64.62 -11.8 Q -64.47 -12.34 -64.18 -13.41 Q -63.89 -14.47 -63.79 -15.22 Q -63.69 -15.98 -63.6 -17.1 Q -63.5 -18.22 -63.5 -19.46 L -63.5 -19.46 Q -63.5 -22.36 -63.73 -25.99 L -63.73 -25.99 Q -61.57 -25.88 -59.15 -25.84 Q -56.73 -25.8 -55.19 -25.72 Q -53.64 -25.65 -52.02 -25.38 L -52.02 -25.38 Q -51.9 -22.75 -51.76 -16.73 Q -51.63 -10.72 -51.51 -8.09 L -51.51 -8.09 L -48.5 -8.09 L -48.5 -6.93 Q -48.5 -5.92 -48.44 -4.07 Q -48.38 -2.21 -48.38 -1.59 L -48.38 -1.59 Q -48.38 -0.43 -48.46 0.19 L -48.46 0.19 L -50.2 -0.2 Q -50.35 -0.74 -50.49 -1.57 Q -50.62 -2.4 -50.78 -3.37 Q -50.93 -4.34 -51.01 -4.76 L -51.01 -4.76 Q -53.21 -4.88 -58.03 -5.23 Q -62.84 -5.58 -65.55 -5.69 L -65.55 -5.69 Z M -60.48 -23.56 L -60.48 -23.56 Q -60.52 -22.98 -60.56 -21.14 Q -60.6 -19.3 -60.66 -18.34 Q -60.72 -17.37 -60.89 -15.65 Q -61.06 -13.93 -61.33 -12.79 Q -61.61 -11.65 -62.13 -10.31 Q -62.65 -8.98 -63.35 -8.01 L -63.35 -8.01 L -54.88 -8.01 L -54.1 -23.25 Q -54.64 -23.29 -56.95 -23.36 Q -59.25 -23.44 -60.48 -23.56 Z" stroke-linecap="round" />
</g>
		<g transform="matrix(0.5 0 0 0.5 71.72 17.4)"  >
<path style="stroke: none; stroke-width: 1; stroke-dasharray: none; stroke-linecap: butt; stroke-dashoffset: 0; stroke-linejoin: miter; stroke-miterlimit: 4; fill: rgb(88,143,39); fill-rule: nonzero; opacity: 1;" vector-effect="non-scaling-stroke"  transform=" translate(36.2, 14.99)" d="M -38.79 -15.01 L -38.79 -15.01 L -38.94 -17.18 Q -38.83 -17.18 -38.58 -17.16 Q -38.33 -17.14 -38.21 -17.14 L -38.21 -17.14 Q -34.3 -17.14 -34.3 -20.54 L -34.3 -20.54 Q -34.73 -23.52 -37.59 -23.52 L -37.59 -23.52 Q -38.67 -23.52 -40.76 -22.9 L -40.76 -22.9 L -41.46 -24.02 Q -39.83 -25.53 -36.82 -25.53 L -36.82 -25.53 Q -34.69 -25.53 -33.26 -24.45 Q -31.83 -23.36 -31.83 -21.28 L -31.83 -21.28 Q -31.83 -20 -32.33 -18.78 Q -32.83 -17.56 -33.65 -16.94 L -33.65 -16.94 Q -32.18 -16.64 -31.34 -14.95 Q -30.51 -13.27 -30.51 -11.18 L -30.51 -11.18 Q -30.51 -8.48 -32.25 -6.46 Q -33.99 -4.45 -36.74 -4.45 L -36.74 -4.45 Q -38.09 -4.45 -39.99 -5.23 Q -41.88 -6 -41.88 -7.16 L -41.88 -7.16 Q -41.88 -7.97 -40.84 -7.97 L -40.84 -7.97 Q -40.14 -7.97 -39.02 -7.33 Q -37.9 -6.7 -37.17 -6.7 L -37.17 -6.7 Q -35.54 -6.7 -34.3 -8.13 Q -33.07 -9.56 -33.07 -11.3 L -33.07 -11.3 Q -33.07 -13.15 -34.36 -14.1 Q -35.66 -15.05 -37.67 -15.05 L -37.67 -15.05 Q -38.44 -15.05 -38.79 -15.01 Z" stroke-linecap="round" />
</g>
		<g transform="matrix(0.5 0 0 0.5 81.1 17.84)"  >
<path style="stroke: none; stroke-width: 1; stroke-dasharray: none; stroke-linecap: butt; stroke-dashoffset: 0; stroke-linejoin: miter; stroke-miterlimit: 4; fill: rgb(88,143,39); fill-rule: nonzero; opacity: 1;" vector-effect="non-scaling-stroke"  transform=" translate(17.45, 14.1)" d="M -9.13 -25.53 L -9.13 -25.53 L -8.55 -4.76 Q -8.93 -3.6 -9.86 -3.6 L -9.86 -3.6 Q -10.52 -3.6 -11.16 -4.14 Q -11.8 -4.69 -11.95 -5.46 L -11.95 -5.46 L -11.56 -13.85 Q -13.19 -12.81 -14.93 -12.77 L -14.93 -12.77 Q -16.4 -7.93 -18.62 -5.69 Q -20.85 -3.45 -25.72 -2.09 L -25.72 -2.09 L -26.34 -3.76 Q -19.11 -5.58 -18.1 -13.31 L -18.1 -13.31 Q -19.96 -14.08 -21.17 -15.67 Q -22.39 -17.25 -22.39 -19.3 L -22.39 -19.3 Q -22.39 -23.4 -20.3 -24.76 Q -18.22 -26.11 -13.69 -26.11 L -13.69 -26.11 Q -11.33 -26.11 -9.13 -25.53 Z M -11.25 -17.1 L -11.25 -17.1 L -11.45 -23.21 Q -12.8 -23.64 -15.43 -23.64 L -15.43 -23.64 Q -17.29 -23.64 -18.6 -22.8 Q -19.92 -21.97 -19.92 -20.12 L -19.92 -20.12 Q -19.92 -18.03 -18.25 -16.54 Q -16.59 -15.05 -14.62 -15.05 L -14.62 -15.05 Q -12.3 -15.05 -11.25 -17.1 Z" stroke-linecap="round" />
</g>
		<g transform="matrix(0.5 0 0 0.5 89.82 24.9)"  >
<path style="stroke: none; stroke-width: 1; stroke-dasharray: none; stroke-linecap: butt; stroke-dashoffset: 0; stroke-linejoin: miter; stroke-miterlimit: 4; fill: rgb(0,0,0); fill-rule: nonzero; opacity: 1;" vector-effect="non-scaling-stroke"  transform=" translate(0, 0)" d="" stroke-linecap="round" />
</g>
		<g transform="matrix(0.5 0 0 0.5 101.25 17.16)"  >
<path style="stroke: none; stroke-width: 1; stroke-dasharray: none; stroke-linecap: butt; stroke-dashoffset: 0; stroke-linejoin: miter; stroke-miterlimit: 4; fill: rgb(0,0,0); fill-rule: nonzero; opacity: 1;" vector-effect="non-scaling-stroke"  transform=" translate(-22.85, 15.47)" d="M 15.58 -6.7 L 16.43 -25.3 Q 22.43 -26.57 23.74 -26.57 L 23.74 -26.57 Q 28.93 -26.57 28.93 -22.13 L 28.93 -22.13 Q 28.93 -20.58 28.4 -19.13 Q 27.88 -17.68 27.11 -17.22 L 27.11 -17.22 Q 30.12 -15.17 30.12 -11.57 L 30.12 -11.57 Q 30.12 -8.17 27.9 -6.27 Q 25.68 -4.38 22.04 -4.38 L 22.04 -4.38 Q 17.71 -4.38 15.58 -6.7 L 15.58 -6.7 Z M 18.64 -15.59 L 18.64 -15.59 L 18.99 -7.74 Q 19.95 -7.28 21.19 -7.28 L 21.19 -7.28 Q 23.59 -7.28 25.6 -8.79 Q 27.61 -10.29 27.61 -12.3 L 27.61 -12.3 Q 27.61 -13.7 26.53 -14.88 Q 25.44 -16.06 23.78 -16.06 L 23.78 -16.06 Q 22.82 -16.06 18.64 -15.59 Z M 18.25 -23.56 L 18.25 -23.56 L 18.52 -17.6 Q 19.1 -17.68 20.3 -17.72 Q 21.5 -17.76 22.23 -17.89 Q 22.97 -18.03 23.86 -18.47 Q 24.75 -18.92 25.27 -20.04 Q 25.79 -21.16 25.99 -22.98 L 25.99 -22.98 Q 25.6 -24.14 23.63 -24.14 L 23.63 -24.14 Q 22.74 -24.14 20.84 -23.87 Q 18.95 -23.6 18.25 -23.56 Z" stroke-linecap="round" />
</g>
		<g transform="matrix(0.5 0 0 0.5 89.82 24.9)"  >
<path style="stroke: none; stroke-width: 1; stroke-dasharray: none; stroke-linecap: butt; stroke-dashoffset: 0; stroke-linejoin: miter; stroke-miterlimit: 4; fill: rgb(0,0,0); fill-rule: nonzero; opacity: 1;" vector-effect="non-scaling-stroke"  transform=" translate(0, 0)" d="" stroke-linecap="round" />
</g>
		<g transform="matrix(0.5 0 0 0.5 121.97 17.3)"  >
<path style="stroke: none; stroke-width: 1; stroke-dasharray: none; stroke-linecap: butt; stroke-dashoffset: 0; stroke-linejoin: miter; stroke-miterlimit: 4; fill: rgb(0,0,0); fill-rule: nonzero; opacity: 1;" vector-effect="non-scaling-stroke"  transform=" translate(-64.29, 15.21)" d="M 69.38 -24.52 L 69.38 -24.52 L 72.01 -24.76 Q 73.94 -19.54 75.95 -5.3 L 75.95 -5.3 Q 75.29 -5.15 74.64 -5.15 L 74.64 -5.15 Q 74.06 -5.15 73.28 -5.34 L 73.28 -5.34 Q 72.74 -7.47 71.99 -12.85 Q 71.23 -18.22 70.65 -20.46 L 70.65 -20.46 Q 68.76 -17.37 65.55 -9.09 L 65.55 -9.09 Q 65.28 -9.06 64.6 -8.94 Q 63.92 -8.82 63.58 -8.82 L 63.58 -8.82 Q 63.15 -8.82 62.57 -8.94 L 62.57 -8.94 Q 61.95 -10.53 60.73 -14.03 Q 59.51 -17.52 58.78 -19.3 L 58.78 -19.3 Q 55.07 -9.79 54.14 -5.23 L 54.14 -5.23 L 52.63 -5.65 Q 52.82 -8.59 54.76 -15.92 Q 56.69 -23.25 57.08 -25.26 L 57.08 -25.26 Q 57.54 -25.26 58.14 -25.16 Q 58.74 -25.07 59.05 -25.07 L 59.05 -25.07 Q 60.06 -23.33 61.8 -18.39 Q 63.54 -13.46 64.12 -12.23 L 64.12 -12.23 Q 67.06 -20.58 69.38 -24.52 Z" stroke-linecap="round" />
</g>
		<g transform="matrix(0.5 0 0 0.5 134.89 17.32)"  >
<path style="stroke: none; stroke-width: 1; stroke-dasharray: none; stroke-linecap: butt; stroke-dashoffset: 0; stroke-linejoin: miter; stroke-miterlimit: 4; fill: rgb(0,0,0); fill-rule: nonzero; opacity: 1;" vector-effect="non-scaling-stroke"  transform=" translate(-90.13, 15.15)" d="M 85.89 -8.67 L 85.89 -8.67 Q 85.89 -8.01 85.97 -6.93 L 85.97 -6.93 Q 85.62 -5.73 84.61 -5.73 L 84.61 -5.73 Q 83.92 -5.73 83.28 -6.29 Q 82.64 -6.85 82.49 -7.66 L 82.49 -7.66 Q 82.6 -10.8 82.78 -16.83 Q 82.95 -22.86 83.03 -24.99 L 83.03 -24.99 L 84.81 -25.3 Q 85.27 -22.82 85.39 -18.72 Q 85.5 -14.62 85.7 -12.61 L 85.7 -12.61 Q 86.43 -13.7 89.87 -18.26 Q 93.31 -22.82 94.55 -25.07 L 94.55 -25.07 Q 95.4 -25.22 95.63 -25.22 L 95.63 -25.22 Q 96.37 -25.22 96.66 -24.56 Q 96.95 -23.91 97.03 -22.09 L 97.03 -22.09 L 97.76 -6.16 Q 97.41 -5 96.41 -5 L 96.41 -5 Q 95.71 -5 95.07 -5.56 Q 94.44 -6.12 94.28 -6.93 L 94.28 -6.93 Q 94.32 -8.2 94.49 -13.17 Q 94.67 -18.14 94.78 -20.23 L 94.78 -20.23 Q 88.17 -12.69 85.89 -8.67 Z" stroke-linecap="round" />
</g>
		<g transform="matrix(0.5 0 0 0.5 146.37 19.9)"  >
<path style="stroke: none; stroke-width: 1; stroke-dasharray: none; stroke-linecap: butt; stroke-dashoffset: 0; stroke-linejoin: miter; stroke-miterlimit: 4; fill: rgb(0,0,0); fill-rule: nonzero; opacity: 1;" vector-effect="non-scaling-stroke"  transform=" translate(-113.09, 10.01)" d="M 105.88 3.86 L 106.35 -25.8 L 108.51 -25.41 Q 108.51 -24.6 108.55 -24.22 L 108.55 -24.22 Q 110.68 -25.57 112.84 -25.57 L 112.84 -25.57 Q 116.36 -25.57 118.33 -22.55 Q 120.31 -19.54 120.31 -15.71 L 120.31 -15.71 Q 120.31 -13.77 120.02 -12.01 Q 119.73 -10.25 118.99 -8.42 Q 118.26 -6.58 116.73 -5.48 Q 115.2 -4.38 113.04 -4.38 L 113.04 -4.38 Q 110.99 -4.38 109.09 -5.46 L 109.09 -5.46 Q 109.25 1.31 109.36 4.6 L 109.36 4.6 Q 109.01 5.79 108.01 5.79 L 108.01 5.79 Q 107.31 5.79 106.67 5.23 Q 106.04 4.67 105.88 3.86 L 105.88 3.86 Z M 108.86 -21.7 L 108.86 -21.7 L 108.98 -9.21 Q 109.44 -8.28 110.41 -7.72 Q 111.37 -7.16 112.53 -7.16 L 112.53 -7.16 Q 114.04 -7.16 115.11 -8.13 Q 116.17 -9.09 116.61 -10.7 Q 117.06 -12.3 117.23 -13.7 Q 117.41 -15.09 117.41 -16.64 L 117.41 -16.64 Q 117.41 -23.21 112.96 -23.21 L 112.96 -23.21 Q 111.53 -23.21 110.31 -22.8 Q 109.09 -22.4 108.86 -21.7 Z" stroke-linecap="round" />
</g>
		<g transform="matrix(0.5 0 0 0.5 158.01 17.14)"  >
<path style="stroke: none; stroke-width: 1; stroke-dasharray: none; stroke-linecap: butt; stroke-dashoffset: 0; stroke-linejoin: miter; stroke-miterlimit: 4; fill: rgb(0,0,0); fill-rule: nonzero; opacity: 1;" vector-effect="non-scaling-stroke"  transform=" translate(-136.38, 15.53)" d="M 143.97 -9.21 L 143.97 -9.21 L 144.36 -7.51 Q 142.66 -6.89 139.31 -6.14 Q 135.97 -5.38 134.34 -5.38 L 134.34 -5.38 Q 132.68 -5.38 131.44 -6.48 Q 130.21 -7.59 129.59 -9.31 Q 128.97 -11.03 128.68 -12.71 Q 128.39 -14.39 128.39 -16.02 L 128.39 -16.02 Q 128.39 -25.68 137.13 -25.68 L 137.13 -25.68 Q 139.22 -25.68 140.8 -24.35 Q 142.39 -23.02 142.39 -20.89 L 142.39 -20.89 Q 142.39 -19.73 141.75 -18.84 Q 141.11 -17.95 140.2 -17.43 Q 139.29 -16.91 137.88 -16.48 Q 136.47 -16.06 135.39 -15.86 Q 134.31 -15.67 132.8 -15.44 Q 131.29 -15.2 130.71 -15.09 L 130.71 -15.09 Q 130.75 -13.97 130.84 -13.12 Q 130.94 -12.27 131.23 -11.28 Q 131.52 -10.29 132.01 -9.66 Q 132.49 -9.02 133.34 -8.59 Q 134.19 -8.17 135.35 -8.17 L 135.35 -8.17 Q 136.74 -8.17 138.75 -8.42 Q 140.76 -8.67 142.33 -8.94 Q 143.9 -9.21 143.97 -9.21 Z M 130.86 -17.49 L 130.86 -17.49 Q 136.12 -18.99 139.49 -20.66 L 139.49 -20.66 Q 139.22 -21.93 138.75 -22.51 Q 138.29 -23.09 137.36 -23.09 L 137.36 -23.09 Q 135 -23.09 133.09 -21.47 Q 131.17 -19.85 130.86 -17.49 Z" stroke-linecap="round" />
</g>
		<g transform="matrix(0.5 0 0 0.5 -39.08 35.02)"  >
<path style="stroke: none; stroke-width: 1; stroke-dasharray: none; stroke-linecap: butt; stroke-dashoffset: 0; stroke-linejoin: miter; stroke-miterlimit: 4; fill: rgb(0,0,0); fill-rule: nonzero; opacity: 1;" vector-effect="non-scaling-stroke"  transform=" translate(257.81, -20.25)" d="M -262.39 13.63 L -262.39 13.63 L -263.16 11.66 Q -262.16 10.66 -260.61 10.06 Q -259.06 9.46 -257.56 9.46 L -257.56 9.46 Q -251.02 9.46 -251.02 20.75 L -251.02 20.75 Q -251.02 22.3 -251.19 25.31 Q -251.37 28.33 -251.37 29.84 L -251.37 29.84 Q -251.68 31.04 -252.57 31.04 L -252.57 31.04 Q -253.26 31.04 -253.84 30.34 Q -254.42 29.64 -254.42 28.79 L -254.42 28.79 Q -254.42 28.52 -254.38 28.41 L -254.38 28.41 Q -256.78 30.73 -259.49 30.73 L -259.49 30.73 Q -261.54 30.73 -263.07 29.24 Q -264.59 27.75 -264.59 25.62 L -264.59 25.62 Q -264.59 22.02 -261.79 19.12 Q -258.99 16.22 -255.43 16.22 L -255.43 16.22 Q -255.27 16.22 -255.12 16.24 Q -254.97 16.26 -254.75 16.3 Q -254.54 16.34 -254.42 16.34 L -254.42 16.34 Q -254.73 11.82 -258.02 11.82 L -258.02 11.82 Q -259.95 11.82 -262.39 13.63 Z M -254.31 25.74 L -254.31 25.74 Q -254.23 23.03 -254.23 21.64 L -254.23 21.64 Q -254.23 20.48 -254.31 18.39 L -254.31 18.39 L -254.62 18.39 Q -257.36 18.43 -259.63 20.44 Q -261.89 22.45 -261.89 25.31 L -261.89 25.31 Q -261.89 26.55 -261.13 27.28 Q -260.38 28.02 -259.3 28.02 L -259.3 28.02 Q -257.59 28.02 -254.31 25.74 Z" stroke-linecap="round" />
</g>
		<g transform="matrix(0.5 0 0 0.5 -28.1 35.34)"  >
<path style="stroke: none; stroke-width: 1; stroke-dasharray: none; stroke-linecap: butt; stroke-dashoffset: 0; stroke-linejoin: miter; stroke-miterlimit: 4; fill: rgb(0,0,0); fill-rule: nonzero; opacity: 1;" vector-effect="non-scaling-stroke"  transform=" translate(235.84, -20.88)" d="M -231.38 10.73 L -231.38 10.73 L -229.63 11.12 L -228.75 29.88 Q -229.09 31.04 -230.1 31.04 L -230.1 31.04 Q -230.8 31.04 -231.45 30.47 Q -232.11 29.91 -232.26 29.1 L -232.26 29.1 Q -232.26 28.99 -231.92 22.57 L -231.92 22.57 L -231.92 22.26 Q -233 22.18 -235.13 22.18 L -235.13 22.18 Q -238.34 22.18 -239.96 21.99 L -239.96 21.99 Q -239.77 24.23 -239.46 29.22 L -239.46 29.22 Q -239.81 30.42 -240.81 30.42 L -240.81 30.42 Q -241.51 30.42 -242.15 29.86 Q -242.78 29.3 -242.94 28.48 L -242.94 28.48 Q -242.82 26.55 -242.82 24.62 L -242.82 24.62 Q -242.82 23.38 -242.86 20.9 Q -242.9 18.43 -242.9 17.23 L -242.9 17.23 Q -242.9 13.52 -242.67 11 L -242.67 11 L -240.93 11.43 Q -240.15 19.82 -240.12 20.05 L -240.12 20.05 Q -233.5 20.4 -233.31 20.4 L -233.31 20.4 Q -231.72 20.4 -231.72 20.21 L -231.72 20.21 Q -231.72 19.43 -231.57 15.3 Q -231.41 11.16 -231.38 10.73 Z" stroke-linecap="round" />
</g>
		<g transform="matrix(0.5 0 0 0.5 -16.69 35.23)"  >
<path style="stroke: none; stroke-width: 1; stroke-dasharray: none; stroke-linecap: butt; stroke-dashoffset: 0; stroke-linejoin: miter; stroke-miterlimit: 4; fill: rgb(0,0,0); fill-rule: nonzero; opacity: 1;" vector-effect="non-scaling-stroke"  transform=" translate(213.02, -20.65)" d="M -217.26 27.13 L -217.26 27.13 Q -217.26 27.79 -217.18 28.87 L -217.18 28.87 Q -217.53 30.07 -218.54 30.07 L -218.54 30.07 Q -219.23 30.07 -219.87 29.51 Q -220.51 28.95 -220.66 28.13 L -220.66 28.13 Q -220.55 25 -220.37 18.97 Q -220.2 12.94 -220.12 10.81 L -220.12 10.81 L -218.34 10.5 Q -217.88 12.98 -217.76 17.07 Q -217.65 21.17 -217.45 23.18 L -217.45 23.18 Q -216.72 22.1 -213.28 17.54 Q -209.83 12.98 -208.6 10.73 L -208.6 10.73 Q -207.75 10.58 -207.51 10.58 L -207.51 10.58 Q -206.78 10.58 -206.49 11.24 Q -206.2 11.89 -206.12 13.71 L -206.12 13.71 L -205.39 29.64 Q -205.74 30.8 -206.74 30.8 L -206.74 30.8 Q -207.44 30.8 -208.08 30.24 Q -208.71 29.68 -208.87 28.87 L -208.87 28.87 Q -208.83 27.59 -208.66 22.62 Q -208.48 17.65 -208.37 15.57 L -208.37 15.57 Q -214.98 23.11 -217.26 27.13 Z" stroke-linecap="round" />
</g>
		<g transform="matrix(0.5 0 0 0.5 -3.77 35.2)"  >
<path style="stroke: none; stroke-width: 1; stroke-dasharray: none; stroke-linecap: butt; stroke-dashoffset: 0; stroke-linejoin: miter; stroke-miterlimit: 4; fill: rgb(0,0,0); fill-rule: nonzero; opacity: 1;" vector-effect="non-scaling-stroke"  transform=" translate(187.19, -20.59)" d="M -182.11 11.27 L -182.11 11.27 L -179.48 11.04 Q -177.54 16.26 -175.53 30.49 L -175.53 30.49 Q -176.19 30.65 -176.85 30.65 L -176.85 30.65 Q -177.43 30.65 -178.2 30.46 L -178.2 30.46 Q -178.74 28.33 -179.5 22.95 Q -180.25 17.58 -180.83 15.33 L -180.83 15.33 Q -182.73 18.43 -185.94 26.7 L -185.94 26.7 Q -186.21 26.74 -186.88 26.86 Q -187.56 26.97 -187.91 26.97 L -187.91 26.97 Q -188.33 26.97 -188.91 26.86 L -188.91 26.86 Q -189.53 25.27 -190.75 21.77 Q -191.97 18.27 -192.7 16.49 L -192.7 16.49 Q -196.42 26.01 -197.34 30.57 L -197.34 30.57 L -198.85 30.15 Q -198.66 27.21 -196.73 19.88 Q -194.79 12.55 -194.4 10.54 L -194.4 10.54 Q -193.94 10.54 -193.34 10.64 Q -192.74 10.73 -192.43 10.73 L -192.43 10.73 Q -191.43 12.47 -189.69 17.4 Q -187.95 22.33 -187.37 23.57 L -187.37 23.57 Q -184.43 15.22 -182.11 11.27 Z" stroke-linecap="round" />
</g>
		<g transform="matrix(0.5 0 0 0.5 9.31 35.03)"  >
<path style="stroke: none; stroke-width: 1; stroke-dasharray: none; stroke-linecap: butt; stroke-dashoffset: 0; stroke-linejoin: miter; stroke-miterlimit: 4; fill: rgb(0,0,0); fill-rule: nonzero; opacity: 1;" vector-effect="non-scaling-stroke"  transform=" translate(161.01, -20.27)" d="M -153.41 26.59 L -153.41 26.59 L -153.03 28.29 Q -154.73 28.91 -158.07 29.66 Q -161.42 30.42 -163.04 30.42 L -163.04 30.42 Q -164.7 30.42 -165.94 29.31 Q -167.18 28.21 -167.8 26.49 Q -168.42 24.77 -168.71 23.09 Q -169 21.41 -169 19.78 L -169 19.78 Q -169 10.11 -160.26 10.11 L -160.26 10.11 Q -158.17 10.11 -156.58 11.45 Q -155 12.78 -155 14.91 L -155 14.91 Q -155 16.07 -155.64 16.96 Q -156.27 17.85 -157.18 18.37 Q -158.09 18.89 -159.5 19.32 Q -160.92 19.74 -162 19.94 Q -163.08 20.13 -164.59 20.36 Q -166.1 20.59 -166.68 20.71 L -166.68 20.71 Q -166.64 21.83 -166.54 22.68 Q -166.45 23.53 -166.16 24.52 Q -165.87 25.51 -165.38 26.14 Q -164.9 26.78 -164.05 27.21 Q -163.2 27.63 -162.04 27.63 L -162.04 27.63 Q -160.64 27.63 -158.63 27.38 Q -156.62 27.13 -155.06 26.86 Q -153.49 26.59 -153.41 26.59 Z M -166.52 18.31 L -166.52 18.31 Q -161.26 16.8 -157.9 15.14 L -157.9 15.14 Q -158.17 13.86 -158.63 13.28 Q -159.1 12.7 -160.03 12.7 L -160.03 12.7 Q -162.38 12.7 -164.3 14.33 Q -166.21 15.95 -166.52 18.31 Z" stroke-linecap="round" />
</g>
		<g transform="matrix(0.5 0 0 0.5 89.82 24.9)"  >
<path style="stroke: none; stroke-width: 1; stroke-dasharray: none; stroke-linecap: butt; stroke-dashoffset: 0; stroke-linejoin: miter; stroke-miterlimit: 4; fill: rgb(0,0,0); fill-rule: nonzero; opacity: 1;" vector-effect="non-scaling-stroke"  transform=" translate(0, 0)" d="" stroke-linecap="round" />
</g>
		<g transform="matrix(0.5 0 0 0.5 28.38 35.23)"  >
<path style="stroke: none; stroke-width: 1; stroke-dasharray: none; stroke-linecap: butt; stroke-dashoffset: 0; stroke-linejoin: miter; stroke-miterlimit: 4; fill: rgb(0,0,0); fill-rule: nonzero; opacity: 1;" vector-effect="non-scaling-stroke"  transform=" translate(122.88, -20.65)" d="M -127.12 27.13 L -127.12 27.13 Q -127.12 27.79 -127.04 28.87 L -127.04 28.87 Q -127.39 30.07 -128.39 30.07 L -128.39 30.07 Q -129.09 30.07 -129.73 29.51 Q -130.36 28.95 -130.52 28.13 L -130.52 28.13 Q -130.4 25 -130.23 18.97 Q -130.05 12.94 -129.98 10.81 L -129.98 10.81 L -128.2 10.5 Q -127.73 12.98 -127.62 17.07 Q -127.5 21.17 -127.31 23.18 L -127.31 23.18 Q -126.57 22.1 -123.13 17.54 Q -119.69 12.98 -118.45 10.73 L -118.45 10.73 Q -117.6 10.58 -117.37 10.58 L -117.37 10.58 Q -116.64 10.58 -116.35 11.24 Q -116.06 11.89 -115.98 13.71 L -115.98 13.71 L -115.24 29.64 Q -115.59 30.8 -116.6 30.8 L -116.6 30.8 Q -117.29 30.8 -117.93 30.24 Q -118.57 29.68 -118.72 28.87 L -118.72 28.87 Q -118.69 27.59 -118.51 22.62 Q -118.34 17.65 -118.22 15.57 L -118.22 15.57 Q -124.83 23.11 -127.12 27.13 Z" stroke-linecap="round" />
</g>
		<g transform="matrix(0.5 0 0 0.5 89.82 24.9)"  >
<path style="stroke: none; stroke-width: 1; stroke-dasharray: none; stroke-linecap: butt; stroke-dashoffset: 0; stroke-linejoin: miter; stroke-miterlimit: 4; fill: rgb(0,0,0); fill-rule: nonzero; opacity: 1;" vector-effect="non-scaling-stroke"  transform=" translate(0, 0)" d="" stroke-linecap="round" />
</g>
		<g transform="matrix(0.5 0 0 0.5 49.3 35.2)"  >
<path style="stroke: none; stroke-width: 1; stroke-dasharray: none; stroke-linecap: butt; stroke-dashoffset: 0; stroke-linejoin: miter; stroke-miterlimit: 4; fill: rgb(0,0,0); fill-rule: nonzero; opacity: 1;" vector-effect="non-scaling-stroke"  transform=" translate(81.04, -20.59)" d="M -75.95 11.27 L -75.95 11.27 L -73.32 11.04 Q -71.39 16.26 -69.38 30.49 L -69.38 30.49 Q -70.04 30.65 -70.69 30.65 L -70.69 30.65 Q -71.27 30.65 -72.05 30.46 L -72.05 30.46 Q -72.59 28.33 -73.34 22.95 Q -74.1 17.58 -74.68 15.33 L -74.68 15.33 Q -76.57 18.43 -79.78 26.7 L -79.78 26.7 Q -80.05 26.74 -80.73 26.86 Q -81.41 26.97 -81.75 26.97 L -81.75 26.97 Q -82.18 26.97 -82.76 26.86 L -82.76 26.86 Q -83.38 25.27 -84.6 21.77 Q -85.81 18.27 -86.55 16.49 L -86.55 16.49 Q -90.26 26.01 -91.19 30.57 L -91.19 30.57 L -92.7 30.15 Q -92.5 27.21 -90.57 19.88 Q -88.64 12.55 -88.25 10.54 L -88.25 10.54 Q -87.79 10.54 -87.19 10.64 Q -86.59 10.73 -86.28 10.73 L -86.28 10.73 Q -85.27 12.47 -83.53 17.4 Q -81.79 22.33 -81.21 23.57 L -81.21 23.57 Q -78.27 15.22 -75.95 11.27 Z" stroke-linecap="round" />
</g>
		<g transform="matrix(0.5 0 0 0.5 61.39 35.02)"  >
<path style="stroke: none; stroke-width: 1; stroke-dasharray: none; stroke-linecap: butt; stroke-dashoffset: 0; stroke-linejoin: miter; stroke-miterlimit: 4; fill: rgb(0,0,0); fill-rule: nonzero; opacity: 1;" vector-effect="non-scaling-stroke"  transform=" translate(56.87, -20.25)" d="M -61.45 13.63 L -61.45 13.63 L -62.22 11.66 Q -61.22 10.66 -59.67 10.06 Q -58.13 9.46 -56.62 9.46 L -56.62 9.46 Q -50.08 9.46 -50.08 20.75 L -50.08 20.75 Q -50.08 22.3 -50.26 25.31 Q -50.43 28.33 -50.43 29.84 L -50.43 29.84 Q -50.74 31.04 -51.63 31.04 L -51.63 31.04 Q -52.32 31.04 -52.9 30.34 Q -53.48 29.64 -53.48 28.79 L -53.48 28.79 Q -53.48 28.52 -53.45 28.41 L -53.45 28.41 Q -55.84 30.73 -58.55 30.73 L -58.55 30.73 Q -60.6 30.73 -62.13 29.24 Q -63.66 27.75 -63.66 25.62 L -63.66 25.62 Q -63.66 22.02 -60.85 19.12 Q -58.05 16.22 -54.49 16.22 L -54.49 16.22 Q -54.34 16.22 -54.18 16.24 Q -54.03 16.26 -53.81 16.3 Q -53.6 16.34 -53.48 16.34 L -53.48 16.34 Q -53.79 11.82 -57.08 11.82 L -57.08 11.82 Q -59.01 11.82 -61.45 13.63 Z M -53.37 25.74 L -53.37 25.74 Q -53.29 23.03 -53.29 21.64 L -53.29 21.64 Q -53.29 20.48 -53.37 18.39 L -53.37 18.39 L -53.68 18.39 Q -56.42 18.43 -58.69 20.44 Q -60.95 22.45 -60.95 25.31 L -60.95 25.31 Q -60.95 26.55 -60.19 27.28 Q -59.44 28.02 -58.36 28.02 L -58.36 28.02 Q -56.66 28.02 -53.37 25.74 Z" stroke-linecap="round" />
</g>
		<g transform="matrix(0.5 0 0 0.5 72.37 35.34)"  >
<path style="stroke: none; stroke-width: 1; stroke-dasharray: none; stroke-linecap: butt; stroke-dashoffset: 0; stroke-linejoin: miter; stroke-miterlimit: 4; fill: rgb(0,0,0); fill-rule: nonzero; opacity: 1;" vector-effect="non-scaling-stroke"  transform=" translate(34.91, -20.88)" d="M -30.44 10.73 L -30.44 10.73 L -28.7 11.12 L -27.81 29.88 Q -28.15 31.04 -29.16 31.04 L -29.16 31.04 Q -29.86 31.04 -30.51 30.47 Q -31.17 29.91 -31.33 29.1 L -31.33 29.1 Q -31.33 28.99 -30.98 22.57 L -30.98 22.57 L -30.98 22.26 Q -32.06 22.18 -34.19 22.18 L -34.19 22.18 Q -37.4 22.18 -39.02 21.99 L -39.02 21.99 Q -38.83 24.23 -38.52 29.22 L -38.52 29.22 Q -38.87 30.42 -39.87 30.42 L -39.87 30.42 Q -40.57 30.42 -41.21 29.86 Q -41.84 29.3 -42 28.48 L -42 28.48 Q -41.88 26.55 -41.88 24.62 L -41.88 24.62 Q -41.88 23.38 -41.92 20.9 Q -41.96 18.43 -41.96 17.23 L -41.96 17.23 Q -41.96 13.52 -41.73 11 L -41.73 11 L -39.99 11.43 Q -39.21 19.82 -39.18 20.05 L -39.18 20.05 Q -32.56 20.4 -32.37 20.4 L -32.37 20.4 Q -30.78 20.4 -30.78 20.21 L -30.78 20.21 Q -30.78 19.43 -30.63 15.3 Q -30.47 11.16 -30.44 10.73 Z" stroke-linecap="round" />
</g>
		<g transform="matrix(0.5 0 0 0.5 83.18 34.86)"  >
<path style="stroke: none; stroke-width: 1; stroke-dasharray: none; stroke-linecap: butt; stroke-dashoffset: 0; stroke-linejoin: miter; stroke-miterlimit: 4; fill: rgb(0,0,0); fill-rule: nonzero; opacity: 1;" vector-effect="non-scaling-stroke"  transform=" translate(13.29, -19.92)" d="M -18.95 10.5 L -18.95 10.5 Q -17.29 10.35 -13.92 9.98 Q -10.56 9.61 -9.17 9.5 L -9.17 9.5 Q -8.2 9.53 -7.52 10.21 Q -6.85 10.89 -6.85 11.66 L -6.85 11.66 Q -6.85 12.82 -8.39 12.98 L -8.39 12.98 Q -9.82 12.86 -12.72 12.59 Q -15.62 12.32 -17.13 12.2 L -17.13 12.2 Q -17.09 14.56 -16.67 19.86 Q -16.24 25.16 -16.24 27.94 L -16.24 27.94 Q -16.24 30.34 -18.14 30.34 L -18.14 30.34 Q -19.72 30.34 -19.72 28.17 L -19.72 28.17 Q -19.72 25.62 -19.61 22.7 Q -19.49 19.78 -19.26 16.01 Q -19.03 12.24 -18.95 10.5 Z" stroke-linecap="round" />
</g>
		<g transform="matrix(0.5 0 0 0.5 92.63 35.02)"  >
<path style="stroke: none; stroke-width: 1; stroke-dasharray: none; stroke-linecap: butt; stroke-dashoffset: 0; stroke-linejoin: miter; stroke-miterlimit: 4; fill: rgb(0,0,0); fill-rule: nonzero; opacity: 1;" vector-effect="non-scaling-stroke"  transform=" translate(-5.63, -20.25)" d="M 1.04 13.63 L 1.04 13.63 L 0.27 11.66 Q 1.27 10.66 2.82 10.06 Q 4.37 9.46 5.88 9.46 L 5.88 9.46 Q 12.41 9.46 12.41 20.75 L 12.41 20.75 Q 12.41 22.3 12.24 25.31 Q 12.06 28.33 12.06 29.84 L 12.06 29.84 Q 11.75 31.04 10.87 31.04 L 10.87 31.04 Q 10.17 31.04 9.59 30.34 Q 9.01 29.64 9.01 28.79 L 9.01 28.79 Q 9.01 28.52 9.05 28.41 L 9.05 28.41 Q 6.65 30.73 3.94 30.73 L 3.94 30.73 Q 1.89 30.73 0.37 29.24 Q -1.16 27.75 -1.16 25.62 L -1.16 25.62 Q -1.16 22.02 1.64 19.12 Q 4.45 16.22 8 16.22 L 8 16.22 Q 8.16 16.22 8.31 16.24 Q 8.47 16.26 8.68 16.3 Q 8.89 16.34 9.01 16.34 L 9.01 16.34 Q 8.7 11.82 5.41 11.82 L 5.41 11.82 Q 3.48 11.82 1.04 13.63 Z M 9.13 25.74 L 9.13 25.74 Q 9.2 23.03 9.2 21.64 L 9.2 21.64 Q 9.2 20.48 9.13 18.39 L 9.13 18.39 L 8.82 18.39 Q 6.07 18.43 3.81 20.44 Q 1.55 22.45 1.55 25.31 L 1.55 25.31 Q 1.55 26.55 2.3 27.28 Q 3.05 28.02 4.14 28.02 L 4.14 28.02 Q 5.84 28.02 9.13 25.74 Z" stroke-linecap="round" />
</g>
		<g transform="matrix(1.15 0 0 1.15 -118.18 0.2)"  >
<linearGradient id="SVGID_35" gradientUnits="userSpaceOnUse" gradientTransform="matrix(1 0 0 1 11.94 3.87)"  x1="0" y1="0" x2="100" y2="100">
<stop offset="0%" style="stop-color:rgb(0,104,56);stop-opacity: 1"/>
<stop offset="100%" style="stop-color:rgb(150,207,36);stop-opacity: 1"/>
</linearGradient>
<path style="stroke: none; stroke-width: 1; stroke-dasharray: none; stroke-linecap: butt; stroke-dashoffset: 0; stroke-linejoin: miter; stroke-miterlimit: 4; fill: url(#SVGID_35); fill-rule: nonzero; opacity: 1;" vector-effect="non-scaling-stroke"  transform=" translate(-50.04, -50)" d="M 81.95 68.44 C 80.07000000000001 68.24 78.04 69.14 75.95 71.09 C 75.42647902403716 71.61212466605215 74.73644478700881 71.93414064333206 74 72 C 82.93 60.88 84.77 42.9 78.86 26.14 C 79.63998744764855 26.30022521870258 80.43374878272675 26.383955317339524 81.23 26.39 C 82.77567225491818 26.44591027039482 84.29693698397406 25.99269283379387 85.56 25.1 C 87.56 23.62 88.46000000000001 20.970000000000002 88.03 17.85 C 87.90258951255677 16.436663180726473 87.10728039075191 15.169371542710314 85.89 14.440000000000001 C 83.36 12.98 79.57 14.150000000000002 78.3 14.610000000000001 L 78.3 14.610000000000001 L 78.3 14.610000000000001 L 77.86999999999999 13.690000000000001 C 77.77 13.48 75.41999999999999 8.540000000000001 72.07999999999998 6.110000000000001 C 71.2716941040085 5.460107920879243 70.20237726983349 5.233620674751895 69.2 5.5 C 67.87369553495819 5.967753829695398 66.7291791973779 6.842766320200196 65.93 8.000000000000002 C 62.30771912554387 5.617691426814812 58.11895919075235 4.237539883226176 53.78999999999999 4 C 53.53 4 52.46 3.89 50.66 3.87 C 48.85999999999999 3.85 46.94 3.98 46.66 4 C 40.01068520115668 4.428644902713369 33.7935446921002 7.443886258144912 29.339999999999982 12.400000000000006 C 28.688147066741998 12.081927963842839 27.96313697748151 11.943830803983698 27.239999999999995 12 C 25.709999999999997 12.12 24.33 13.120000000000001 23.14 15 C 22.297955505036015 16.21055969284752 22.061781251185398 17.742002120160116 22.5 19.149999999999995 C 22.748535127862016 19.868428489170824 23.135879247500508 20.530990799078772 23.64 21.099999999999994 L 23.64 21.159999999999997 C 15.25 39.599999999999994 16.45 59.76 26.51 71.94 C 25.43742885573956 72.26868454374686 24.27138601381354 71.95385297642684 23.51 71.13 C 21.400000000000002 69.13 19.37 68.28999999999999 17.51 68.47999999999999 C 15.910533326751988 68.69116227591985 14.488280351227917 69.60389678856286 13.630000000000003 70.96999999999998 C 12.230000000000002 72.96999999999998 11.700000000000003 74.72999999999999 12.030000000000003 76.44999999999999 C 12.51902021858517 78.37291145014649 13.767681610423317 80.01493726889319 15.49 81 C 15.55 82.78 16.4 84.91 19.490000000000002 86.34 C 19.76 88.14 20.87 90.18 24.19 91.2 C 24.79 93 26.4 95 30.55 95.39 C 31.29 95.45 32.08 95.57000000000001 32.92 95.7 C 34.37340544006106 95.95789767521003 35.84430601910648 96.10498773311457 37.32 96.14 C 40.8 96.14 44.42 94.96 46.74 89.68 C 47.628433423038906 87.69531969108051 48.32169807405638 85.62892215640528 48.81 83.51 C 49.27 83.51 49.81 83.51 50.34 83.51 L 50.620000000000005 83.51 C 51.107915511330475 85.61483141339988 51.7977784548145 87.6676759976509 52.67999999999999 89.64 C 55 95 58.63 96.14 62.11 96.14 C 63.58569160317293 96.10494924623549 65.05658926941177 95.95785947961161 66.51 95.7 C 67.35000000000001 95.57000000000001 68.15 95.45 68.88000000000001 95.39 C 73 95 74.64 93 75.22 91.16 C 78.53 90.16 79.64 88.11 79.92 86.3 C 83.04 84.86999999999999 83.92 82.75 83.92 80.96 C 85.65585363935466 79.97878519735366 86.91630003948941 78.33189821035812 87.41 76.39999999999999 C 87.72999999999999 74.67999999999999 87.21 72.88999999999999 85.81 70.91999999999999 C 84.95391954119852 69.5626617576731 83.54035981959333 68.65446794690087 81.95 68.44 Z M 46.690000000000005 6.439999999999998 L 46.77 6.439999999999998 C 46.77 6.439999999999998 48.77 6.299999999999998 50.64 6.319999999999998 C 52.51 6.339999999999997 53.64 6.439999999999998 53.64 6.439999999999998 L 53.76 6.439999999999998 C 57.63008882038096 6.681082475270329 61.36706034978114 7.943992521217203 64.59 10.099999999999998 C 64.32000000000001 10.58 64.15 10.95 64.10000000000001 11.1 L 63.88000000000001 11.59 L 64.14000000000001 12.06 C 65.0762291382956 14.01490539978019 66.70999518537288 15.548790553149678 68.72000000000001 16.359999999999996 C 65.19 18.35 57.24 20 51.33 20 L 50.33 20 C 42.66 20 31.63 17.6 31.13 14.35 L 31.13 14.19 C 35.134801290140686 9.711969754689562 40.703127395861216 6.938542549076837 46.690000000000005 6.440000000000003 Z M 25.58 22.76 C 26.410506292592995 23.32843588318237 27.294734372601315 23.814091457429363 28.22 24.21 C 29.22 25.01 34.45 28.93 46.8 28.93 C 47.919999999999995 28.93 49.089999999999996 29 50.33 29 L 51.33 29 C 66.2 30 72.33 25.27 73.43 24.39 C 73.7 24.53 73.94000000000001 24.55 74.11000000000001 24.63 C 74.74000000000001 24.919999999999998 75.33000000000001 25.119999999999997 75.91000000000001 25.34 C 82.56000000000002 42.519999999999996 80.64000000000001 61.269999999999996 70.91000000000001 71.9 L 70.91000000000001 72.12 C 70 73.07 69 74 68 75 L 68 75 C 67.67826646169698 75.06226349084783 67.38236001126072 75.21891984696114 67.15 75.45 L 67.15 75.35000000000001 C 66.91000000000001 75.53000000000002 66.67 75.65 66.43 75.82000000000001 L 66.26 75.91000000000001 C 65.66000000000001 76.33000000000001 65.05000000000001 76.78000000000002 64.42 77.15 C 63.29 77.81 62.06 78.01 60.78 79.01 L 60.78 79.01 C 59.67 79.01 58.52 79.78 57.33 80.12 C 56.07921012402399 80.45463754754017 54.81052467010497 80.71839057611807 53.53 80.91 C 53.26 80.91000000000001 52.980000000000004 80.97000000000001 52.69 81.00000000000001 L 52.58 81.00000000000001 C 52.25 81.00000000000001 51.91 81.05000000000001 51.58 81.07000000000001 C 50.366521562900914 81.13174872485824 49.150207152714806 81.10835806312389 47.94 81 L 47.33 80.94 L 46.89 80.88 L 46 80.68 C 43.518089324556826 80.14819156399155 41.100776702147684 79.35024370805067 38.78999999999999 78.30000000000001 C 38.089999999999996 77.98000000000002 37.4 77.62 36.72 77.25000000000001 C 36.24 76.98000000000002 35.769999999999996 76.71000000000001 35.31 76.42000000000002 L 35.31 76.42000000000002 Q 34.47 75.89000000000001 33.660000000000004 75.30000000000001 L 33.59 75.25000000000001 L 33.290000000000006 75.02000000000001 C 32.84 74.68 32.39000000000001 74.33000000000001 31.960000000000008 73.96000000000001 L 31.410000000000007 73.48 L 31.270000000000007 73.35000000000001 L 30.93 73 L 30.6 72.7 Q 29.94 72.07000000000001 29.34 71.4 C 19.11 60.24 17.63 40.76 25.58 22.76 Z M 15.579999999999998 72.35000000000001 C 16.031270948908 71.56320034438487 16.814285500015142 71.02281002038134 17.709999999999997 70.88000000000001 L 18 70.88000000000001 C 19.09 70.88000000000001 20.41 71.57000000000001 21.85 72.88000000000001 C 23.529241511632126 74.58072212690566 26.13160907316155 74.96414305289902 28.230000000000004 73.82000000000001 L 28.29 73.88000000000001 C 28.619999999999997 74.21000000000001 28.95 74.54 29.29 74.88000000000001 L 29.4 74.99000000000001 L 29.33 75.05000000000001 L 29.22 75.13000000000001 L 29.04 75.25000000000001 L 28.939999999999998 75.31000000000002 L 28.74 75.41000000000001 L 28.66 75.41000000000001 L 28.39 75.51 L 28.310000000000002 75.51 L 28.12 75.51 L 28.01 75.51 L 27.85 75.51 L 27.23 75.51 L 26.990000000000002 75.51 L 26.94 75.51 L 26.76 75.51 L 26.680000000000003 75.51 L 26.540000000000003 75.51 L 26.460000000000004 75.51 L 26.330000000000005 75.46000000000001 L 26.260000000000005 75.46000000000001 L 26.130000000000006 75.4 L 26.070000000000007 75.4 L 25.900000000000006 75.31 C 24.95829658658545 74.7725684462376 23.949511682787232 74.36232925202633 22.900000000000006 74.09 C 21.74706289778985 73.75757842087438 20.52093806863274 73.77847827591684 19.380000000000006 74.15 C 17.873944409545967 74.72974178361284 16.70456000689403 75.9504471318357 16.190000000000005 77.48 C 16.080000000000005 77.76 15.980000000000004 78.03 15.900000000000006 78.29 L 15.900000000000006 78.29 C 15.15736823805536 77.72502796522726 14.628515016419698 76.92469675648529 14.400000000000006 76.02000000000001 C 14.276294896513402 74.68172871164629 14.714615439180292 73.35227714835082 15.609999999999998 72.35 Z M 18 80.42 C 18.075702227820646 79.68002456260616 18.261064307563203 78.95542734179435 18.55 78.27 C 18.804673889753158 77.39789666024109 19.44083979949646 76.68818555861995 20.28 76.33999999999999 C 20.423077735240952 76.29023463132684 20.570335942470624 76.25342007951943 20.720000000000002 76.22999999999999 L 20.85 76.22999999999999 L 21.200000000000003 76.22999999999999 L 21.630000000000003 76.22999999999999 L 21.770000000000003 76.22999999999999 L 22.120000000000005 76.28999999999999 L 22.290000000000006 76.28999999999999 L 22.700000000000006 76.39999999999999 L 22.810000000000006 76.39999999999999 L 23.350000000000005 76.58999999999999 L 23.520000000000007 76.65999999999998 L 23.950000000000006 76.84999999999998 L 24.130000000000006 76.93999999999998 L 24.710000000000004 77.23999999999998 L 24.710000000000004 77.23999999999998 C 24.900000000000006 77.33999999999997 25.080000000000005 77.43999999999998 25.270000000000003 77.51999999999998 L 25.440000000000005 77.58999999999997 L 25.820000000000004 77.72999999999998 L 26.020000000000003 77.78999999999998 L 26.370000000000005 77.88999999999997 L 26.560000000000006 77.88999999999997 L 26.930000000000007 77.94999999999997 L 27.080000000000005 77.94999999999997 L 27.580000000000005 77.94999999999997 L 27.580000000000005 77.94999999999997 L 28.040000000000006 77.94999999999997 L 28.190000000000005 77.94999999999997 L 28.510000000000005 77.89999999999998 L 28.680000000000007 77.89999999999998 L 28.980000000000008 77.81999999999998 L 29.140000000000008 77.81999999999998 L 29.450000000000006 77.69999999999997 L 29.570000000000007 77.69999999999997 L 29.980000000000008 77.49999999999997 L 30.040000000000006 77.49999999999997 L 30.380000000000006 77.29999999999997 L 30.510000000000005 77.20999999999997 L 30.750000000000004 77.03999999999996 L 30.890000000000004 76.92999999999996 L 31.110000000000003 76.74999999999996 L 31.240000000000002 76.63999999999996 L 31.3 76.63999999999996 L 31.75 76.97999999999996 L 32.17 77.29999999999995 L 32.58 77.58999999999996 L 33.1 77.95999999999997 L 33.1 77.95999999999997 L 33.1 77.95999999999997 L 33 78 L 32.94 78.1 L 32.89 78.17999999999999 L 32.81 78.28999999999999 L 32.75 78.36999999999999 L 32.59 78.55999999999999 L 32.52 78.62999999999998 L 32.400000000000006 78.74999999999999 L 32.31 78.82999999999998 L 32.18 78.93999999999998 L 32.08 79.01999999999998 L 31.93 79.11999999999998 L 31.82 79.18999999999997 L 31.64 79.28999999999996 L 31.54 79.33999999999996 L 31.23 79.45999999999997 L 31.16 79.45999999999997 L 30.89 79.51999999999997 L 30.76 79.51999999999997 L 30.520000000000003 79.51999999999997 L 30.110000000000003 79.51999999999997 L 29.950000000000003 79.51999999999997 L 29.650000000000002 79.45999999999997 L 29.51 79.45999999999997 C 29.35044678947192 79.41555520580884 29.19353038159221 79.36213685419021 29.040000000000003 79.29999999999997 C 26.360000000000003 78.23999999999997 24.150000000000002 78.14999999999996 22.470000000000002 79.00999999999996 C 21.055077587431626 79.78361679013136 20.05811741512803 81.14710643754658 19.750000000000004 82.72999999999996 C 19.680000000000003 82.99999999999996 19.630000000000003 83.25999999999996 19.580000000000002 83.50999999999996 L 19.580000000000002 83.50999999999996 C 18.478244130617085 82.89301233737324 17.855142386053807 81.67441462174 18 80.42 Z M 21.95 85.42 C 21.94611112074999 84.72097333790178 22.03693699520528 84.02464163374457 22.22 83.35000000000001 C 22.364493227181605 82.45515632189606 22.89951666533624 81.67094388514884 23.68 81.21000000000001 C 23.79918946412843 81.15033149801063 23.92290791457269 81.10017536945215 24.05 81.06 L 24.17 81.06 L 24.470000000000002 80.99000000000001 L 24.62 80.99000000000001 L 24.95 80.99000000000001 L 25.3 80.99000000000001 L 25.73 80.99000000000001 L 25.98 80.99000000000001 L 26.42 81.07000000000001 L 26.69 81.13000000000001 L 27.200000000000003 81.27000000000001 L 27.44 81.34 C 27.700000000000003 81.42 27.96 81.52000000000001 28.23 81.62 C 28.5 81.72 28.64 81.77000000000001 28.85 81.83 L 28.92 81.83 L 29.48 81.96 L 29.56 81.96 L 30 82 L 30.64 82 C 30.97720355830935 81.98719754730442 31.312244943780655 81.94029175333843 31.64 81.86 L 31.64 81.86 L 32.09 81.72 L 32.09 81.72 L 32.5 81.55 L 32.5 81.55 L 32.89 81.34 L 32.89 81.34 C 33.15028418645102 81.1831651194923 33.39772592299732 81.00594333520915 33.63 80.81 L 33.63 80.81 L 33.940000000000005 80.52 L 33.940000000000005 80.52 L 34.220000000000006 80.22999999999999 L 34.220000000000006 80.22999999999999 L 34.470000000000006 79.92999999999999 L 34.470000000000006 79.92999999999999 C 34.62565464023919 79.72868014963463 34.76923975387204 79.51831126221906 34.900000000000006 79.3 L 34.900000000000006 79.3 L 35.31 79.53 L 35.650000000000006 79.72 L 36.290000000000006 80.05 L 36.550000000000004 80.19 L 36.550000000000004 80.19 L 36.550000000000004 80.24 L 36.550000000000004 80.36 L 36.550000000000004 80.44 L 36.550000000000004 80.50999999999999 L 36.550000000000004 80.57 L 36.550000000000004 80.57 L 36.550000000000004 80.63 L 36.550000000000004 80.71 C 36.44828627644814 81.01522028098313 36.31065417083895 81.30726889532457 36.14000000000001 81.58 L 36.14000000000001 81.58 L 36.00000000000001 81.78999999999999 L 36.00000000000001 81.78999999999999 L 36 82 L 35.93 82.08 L 35.8 82.22 L 35.69 82.32 L 35.559999999999995 82.42999999999999 L 35.4 82.53999999999999 L 35.28 82.61999999999999 L 35.08 82.72999999999999 L 34.97 82.78999999999999 L 34.72 82.88 L 34.62 82.88 L 34.33 82.94 L 34.23 82.94 L 33.88999999999999 82.94 L 33.79999999999999 82.94 L 33.39999999999999 82.94 L 33.31999999999999 82.94 C 33.14482392716632 82.91708885630622 32.97117905959358 82.88369561254223 32.79999999999999 82.84 C 30.00999999999999 82.12 27.79999999999999 82.3 26.23999999999999 83.37 C 24.938431860533264 84.3063690342766 24.118252852816546 85.77097440519931 23.999999999999993 87.37 C 23.999999999999993 87.68 23.939999999999994 87.97 23.919999999999995 88.26 C 23.919999999999995 88.26 23.919999999999995 88.32000000000001 23.919999999999995 88.34 C 22.7063338070242 87.87967926925289 21.90272485503911 86.7180267247992 21.9 85.42 Z M 44.54 88.69 C 41.94 94.59 37.76 93.95 33.34 93.28 C 32.46 93.15 31.620000000000005 93.02 30.800000000000004 92.95 C 27.400000000000006 92.66 26.710000000000004 91.2 26.490000000000006 89.95 Q 26.490000000000006 89.71000000000001 26.430000000000007 89.46000000000001 Q 26.370000000000008 89.21000000000001 26.430000000000007 88.93 C 26.43138548759311 88.53535990066356 26.45810711684968 88.14121586912918 26.510000000000005 87.75 L 26.510000000000005 87.75 C 26.535909464221834 86.84449918248971 26.96958911323853 85.99919139203344 27.690000000000005 85.45 C 27.819676577240134 85.36432514584625 27.956914411154827 85.29068533252617 28.100000000000005 85.23 L 28.250000000000004 85.17 L 28.570000000000004 85.06 L 28.780000000000005 85.06 L 29 85 L 29.24 85 L 29.59 85 L 30.15 85 L 30.529999999999998 85 L 30.779999999999998 85 L 31.229999999999997 85.07 L 31.449999999999996 85.07 L 32.16 85.22999999999999 C 33.57893144003013 85.63702453624103 35.101480159042794 85.46308401655908 36.39204925754948 84.74651803453938 C 37.682618356056174 84.02995205251968 38.63526180738999 82.82958529157321 39.04 81.41 L 39.04 81.28999999999999 L 39.04 81.28999999999999 L 39.04 81.14999999999999 L 39.04 81.14999999999999 L 39.22 81.21 C 39.69517777495683 81.49043545658292 40.216748066166836 81.68348420073207 40.76 81.77999999999999 L 40.76 81.77999999999999 C 41.31081805375053 81.88165091801608 41.845561237097016 82.05653548112309 42.349999999999994 82.29999999999998 L 42.67 82.39999999999998 C 43.190000000000005 82.54999999999998 43.67 82.69999999999997 44.25 82.82999999999998 L 44.56 82.90999999999998 C 45.07 83.02999999999999 45.56 83.14999999999998 46.1 83.24999999999999 L 46.230000000000004 83.24999999999999 C 45.815770605552366 85.1122393285902 45.23338182177575 86.93304104338604 44.49 88.69 Z M 68.72 92.94 C 67.9 93.00999999999999 67.07 93.14 66.17999999999999 93.27 C 61.74999999999999 93.95 57.56999999999999 94.58 54.97999999999999 88.67999999999999 C 54.21549537229317 86.9739633572666 53.603117590085056 85.2037565442169 53.14999999999999 83.38999999999999 L 53.239999999999995 83.38999999999999 L 53.94 83.28999999999999 L 53.94 83.28999999999999 C 54.44 83.21 54.94 83.11999999999999 55.419999999999995 83.02 L 55.71999999999999 82.96 Q 56.43999999999999 82.80999999999999 57.13999999999999 82.63 L 57.41 82.56 C 57.879999999999995 82.44 58.36 82.3 58.81999999999999 82.16 L 58.81999999999999 82.16 C 59.29999999999999 82.00999999999999 59.769999999999996 81.85 60.22999999999999 81.69 L 60.37999999999999 81.69 L 60.37999999999999 81.69 C 60.37999999999999 81.8 60.45999999999999 81.91 60.50999999999999 82.02 L 60.50999999999999 82.02 L 60.66999999999999 82.36999999999999 L 60.66999999999999 82.36999999999999 L 60.859999999999985 82.71999999999998 L 60.859999999999985 82.71999999999998 L 61.079999999999984 83.05999999999999 L 61.079999999999984 83.05999999999999 L 61.329999999999984 83.39999999999999 L 61.329999999999984 83.39999999999999 L 61.61999999999998 83.71999999999998 L 61.61999999999998 83.71999999999998 L 61.93999999999998 84.01999999999998 L 61.93999999999998 84.01999999999998 L 62.289999999999985 84.29999999999998 L 62.33999999999998 84.29999999999998 L 62.719999999999985 84.54999999999998 L 62.77999999999999 84.54999999999998 L 63.19999999999999 84.75999999999998 L 63.26999999999999 84.75999999999998 L 63.72999999999999 84.92999999999998 L 63.79999999999999 84.92999999999998 L 64.29999999999998 85.05999999999997 L 64.36999999999998 85.05999999999997 C 64.54866239507352 85.09269415367184 64.72890662163513 85.1160591460039 64.90999999999998 85.12999999999997 L 64.96999999999998 85.12999999999997 C 65.16653244875401 85.14027544441606 65.36346755124596 85.14027544441606 65.55999999999999 85.12999999999997 L 65.60999999999999 85.12999999999997 C 65.82421415619552 85.12088629177472 66.03782458807576 85.10086031378594 66.24999999999999 85.06999999999996 L 66.24999999999999 85.06999999999996 C 66.47999999999999 85.06999999999996 66.70999999999998 84.98999999999997 66.95999999999998 84.92999999999996 C 68.95999999999998 84.39999999999996 70.57999999999998 84.46999999999997 71.51999999999998 85.10999999999997 C 72.45045821554129 85.65666310344555 73.01560811964609 86.66094975736151 73 87.74 Q 73 88.05 73.06 88.35 C 73.10043441073543 88.88421841243152 73.07693472932854 89.42135398744625 72.99000000000001 89.94999999999999 C 72.77 91.19 72.08 92.66 68.68 92.94 Z M 75.57 88.41 C 75.57 88.41 75.57 88.35 75.57 88.33 C 75.57 88.03999999999999 75.57 87.74 75.49 87.42999999999999 C 75.37174714718344 85.8309744051993 74.55156813946672 84.36636903427659 73.25 83.42999999999999 C 73.07041483470168 83.3113923124364 72.8833590916678 83.20450331641703 72.69 83.11 L 72.59 83.06 C 72.3982743049332 82.96835350291758 72.2012585713351 82.88821150958954 72 82.82000000000001 L 71.88 82.82000000000001 C 71.66339869401446 82.75087406859974 71.44304329418846 82.69411585955365 71.22 82.65 L 71.22 82.65 C 70.98847791693049 82.60502825234103 70.75485328909123 82.57165330550686 70.52 82.55000000000001 L 70.39 82.55000000000001 L 69.78 82.55000000000001 L 69.41 82.55000000000001 L 68.83 82.55000000000001 L 68.53 82.55000000000001 L 67.91 82.64000000000001 L 67.63 82.64000000000001 C 67.33 82.70000000000002 67.02 82.77000000000001 66.69999999999999 82.85000000000001 C 66.5320983674003 82.89326270581651 66.36180671716572 82.92665322547035 66.18999999999998 82.95 L 65.85999999999999 82.95 L 65.72999999999999 82.95 L 65.38 82.95 L 65.3 82.95 L 64.97 82.88000000000001 L 64.97 82.88000000000001 L 64.65 82.77000000000001 L 64.65 82.77000000000001 L 64.36 82.63000000000001 L 64.36 82.63000000000001 L 64 82.47 L 64 82.47 L 63.77 82.28 L 63.77 82.28 L 63.57 82.08 L 63.57 82.08 L 63.4 81.87 L 63.4 81.87 L 63.26 81.67 L 63.26 81.67 L 63 81.39 L 63 81.39 L 62.92 81.23 L 62.92 81.23 L 62.84 81 L 62.84 80.94 L 62.84 80.85 L 62.84 80.78 L 62.84 80.78 L 62.84 80.72 L 62.84 80.72 L 63.260000000000005 80.52 L 63.82000000000001 80.25 L 64.25000000000001 80.03 L 64.72000000000001 79.79 L 64.72000000000001 79.79 L 64.93 80.05000000000001 L 64.93 80.05000000000001 L 65.16000000000001 80.31000000000002 L 65.16000000000001 80.31000000000002 L 65.42000000000002 80.56000000000002 L 65.42000000000002 80.56000000000002 L 65.69000000000001 80.79000000000002 L 65.69000000000001 80.79000000000002 L 65.99000000000001 81.01000000000002 L 66.04 81.01000000000002 L 66.36 81.21000000000002 L 66.36 81.21000000000002 L 66.7 81.39000000000003 L 66.77 81.39000000000003 L 67.13 81.55000000000003 L 67.13 81.55000000000003 L 67.47999999999999 81.67000000000003 L 67.53999999999999 81.67000000000003 L 68 82 L 68.08 82 L 68.49 82.05 C 68.49 82.05 68.49 82.05 68.49 82.05 C 68.49 82.05 68.78 82.05 68.92999999999999 82.05 L 69.02999999999999 82.05 C 69.17989474864444 82.05794674860117 69.33010525135553 82.05794674860117 69.47999999999999 82.05 L 69.55999999999999 82.05 L 69.99 81.99 L 70.08 81.99 L 70.57 81.86999999999999 L 70.67999999999999 81.86999999999999 L 71.21 81.68999999999998 C 73.21 80.91999999999999 74.75 80.77999999999999 75.75999999999999 81.29999999999998 C 76.54048333466375 81.76094388514882 77.07550677281837 82.54515632189603 77.21999999999998 83.43999999999998 C 77.21999999999998 83.62999999999998 77.30999999999999 83.81999999999998 77.34999999999998 84.00999999999998 C 77.44883190746027 84.50728061393627 77.49906835584521 85.01299419434459 77.49999999999999 85.51999999999997 L 77.49999999999999 85.51999999999998 C 77.49975005421997 86.79966515900713 76.71322813290104 87.9476693774979 75.52 88.41 Z M 79.86999999999999 83.56 L 79.86999999999999 83.56 C 79.86999999999999 83.31 79.77 83.05 79.69999999999999 82.78 C 79.39502419973088 81.16339243288807 78.37231262793469 79.77279900073353 76.92 79 C 76.71642326458849 78.89569519750314 76.50592881243671 78.8054832894381 76.29 78.73 L 76.08000000000001 78.67 L 75.62000000000002 78.55 L 75.35000000000002 78.55 L 74.90000000000002 78.49 L 74.60000000000002 78.49 L 74 78.49 C 73.76 78.49 73.51 78.49 73.25 78.55999999999999 L 73.13 78.55999999999999 Q 72.75 78.61999999999999 72.35 78.71 L 72.22999999999999 78.71 C 71.96 78.77999999999999 71.67999999999999 78.85 71.38999999999999 78.94 L 71.29999999999998 78.94 C 70.99999999999999 79.03999999999999 70.69999999999999 79.14 70.37999999999998 79.27 L 69.93999999999998 79.41 L 69.82999999999998 79.41 L 69.43999999999998 79.49 C 69.43999999999998 79.49 69.43999999999998 79.69999999999999 69.43999999999998 79.69999999999999 C 69.43999999999998 79.69999999999999 69.14 80 69 80 L 68.9 80 C 68.79 80 68.68 79.79 68.57000000000001 79.77 C 68.46000000000001 79.74999999999999 68.57000000000001 79.66 68.57000000000001 79.66 C 68.4747694877636 79.62835924729764 68.38130224671536 79.59163997402868 68.29 79.55 L 68.2 79.5 L 67.93 79.39 L 67.88000000000001 79.39 L 67.66000000000001 79.28 L 67.58000000000001 79.28 L 67.36000000000001 79.14 L 67.36000000000001 79.14 L 67.19000000000001 79 L 67.12000000000002 78.94 L 66.95000000000002 78.77 L 66.95000000000002 78.77 L 66.86000000000001 78.67 L 67.20000000000002 78.44 L 67.84000000000002 78.00999999999999 L 68.26000000000002 77.71 L 68.82000000000002 77.3 L 68.89000000000001 77.3 L 69.10000000000001 77.44 L 69.2 77.50999999999999 L 69.58 77.72999999999999 L 69.63 77.72999999999999 L 69.96 77.88999999999999 L 70.08999999999999 77.93999999999998 L 70.35 78.03999999999998 L 70.50999999999999 78.03999999999998 L 70.75999999999999 78.10999999999997 L 70.91999999999999 78.10999999999997 L 71.16999999999999 78.10999999999997 L 71.32999999999998 78.10999999999997 L 71.58999999999999 78.10999999999997 L 72.24 78.10999999999997 L 72.55999999999999 78.10999999999997 L 72.72999999999999 78.10999999999997 L 72.97999999999999 78.10999999999997 L 73.16999999999999 78.10999999999997 L 73.40999999999998 78.04999999999997 L 73.59999999999998 77.99999999999997 L 73.83999999999997 77.91999999999997 L 74.01999999999998 77.84999999999998 L 74.27999999999999 77.73999999999998 L 74.43999999999998 77.66999999999999 L 74.85999999999999 77.46 C 76.70999999999998 76.46 78.24999999999999 76.08999999999999 79.31999999999998 76.46 C 80.15916020050352 76.80818555861995 80.79532611024683 77.51789666024109 81.04999999999998 78.39 C 81.33865444287626 79.07552198002341 81.52400562649139 79.80007660688254 81.59999999999998 80.54 C 81.6789141343725 81.81567283785394 80.97427956693251 83.01117642980269 79.82 83.56 Z M 85 75.95 C 84.77148498358031 76.85469675648528 84.24263176194465 77.65502796522725 83.5 78.22 L 83.5 78.22 C 83.41 77.96 83.32 77.69 83.21 77.41 C 82.71162614462962 75.84586367192067 81.53119788881499 74.59188848427958 80 74 L 79.61 73.88 L 79.48 73.88 L 79.21000000000001 73.82 L 79.06 73.82 L 78.79 73.82 L 78.64 73.82 C 78.52 73.82 78.41 73.44 78.29 73.44 C 78.17000000000002 73.44 78.29 73.07 78.22000000000001 73.07 L 78.22000000000001 73.07 C 78.07000000000001 73.07 77.91000000000001 73.44 77.75000000000001 73.46 C 77.59000000000002 73.47999999999999 77.65000000000002 73.64999999999999 77.60000000000001 73.66 C 77.55 73.67 77.36000000000001 73.78 77.23 73.8 C 77.1 73.82 77.14 73.86 77.09 73.86999999999999 C 77.04 73.87999999999998 76.76 73.94999999999999 76.59 73.99 L 76.5 73.99 L 76.07 74.11 L 75.91 74.16 L 75.47 74.31 L 75.36 74.31 L 74.82 74.53 L 74.67999999999999 74.59 L 74.24 74.79 L 74.08 74.87 L 73.51 75.17 C 73.35778759953946 75.25249552557572 73.2008492898942 75.3259560109416 73.04 75.39 L 72.91000000000001 75.39 L 72.52000000000001 75.51 L 72.44000000000001 75.51 C 72.29506895612202 75.54113966854506 72.1479770427789 75.56119765672821 72.00000000000001 75.57000000000001 L 71.88000000000001 75.57000000000001 L 71.54 75.57000000000001 L 71.43 75.57000000000001 C 71.28750459510596 75.54818944051168 71.14703499126283 75.51474429673951 71.01 75.47000000000001 L 70.92 75.47000000000001 L 70.73 75.39000000000001 L 70.84 75.28000000000002 C 71.22 74.93000000000002 71.59 74.57000000000002 71.95 74.21000000000002 L 72 74.21000000000002 C 73.9433189464926 74.89818407925917 76.10940883986719 74.39471453647481 77.55 72.92000000000002 C 79.1 71.49000000000001 80.55 70.79000000000002 81.64999999999999 70.92000000000002 C 82.54571449998484 71.06281002038135 83.32872905109198 71.60320034438487 83.77999999999999 72.39000000000001 C 84.65023908587459 73.36351192824942 85.09020507059587 74.64734709678036 85 75.95 Z" stroke-linecap="round" />
</g>
		<g transform="matrix(1.15 0 0 1.15 -118.23 20.66)"  >
<linearGradient id="SVGID_36" gradientUnits="userSpaceOnUse" gradientTransform="matrix(1 0 0 1 41.11 59)"  x1="0" y1="0" x2="100" y2="100">
<stop offset="0%" style="stop-color:rgb(0,104,56);stop-opacity: 1"/>
<stop offset="100%" style="stop-color:rgb(150,207,36);stop-opacity: 1"/>
</linearGradient>
<path style="stroke: none; stroke-width: 1; stroke-dasharray: none; stroke-linecap: butt; stroke-dashoffset: 0; stroke-linejoin: miter; stroke-miterlimit: 4; fill: url(#SVGID_36); fill-rule: nonzero; opacity: 1;" vector-effect="non-scaling-stroke"  transform=" translate(-50.11, -68)" d="M 41.11 68 C 41.11 72.97056274847714 45.13943725152286 77 50.11 77 C 55.08056274847714 77 59.11 72.97056274847714 59.11 68 C 59.11 63.02943725152286 55.08056274847714 59 50.11 59 C 45.13943725152286 59 41.11 63.02943725152286 41.11 68 Z M 50.11 61.11 C 52.89537222251788 61.09380871292703 55.41567952152513 62.758679176609895 56.493766507966484 65.3270033433414 C 57.57185349440783 67.8953275100729 56.994974412986615 70.86028165266794 55.03257113684098 72.83702998200178 C 53.07016786069534 74.81377831133561 50.109493897594945 75.41223651914319 47.53338590094 74.35288380860639 C 44.95727790428505 73.29353109806958 43.27409563387859 70.78541627078151 43.27 68 C 43.291974498200595 64.21428548711553 46.364225606589564 61.15543082251314 50.14999999999999 61.15 Z" stroke-linecap="round" />
</g>
		<g transform="matrix(1.15 0 0 1.15 -135.93 -8.89)"  >
<linearGradient id="SVGID_37" gradientUnits="userSpaceOnUse" gradientTransform="matrix(1 0 0 1 25.41 32.96)"  x1="0" y1="0" x2="100" y2="100">
<stop offset="0%" style="stop-color:rgb(0,104,56);stop-opacity: 1"/>
<stop offset="100%" style="stop-color:rgb(150,207,36);stop-opacity: 1"/>
</linearGradient>
<path style="stroke: none; stroke-width: 1; stroke-dasharray: none; stroke-linecap: butt; stroke-dashoffset: 0; stroke-linejoin: miter; stroke-miterlimit: 4; fill: url(#SVGID_37); fill-rule: nonzero; opacity: 1;" vector-effect="non-scaling-stroke"  transform=" translate(-34.66, -42.21)" d="M 43.91 42.21 C 43.91 37.10136606406516 39.76863393593484 32.96 34.66 32.96 C 29.551366064065157 32.96 25.409999999999997 37.10136606406516 25.409999999999997 42.21 C 25.409999999999997 47.31863393593484 29.551366064065157 51.46 34.66 51.46 C 39.766349278365 51.45448855505854 43.904488555058535 47.316349278365 43.91 42.21 Z M 27.559999999999995 42.21 C 27.559999999999995 38.28877827620137 30.738778276201362 35.11 34.66 35.11 C 38.58122172379863 35.11 41.75999999999999 38.28877827620137 41.75999999999999 42.21 C 41.76 46.13122172379863 38.581221723798635 49.31 34.66 49.31 C 30.7410620329379 49.30449199751174 27.565508002488258 46.1289379670621 27.56 42.21 Z" stroke-linecap="round" />
</g>
		<g transform="matrix(1.15 0 0 1.15 -136.53 -9.49)"  >
<linearGradient id="SVGID_38" gradientUnits="userSpaceOnUse" gradientTransform="matrix(1 0 0 1 -3.01 -3.01)"  x1="0" y1="0" x2="100" y2="100">
<stop offset="0%" style="stop-color:rgb(0,104,56);stop-opacity: 1"/>
<stop offset="100%" style="stop-color:rgb(150,207,36);stop-opacity: 1"/>
</linearGradient>
<circle style="stroke: none; stroke-width: 1; stroke-dasharray: none; stroke-linecap: butt; stroke-dashoffset: 0; stroke-linejoin: miter; stroke-miterlimit: 4; fill: url(#SVGID_38); fill-rule: nonzero; opacity: 1;" vector-effect="non-scaling-stroke"  cx="0" cy="0" r="3.01" />
</g>
		<g transform="matrix(1.15 0 0 1.15 -100.43 -8.89)"  >
<linearGradient id="SVGID_39" gradientUnits="userSpaceOnUse" gradientTransform="matrix(1 0 0 1 56.39 32.96)"  x1="0" y1="0" x2="100" y2="100">
<stop offset="0%" style="stop-color:rgb(0,104,56);stop-opacity: 1"/>
<stop offset="100%" style="stop-color:rgb(150,207,36);stop-opacity: 1"/>
</linearGradient>
<path style="stroke: none; stroke-width: 1; stroke-dasharray: none; stroke-linecap: butt; stroke-dashoffset: 0; stroke-linejoin: miter; stroke-miterlimit: 4; fill: url(#SVGID_39); fill-rule: nonzero; opacity: 1;" vector-effect="non-scaling-stroke"  transform=" translate(-65.64, -42.21)" d="M 65.64 51.46 C 70.74863393593483 51.46 74.89 47.31863393593484 74.89 42.21 C 74.89 37.10136606406516 70.74863393593483 32.96 65.64 32.96 C 60.53136606406516 32.96 56.39 37.10136606406516 56.39 42.21 C 56.39551144494146 47.316349278365 60.533650721635 51.45448855505854 65.64 51.46 Z M 65.64 35.11 C 69.56122172379864 35.11 72.74 38.28877827620136 72.74 42.209999999999994 C 72.74 46.13122172379863 69.56122172379864 49.309999999999995 65.64 49.31 C 61.71877827620137 49.31 58.54 46.13122172379863 58.54 42.21 C 58.545508002488255 38.2910620329379 61.7210620329379 35.11550800248826 65.64 35.11 Z" stroke-linecap="round" />
</g>
		<g transform="matrix(1.15 0 0 1.15 -101.04 -9.49)"  >
<linearGradient id="SVGID_40" gradientUnits="userSpaceOnUse" gradientTransform="matrix(1 0 0 1 -3.01 -3.01)"  x1="0" y1="0" x2="100" y2="100">
<stop offset="0%" style="stop-color:rgb(0,104,56);stop-opacity: 1"/>
<stop offset="100%" style="stop-color:rgb(150,207,36);stop-opacity: 1"/>
</linearGradient>
<circle style="stroke: none; stroke-width: 1; stroke-dasharray: none; stroke-linecap: butt; stroke-dashoffset: 0; stroke-linejoin: miter; stroke-miterlimit: 4; fill: url(#SVGID_40); fill-rule: nonzero; opacity: 1;" vector-effect="non-scaling-stroke"  cx="0" cy="0" r="3.01" />
</g>
		<g transform="matrix(1.15 0 0 1.15 -118.62 20.09)"  >
<linearGradient id="SVGID_41" gradientUnits="userSpaceOnUse" gradientTransform="matrix(1 0 0 1 -3.01 -3.01)"  x1="0" y1="0" x2="100" y2="100">
<stop offset="0%" style="stop-color:rgb(0,104,56);stop-opacity: 1"/>
<stop offset="100%" style="stop-color:rgb(150,207,36);stop-opacity: 1"/>
</linearGradient>
<circle style="stroke: none; stroke-width: 1; stroke-dasharray: none; stroke-linecap: butt; stroke-dashoffset: 0; stroke-linejoin: miter; stroke-miterlimit: 4; fill: url(#SVGID_41); fill-rule: nonzero; opacity: 1;" vector-effect="non-scaling-stroke"  cx="0" cy="0" r="3.01" />
</g>
		<g transform="matrix(1.15 0 0 1.15 -97.99 44.07)"  >
<linearGradient id="SVGID_42" gradientUnits="userSpaceOnUse" gradientTransform="matrix(1 0 0 1 -1.43 -1.43)"  x1="0" y1="0" x2="100" y2="100">
<stop offset="0%" style="stop-color:rgb(0,104,56);stop-opacity: 1"/>
<stop offset="100%" style="stop-color:rgb(150,207,36);stop-opacity: 1"/>
</linearGradient>
<circle style="stroke: none; stroke-width: 1; stroke-dasharray: none; stroke-linecap: butt; stroke-dashoffset: 0; stroke-linejoin: miter; stroke-miterlimit: 4; fill: url(#SVGID_42); fill-rule: nonzero; opacity: 1;" vector-effect="non-scaling-stroke"  cx="0" cy="0" r="1.43" />
</g>
		<g transform="matrix(1.15 0 0 1.15 -102.59 45.72)"  >
<linearGradient id="SVGID_43" gradientUnits="userSpaceOnUse" gradientTransform="matrix(1 0 0 1 -1.43 -1.43)"  x1="0" y1="0" x2="100" y2="100">
<stop offset="0%" style="stop-color:rgb(0,104,56);stop-opacity: 1"/>
<stop offset="100%" style="stop-color:rgb(150,207,36);stop-opacity: 1"/>
</linearGradient>
<circle style="stroke: none; stroke-width: 1; stroke-dasharray: none; stroke-linecap: butt; stroke-dashoffset: 0; stroke-linejoin: miter; stroke-miterlimit: 4; fill: url(#SVGID_43); fill-rule: nonzero; opacity: 1;" vector-effect="non-scaling-stroke"  cx="0" cy="0" r="1.43" />
</g>
		<g transform="matrix(1.15 0 0 1.15 -108.01 45.39)"  >
<linearGradient id="SVGID_44" gradientUnits="userSpaceOnUse" gradientTransform="matrix(1 0 0 1 -1.43 -1.43)"  x1="0" y1="0" x2="100" y2="100">
<stop offset="0%" style="stop-color:rgb(0,104,56);stop-opacity: 1"/>
<stop offset="100%" style="stop-color:rgb(150,207,36);stop-opacity: 1"/>
</linearGradient>
<circle style="stroke: none; stroke-width: 1; stroke-dasharray: none; stroke-linecap: butt; stroke-dashoffset: 0; stroke-linejoin: miter; stroke-miterlimit: 4; fill: url(#SVGID_44); fill-rule: nonzero; opacity: 1;" vector-effect="non-scaling-stroke"  cx="0" cy="0" r="1.43" />
</g>
		<g transform="matrix(1.15 0 0 1.15 -111.3 41.11)"  >
<linearGradient id="SVGID_45" gradientUnits="userSpaceOnUse" gradientTransform="matrix(1 0 0 1 -1.43 -1.43)"  x1="0" y1="0" x2="100" y2="100">
<stop offset="0%" style="stop-color:rgb(0,104,56);stop-opacity: 1"/>
<stop offset="100%" style="stop-color:rgb(150,207,36);stop-opacity: 1"/>
</linearGradient>
<circle style="stroke: none; stroke-width: 1; stroke-dasharray: none; stroke-linecap: butt; stroke-dashoffset: 0; stroke-linejoin: miter; stroke-miterlimit: 4; fill: url(#SVGID_45); fill-rule: nonzero; opacity: 1;" vector-effect="non-scaling-stroke"  cx="0" cy="0" r="1.43" />
</g>
		<g transform="matrix(1.15 0 0 1.15 -140.39 44.07)"  >
<linearGradient id="SVGID_46" gradientUnits="userSpaceOnUse" gradientTransform="matrix(1 0 0 1 -1.43 -1.43)"  x1="0" y1="0" x2="100" y2="100">
<stop offset="0%" style="stop-color:rgb(0,104,56);stop-opacity: 1"/>
<stop offset="100%" style="stop-color:rgb(150,207,36);stop-opacity: 1"/>
</linearGradient>
<circle style="stroke: none; stroke-width: 1; stroke-dasharray: none; stroke-linecap: butt; stroke-dashoffset: 0; stroke-linejoin: miter; stroke-miterlimit: 4; fill: url(#SVGID_46); fill-rule: nonzero; opacity: 1;" vector-effect="non-scaling-stroke"  cx="0" cy="0" r="1.43" />
</g>
		<g transform="matrix(1.15 0 0 1.15 -135.78 45.72)"  >
<linearGradient id="SVGID_47" gradientUnits="userSpaceOnUse" gradientTransform="matrix(1 0 0 1 -1.43 -1.43)"  x1="0" y1="0" x2="100" y2="100">
<stop offset="0%" style="stop-color:rgb(0,104,56);stop-opacity: 1"/>
<stop offset="100%" style="stop-color:rgb(150,207,36);stop-opacity: 1"/>
</linearGradient>
<circle style="stroke: none; stroke-width: 1; stroke-dasharray: none; stroke-linecap: butt; stroke-dashoffset: 0; stroke-linejoin: miter; stroke-miterlimit: 4; fill: url(#SVGID_47); fill-rule: nonzero; opacity: 1;" vector-effect="non-scaling-stroke"  cx="0" cy="0" r="1.43" />
</g>
		<g transform="matrix(1.15 0 0 1.15 -130.37 45.39)"  >
<linearGradient id="SVGID_48" gradientUnits="userSpaceOnUse" gradientTransform="matrix(1 0 0 1 -1.43 -1.43)"  x1="0" y1="0" x2="100" y2="100">
<stop offset="0%" style="stop-color:rgb(0,104,56);stop-opacity: 1"/>
<stop offset="100%" style="stop-color:rgb(150,207,36);stop-opacity: 1"/>
</linearGradient>
<circle style="stroke: none; stroke-width: 1; stroke-dasharray: none; stroke-linecap: butt; stroke-dashoffset: 0; stroke-linejoin: miter; stroke-miterlimit: 4; fill: url(#SVGID_48); fill-rule: nonzero; opacity: 1;" vector-effect="non-scaling-stroke"  cx="0" cy="0" r="1.43" />
</g>
		<g transform="matrix(1.15 0 0 1.15 -127.08 41.11)"  >
<linearGradient id="SVGID_49" gradientUnits="userSpaceOnUse" gradientTransform="matrix(1 0 0 1 -1.43 -1.43)"  x1="0" y1="0" x2="100" y2="100">
<stop offset="0%" style="stop-color:rgb(0,104,56);stop-opacity: 1"/>
<stop offset="100%" style="stop-color:rgb(150,207,36);stop-opacity: 1"/>
</linearGradient>
<circle style="stroke: none; stroke-width: 1; stroke-dasharray: none; stroke-linecap: butt; stroke-dashoffset: 0; stroke-linejoin: miter; stroke-miterlimit: 4; fill: url(#SVGID_49); fill-rule: nonzero; opacity: 1;" vector-effect="non-scaling-stroke"  cx="0" cy="0" r="1.43" />
</g>
</g>
</g>
</svg>