<svg xmlns="http://www.w3.org/2000/svg" xmlns:xlink="http://www.w3.org/1999/xlink" viewBox="0 0 82.58 100"><defs><style>.cls-1{fill:url(#Безымянный_градиент_15);}.cls-2{fill:url(#Безымянный_градиент_15-2);}.cls-3{fill:url(#Безымянный_градиент_15-3);}.cls-4{fill:url(#Безымянный_градиент_15-4);}.cls-5{fill:url(#Безымянный_градиент_15-5);}.cls-6{fill:url(#Безымянный_градиент_15-6);}.cls-7{fill:url(#Безымянный_градиент_15-7);}.cls-8{fill:url(#Безымянный_градиент_15-8);}.cls-9{fill:url(#Безымянный_градиент_15-9);}.cls-10{fill:url(#Безымянный_градиент_15-10);}.cls-11{fill:url(#Безымянный_градиент_15-11);}.cls-12{fill:url(#Безымянный_градиент_15-12);}.cls-13{fill:url(#Безымянный_градиент_15-13);}.cls-14{fill:url(#Безымянный_градиент_15-14);}.cls-15{fill:url(#Безымянный_градиент_15-15);}</style><linearGradient id="Безымянный_градиент_15" x1="-29.91" y1="652.11" x2="64.69" y2="557.52" gradientTransform="matrix(1.15, 0, 0, -1.15, 30.77, 750.59)" gradientUnits="userSpaceOnUse"><stop offset="0" stop-color="#006838"/><stop offset="1" stop-color="#96cf24"/></linearGradient><linearGradient id="Безымянный_градиент_15-2" x1="-28.44" y1="658.14" x2="66.16" y2="563.54" gradientTransform="matrix(1.15, 0, 0, -1.15, 64.2, 813.75)" xlink:href="#Безымянный_градиент_15"/><linearGradient id="Безымянный_градиент_15-3" x1="-27.59" y1="656.73" x2="67.01" y2="562.14" gradientTransform="matrix(1.15, 0, 0, -1.15, 46.21, 783.92)" xlink:href="#Безымянный_градиент_15"/><linearGradient id="Безымянный_градиент_15-4" x1="-27.9" y1="657.04" x2="66.7" y2="562.45" gradientTransform="matrix(1.15, 0, 0, -1.15, 52.79, 790.5)" xlink:href="#Безымянный_градиент_15"/><linearGradient id="Безымянный_градиент_15-5" x1="-29.26" y1="656.74" x2="65.34" y2="562.14" gradientTransform="matrix(1.15, 0, 0, -1.15, 81.7, 783.92)" xlink:href="#Безымянный_градиент_15"/><linearGradient id="Безымянный_градиент_15-6" x1="-29.57" y1="657.04" x2="65.02" y2="562.45" gradientTransform="matrix(1.15, 0, 0, -1.15, 88.28, 790.5)" xlink:href="#Безымянный_градиент_15"/><linearGradient id="Безымянный_градиент_15-7" x1="-28.74" y1="658.44" x2="65.85" y2="563.84" gradientTransform="matrix(1.15, 0, 0, -1.15, 70.69, 820.08)" xlink:href="#Безымянный_градиент_15"/><linearGradient id="Безымянный_градиент_15-8" x1="-29.8" y1="659.66" x2="64.79" y2="565.06" gradientTransform="matrix(1.15, 0, 0, -1.15, 93.15, 845.88)" xlink:href="#Безымянный_градиент_15"/><linearGradient id="Безымянный_градиент_15-9" x1="-29.58" y1="659.73" x2="65.01" y2="565.14" gradientTransform="matrix(1.15, 0, 0, -1.15, 88.54, 847.53)" xlink:href="#Безымянный_градиент_15"/><linearGradient id="Безымянный_градиент_15-10" x1="-29.33" y1="659.72" x2="65.27" y2="565.12" gradientTransform="matrix(1.15, 0, 0, -1.15, 83.12, 847.19)" xlink:href="#Безымянный_градиент_15"/><linearGradient id="Безымянный_градиент_15-11" x1="-29.17" y1="659.52" x2="65.42" y2="564.92" gradientTransform="matrix(1.15, 0, 0, -1.15, 79.83, 842.92)" xlink:href="#Безымянный_градиент_15"/><linearGradient id="Безымянный_градиент_15-12" x1="-27.8" y1="659.66" x2="66.79" y2="565.06" gradientTransform="matrix(1.15, 0, 0, -1.15, 50.75, 845.88)" xlink:href="#Безымянный_градиент_15"/><linearGradient id="Безымянный_градиент_15-13" x1="-28.02" y1="659.73" x2="66.58" y2="565.14" gradientTransform="matrix(1.15, 0, 0, -1.15, 55.35, 847.53)" xlink:href="#Безымянный_градиент_15"/><linearGradient id="Безымянный_градиент_15-14" x1="-28.27" y1="659.72" x2="66.32" y2="565.12" gradientTransform="matrix(1.15, 0, 0, -1.15, 60.77, 847.19)" xlink:href="#Безымянный_градиент_15"/><linearGradient id="Безымянный_градиент_15-15" x1="-28.43" y1="659.52" x2="66.17" y2="564.92" gradientTransform="matrix(1.15, 0, 0, -1.15, 64.06, 842.92)" xlink:href="#Безымянный_градиент_15"/></defs><title>Ресурс 2</title><g id="Слой_2" data-name="Слой 2"><g id="Слой_1-2" data-name="Слой 1"><path class="cls-1" d="M75.88,70c-2-.22-4.24.76-6.5,2.87a3.42,3.42,0,0,1-2.12,1c9.68-12.05,11.67-31.54,5.27-49.7a13.93,13.93,0,0,0,2.57.27A7.64,7.64,0,0,0,79.79,23c2.17-1.6,3.14-4.48,2.68-7.86a4.81,4.81,0,0,0-2.32-3.69c-2.74-1.58-6.85-.32-8.23.18h0l-.46-1c-.11-.22-2.66-5.58-6.28-8.21a3.53,3.53,0,0,0-3.12-.66,7.17,7.17,0,0,0-3.54,2.71A26.68,26.68,0,0,0,45.36.14C45.08.14,43.92,0,42,0s-4,.12-4.34.14A27.68,27.68,0,0,0,18.86,9.25a4.34,4.34,0,0,0-2.27-.44c-1.66.13-3.16,1.22-4.45,3.25a5.18,5.18,0,0,0-.69,4.5,6.3,6.3,0,0,0,1.24,2.12v.06c-9.1,20-7.8,41.83,3.11,55a3.17,3.17,0,0,1-3.26-.87C10.26,70.73,8.06,69.82,6,70a5.88,5.88,0,0,0-4.2,2.7C.32,74.89-.25,76.8.1,78.66a8,8,0,0,0,3.75,4.93c.07,1.93,1,4.24,4.34,5.79.29,2,1.49,4.16,5.09,5.27.65,1.95,2.4,4.11,6.89,4.54.81.06,1.66.19,2.57.33a31.86,31.86,0,0,0,4.77.48c3.77,0,7.7-1.28,10.21-7A36.52,36.52,0,0,0,40,86.31h2A36.38,36.38,0,0,0,44.16,93c2.51,5.8,6.45,7,10.22,7a31.86,31.86,0,0,0,4.77-.48c.91-.14,1.77-.27,2.56-.33,4.47-.43,6.25-2.59,6.88-4.59,3.58-1.08,4.79-3.3,5.09-5.26C77.06,87.79,78,85.49,78,83.55a8,8,0,0,0,3.79-4.94c.34-1.87-.22-3.81-1.74-5.94A5.88,5.88,0,0,0,75.88,70ZM37.67,2.79h.08s2.17-.15,4.2-.13,3.25.13,3.25.13h.13a23.79,23.79,0,0,1,11.73,4,9.24,9.24,0,0,0-.53,1.09l-.23.53.28.51a9.38,9.38,0,0,0,5,4.66c-3.82,2.15-12.44,3.94-18.85,3.94H41.61c-8.31,0-20.27-2.6-20.81-6.12v-.17A25.44,25.44,0,0,1,37.67,2.79ZM14.79,20.47a16.62,16.62,0,0,0,2.86,1.58c1.08.86,6.75,5.11,20.13,5.11,1.22,0,2.49.08,3.83.08h1.08c16.12,1.08,22.76-4,24-5,.29.15.55.17.73.26.68.32,1.32.53,2,.77,7.21,18.62,5.13,38.94-5.42,50.46V74c-1,1-2.07,2-3.15,3.12h0a1.8,1.8,0,0,0-.92.49v-.11c-.26.19-.52.32-.78.51l-.19.1c-.65.45-1.31.94-2,1.34-1.22.71-2.56.93-3.94,2h0c-1.21,0-2.45.83-3.74,1.2a36.27,36.27,0,0,1-4.12.85c-.29,0-.6.07-.91.1h-.12c-.36,0-.73.06-1.08.08A28.91,28.91,0,0,1,39,83.59l-.66-.06-.48-.07-1-.21a39.17,39.17,0,0,1-7.82-2.58c-.75-.35-1.5-.74-2.24-1.14q-.78-.44-1.53-.9h0c-.6-.38-1.2-.79-1.79-1.22l-.07,0-.33-.25c-.48-.37-1-.75-1.44-1.15l-.59-.52L21,75.3l-.36-.38-.36-.32c-.48-.46-.93-.93-1.37-1.41C7.78,61.09,6.17,40,14.79,20.47ZM4,74.22a3.26,3.26,0,0,1,2.31-1.6h.31c1.18,0,2.61.75,4.18,2.17a5.79,5.79,0,0,0,6.91,1l.06.07L18.81,77l.12.12-.08.06-.12.09-.19.13-.11.07-.22.1h-.08l-.3.11H15.74l-.14,0h-.08l-.14-.07h-.06l-.19-.09a13.16,13.16,0,0,0-3.25-1.33,6.51,6.51,0,0,0-3.81.07,5.89,5.89,0,0,0-3.46,3.61,8.44,8.44,0,0,0-.31.88h0a4.48,4.48,0,0,1-1.63-2.47,5.24,5.24,0,0,1,1.31-4ZM6.57,83a8.25,8.25,0,0,1,.6-2.33A3.24,3.24,0,0,1,9,78.54a4.21,4.21,0,0,1,.48-.12h1.14l.38.07h.18l.45.12h.12l.58.2.19.08.46.2.2.1.62.33h0l.61.3.19.08.41.15.21.06.38.11h.21l.4.07h1.37l.34-.06h.19l.32-.08h.18L19,80h.13l.45-.22h.06l.37-.22.14-.1.26-.18.15-.12.24-.19.14-.12H21l.48.37.46.34.44.32.57.4h0l-.11,0-.07.11-.05.09-.09.12-.06.08-.18.21-.07.07-.13.13-.1.09-.14.12-.11.09-.16.1-.12.08-.19.11-.11.05-.34.13h-.07l-.3.07h-1l-.32-.07h-.15a3.81,3.81,0,0,1-.51-.17c-2.91-1.15-5.3-1.25-7.12-.31a5.82,5.82,0,0,0-2.95,4c-.08.29-.13.57-.18.84h0A3.4,3.4,0,0,1,6.57,83Zm4.28,5.42a8.46,8.46,0,0,1,.3-2.24,3.27,3.27,0,0,1,1.58-2.32,2,2,0,0,1,.4-.16h.13l.32-.08h1.64l.48.09.29.06.55.15.26.08c.29.09.57.2.86.3a6,6,0,0,0,.67.23h.08l.6.14h.09l.48.05h.69a5.73,5.73,0,0,0,1.09-.16h0l.48-.15h0l.45-.18h0l.42-.23h0a6.44,6.44,0,0,0,.8-.57h0l.34-.32h0l.3-.31h0l.27-.33h0a6.32,6.32,0,0,0,.47-.68h0l.44.25.37.2.69.36.29.15h0v.42h0v.15a4.07,4.07,0,0,1-.45.94h0l-.15.23h0v.23l-.08.08-.14.15-.12.11-.14.12-.17.12-.13.09-.22.12-.12.06-.27.1h-.11l-.31.06H23.18a5.67,5.67,0,0,1-.57-.1c-3-.78-5.42-.59-7.11.57a5.85,5.85,0,0,0-2.42,4.34c0,.33-.07.65-.09,1v.09a3.39,3.39,0,0,1-2.19-3.17Zm24.49,3.55c-2.82,6.39-7.35,5.7-12.14,5-1-.14-1.87-.28-2.76-.36-3.68-.31-4.43-1.89-4.67-3.25a2.46,2.46,0,0,0-.06-.53,1.37,1.37,0,0,1,0-.57,9.07,9.07,0,0,1,.09-1.28h0a3.24,3.24,0,0,1,1.27-2.5,2.38,2.38,0,0,1,.45-.23l.16-.07L18,88h.23l.23-.06h1.93l.49.07h.24l.77.18a6,6,0,0,0,7.45-4.13h0v-.13h0v-.16h0l.2.07a5.26,5.26,0,0,0,1.67.62h0A6.8,6.8,0,0,1,33,85l.35.11c.56.16,1.08.32,1.71.47l.34.08c.55.13,1.08.26,1.67.37h.14a34.06,34.06,0,0,1-1.89,5.9Zm26.2,4.6c-.89.08-1.79.22-2.75.36-4.8.74-9.33,1.42-12.14-5a34.15,34.15,0,0,1-2-5.74h.09l.76-.11h0c.54-.08,1.09-.18,1.61-.29l.32-.06c.52-.11,1-.23,1.54-.36l.29-.08c.51-.13,1-.28,1.53-.43h0c.52-.16,1-.34,1.53-.51h.16a1.07,1.07,0,0,0,.14.36h0l.18.38h0l.2.38h0l.24.36h0l.27.37h0l.32.35h0l.34.32h0l.38.31h.06l.41.27h.06l.46.23h.07l.5.18h.08l.54.14h.08a5.77,5.77,0,0,0,.58.08h.07c.21,0,.42,0,.64,0h.05a5.38,5.38,0,0,0,.69-.07h0a3.17,3.17,0,0,0,.77-.15c2.17-.57,3.93-.5,4.95.2a3.25,3.25,0,0,1,1.6,2.85,3.68,3.68,0,0,0,.06.66,7.15,7.15,0,0,1-.07,1.73c-.24,1.35-1,2.94-4.67,3.24ZM69,91.62v-.08a4.14,4.14,0,0,0-.08-1,5.87,5.87,0,0,0-2.43-4.33,4.59,4.59,0,0,0-.61-.35l-.11-.06-.63-.26H65q-.36-.11-.72-.18h0c-.25,0-.5-.08-.76-.11H61.33l-.67.1h-.3c-.33.06-.66.14-1,.23l-.55.11h-1l-.35-.08h0l-.35-.12h0l-.31-.15h0l-.39-.17h0L56.18,85h0L56,84.76h0l-.18-.23h0l-.16-.21h0L55.34,84h0l-.09-.17h0l-.08-.25v-.24h0v-.06h0l.45-.22.61-.29.47-.24.51-.26h0l.22.28h0l.25.28h0l.28.28h0l.3.24h0l.32.24h.06l.34.22h0l.37.19h.08l.39.18h0l.38.13h.06l.5.36h.09l.44,0h1.16l.47-.07H63l.54-.13h.11l.58-.19c2.17-.83,3.84-1,4.93-.42a3.27,3.27,0,0,1,1.58,2.32,3.36,3.36,0,0,0,.14.61,8.23,8.23,0,0,1,.17,1.64h0a3.36,3.36,0,0,1-2.15,3.13Zm4.66-5.25h0a3.41,3.41,0,0,0-.18-.85,5.89,5.89,0,0,0-3-4.1,5.28,5.28,0,0,0-.69-.29l-.22-.06-.5-.13h-.29l-.49-.07h-1a2.86,2.86,0,0,0-.81.08h-.13c-.27,0-.56.1-.85.16h-.13c-.29.08-.59.15-.91.25h-.09c-.33.11-.65.22-1,.36l-.48.15h-.12l-.42.09v.22s-.32.33-.48.33h-.1c-.12,0-.24-.23-.36-.25s0-.12,0-.12a1.66,1.66,0,0,1-.31-.12L61,82l-.3-.12h0l-.24-.12h-.08l-.24-.15h0l-.19-.16-.07-.06-.19-.18h0l-.1-.11.37-.25.7-.47L61,80l.61-.45h.07l.23.15.11.08.41.24h.06l.35.17.15.06.28.1h.17l.27.08h2.61l.26-.07.21,0,.26-.09.19-.07.29-.12.17-.08.45-.22c2-1.09,3.68-1.49,4.84-1.09a3.24,3.24,0,0,1,1.87,2.09,7.93,7.93,0,0,1,.6,2.33,3.41,3.41,0,0,1-1.93,3.28Zm5.56-8.25a4.43,4.43,0,0,1-1.62,2.46h0c-.1-.28-.2-.58-.32-.88A5.88,5.88,0,0,0,73.77,76l-.43-.13H73.2l-.29-.07h-.62c-.13,0-.25-.41-.38-.41s0-.4-.07-.4h0c-.17,0-.34.4-.51.42s-.11.21-.17.22a2.67,2.67,0,0,1-.4.15c-.14,0-.09.06-.15.07l-.54.13H70l-.46.13-.18.06-.47.16h-.12l-.59.24-.15.07-.48.21-.17.09-.62.32a4,4,0,0,1-.51.24h-.14l-.42.13h-.09a2.42,2.42,0,0,1-.47.07h-.62A3.43,3.43,0,0,1,64,77.6h-.1l-.2-.09.12-.12c.41-.38.81-.77,1.2-1.16h.06a5.73,5.73,0,0,0,6-1.39c1.68-1.55,3.25-2.31,4.44-2.17a3.25,3.25,0,0,1,2.31,1.59A5.22,5.22,0,0,1,79.18,78.12Z"/><path class="cls-2" d="M31.62,69.5a9.76,9.76,0,1,0,9.75-9.75A9.76,9.76,0,0,0,31.62,69.5ZM41.37,62A7.46,7.46,0,1,1,34,69.54v0a7.46,7.46,0,0,1,7.46-7.42Z"/><path class="cls-3" d="M34.65,41.55a10,10,0,1,0-10,10A10,10,0,0,0,34.65,41.55Zm-17.72,0a7.7,7.7,0,1,1,7.7,7.7h0A7.72,7.72,0,0,1,16.93,41.55Z"/><circle class="cls-4" cx="24.09" cy="41.01" r="3.26"/><path class="cls-5" d="M58.2,51.58a10,10,0,1,0-10-10A10,10,0,0,0,58.2,51.58Zm0-17.72a7.7,7.7,0,1,1-7.69,7.69h0A7.7,7.7,0,0,1,58.2,33.86Z"/><circle class="cls-6" cx="57.66" cy="41.01" r="3.26"/><circle class="cls-7" cx="41.03" cy="68.99" r="3.26"/><circle class="cls-8" cx="60.55" cy="91.69" r="1.55"/><circle class="cls-9" cx="56.2" cy="93.25" r="1.55"/><circle class="cls-10" cx="51.07" cy="92.93" r="1.55"/><circle class="cls-11" cx="47.96" cy="88.89" r="1.55"/><circle class="cls-12" cx="20.44" cy="91.69" r="1.55"/><circle class="cls-13" cx="24.8" cy="93.25" r="1.55"/><circle class="cls-14" cx="29.93" cy="92.93" r="1.55"/><circle class="cls-15" cx="33.04" cy="88.89" r="1.55"/></g></g></svg>