<svg xmlns="http://www.w3.org/2000/svg" xmlns:xlink="http://www.w3.org/1999/xlink" viewBox="0 0 306.5 100"><defs><style>.cls-1{fill:#588f27;}.cls-2{fill:url(#Безымянный_градиент_15);}.cls-3{fill:url(#Безымянный_градиент_15-2);}.cls-4{fill:url(#Безымянный_градиент_15-3);}.cls-5{fill:url(#Безымянный_градиент_15-4);}.cls-6{fill:url(#Безымянный_градиент_15-5);}.cls-7{fill:url(#Безымянный_градиент_15-6);}.cls-8{fill:url(#Безымянный_градиент_15-7);}.cls-9{fill:url(#Безымянный_градиент_15-8);}.cls-10{fill:url(#Безымянный_градиент_15-9);}.cls-11{fill:url(#Безымянный_градиент_15-10);}.cls-12{fill:url(#Безымянный_градиент_15-11);}.cls-13{fill:url(#Безымянный_градиент_15-12);}.cls-14{fill:url(#Безымянный_градиент_15-13);}.cls-15{fill:url(#Безымянный_градиент_15-14);}.cls-16{fill:url(#Безымянный_градиент_15-15);}</style><linearGradient id="Безымянный_градиент_15" x1="-29.91" y1="652.11" x2="64.69" y2="557.52" gradientTransform="matrix(1.15, 0, 0, -1.15, 30.77, 750.59)" gradientUnits="userSpaceOnUse"><stop offset="0" stop-color="#006838"/><stop offset="1" stop-color="#96cf24"/></linearGradient><linearGradient id="Безымянный_градиент_15-2" x1="-28.44" y1="658.14" x2="66.16" y2="563.54" gradientTransform="matrix(1.15, 0, 0, -1.15, 64.2, 813.75)" xlink:href="#Безымянный_градиент_15"/><linearGradient id="Безымянный_градиент_15-3" x1="-27.59" y1="656.73" x2="67.01" y2="562.14" gradientTransform="matrix(1.15, 0, 0, -1.15, 46.21, 783.92)" xlink:href="#Безымянный_градиент_15"/><linearGradient id="Безымянный_градиент_15-4" x1="-27.9" y1="657.04" x2="66.7" y2="562.45" gradientTransform="matrix(1.15, 0, 0, -1.15, 52.79, 790.5)" xlink:href="#Безымянный_градиент_15"/><linearGradient id="Безымянный_градиент_15-5" x1="-29.26" y1="656.74" x2="65.34" y2="562.14" gradientTransform="matrix(1.15, 0, 0, -1.15, 81.7, 783.92)" xlink:href="#Безымянный_градиент_15"/><linearGradient id="Безымянный_градиент_15-6" x1="-29.57" y1="657.04" x2="65.02" y2="562.45" gradientTransform="matrix(1.15, 0, 0, -1.15, 88.28, 790.5)" xlink:href="#Безымянный_градиент_15"/><linearGradient id="Безымянный_градиент_15-7" x1="-28.74" y1="658.44" x2="65.85" y2="563.84" gradientTransform="matrix(1.15, 0, 0, -1.15, 70.69, 820.08)" xlink:href="#Безымянный_градиент_15"/><linearGradient id="Безымянный_градиент_15-8" x1="-29.8" y1="659.66" x2="64.79" y2="565.06" gradientTransform="matrix(1.15, 0, 0, -1.15, 93.15, 845.88)" xlink:href="#Безымянный_градиент_15"/><linearGradient id="Безымянный_градиент_15-9" x1="-29.58" y1="659.73" x2="65.01" y2="565.14" gradientTransform="matrix(1.15, 0, 0, -1.15, 88.54, 847.53)" xlink:href="#Безымянный_градиент_15"/><linearGradient id="Безымянный_градиент_15-10" x1="-29.33" y1="659.72" x2="65.27" y2="565.12" gradientTransform="matrix(1.15, 0, 0, -1.15, 83.12, 847.19)" xlink:href="#Безымянный_градиент_15"/><linearGradient id="Безымянный_градиент_15-11" x1="-29.17" y1="659.52" x2="65.42" y2="564.92" gradientTransform="matrix(1.15, 0, 0, -1.15, 79.83, 842.92)" xlink:href="#Безымянный_градиент_15"/><linearGradient id="Безымянный_градиент_15-12" x1="-27.8" y1="659.66" x2="66.79" y2="565.06" gradientTransform="matrix(1.15, 0, 0, -1.15, 50.75, 845.88)" xlink:href="#Безымянный_градиент_15"/><linearGradient id="Безымянный_градиент_15-13" x1="-28.02" y1="659.73" x2="66.58" y2="565.14" gradientTransform="matrix(1.15, 0, 0, -1.15, 55.35, 847.53)" xlink:href="#Безымянный_градиент_15"/><linearGradient id="Безымянный_градиент_15-14" x1="-28.27" y1="659.72" x2="66.32" y2="565.12" gradientTransform="matrix(1.15, 0, 0, -1.15, 60.77, 847.19)" xlink:href="#Безымянный_градиент_15"/><linearGradient id="Безымянный_градиент_15-15" x1="-28.43" y1="659.52" x2="66.17" y2="564.92" gradientTransform="matrix(1.15, 0, 0, -1.15, 64.06, 842.92)" xlink:href="#Безымянный_градиент_15"/></defs><title>Ресурс 1</title><g id="Слой_2" data-name="Слой 2"><g id="Слой_1-2" data-name="Слой 1"><path d="M113.9,19.39h0a9.42,9.42,0,0,1,.77-4.06A4.92,4.92,0,0,1,117,13a11.68,11.68,0,0,1,3.29-1,27.82,27.82,0,0,1,4.22-.27h0a29.48,29.48,0,0,1,5.16.39h0A11.43,11.43,0,0,1,130,15c0,1.56.08,4.68.13,9.36s.15,9.56.31,14.62h0a1.37,1.37,0,0,1-1.35,1.16h0a2,2,0,0,1-1.33-.56,2.37,2.37,0,0,1-.79-1.37h0q.15-5.36.23-10.78h0c-.2,0-.56,0-1.08,0l-1.15,0h0q-.46,4-4.49,8.87t-7.92,5.76h0l-.61-1.73a11.67,11.67,0,0,0,3.33-1.79,13.41,13.41,0,0,0,2.48-2.45,18.41,18.41,0,0,0,1.79-3,24.44,24.44,0,0,0,1.24-2.93c.27-.83.54-1.75.82-2.77h0a7.43,7.43,0,0,1-5.69-2.14A8.36,8.36,0,0,1,113.9,19.39Zm13.45,5.55h0l.19-10a15.46,15.46,0,0,0-4.43-.74h0a6.6,6.6,0,0,0-4.68,1.53,5,5,0,0,0-1.64,3.87h0q.34,5.85,6.47,5.85h0A18.5,18.5,0,0,0,127.35,24.94Z"/><path d="M141.11,11.38h13.52a146.53,146.53,0,0,1,.86,15.08q.18,9.66.37,12.77h0q-.35,1.2-1.35,1.2h0a2,2,0,0,1-1.32-.58,2.43,2.43,0,0,1-.79-1.39h0q0-3.12-.2-12.69c-.13-6.38-.19-10.27-.19-11.65h0c-.57,0-1.48,0-2.75.11s-2.3.12-3.07.12h0c-1.23,0-2.18,0-2.85-.08h0q0,.12.29,11.29T144,39.23h0q-.34,1.2-1.35,1.2h0a2,2,0,0,1-1.33-.58,2.48,2.48,0,0,1-.79-1.39h0c.07-2.21.15-6.5.21-12.86S140.93,14.49,141.11,11.38Z"/><path d="M166,26.64h0v-2c0-.45,0-1.13.06-2.06s.09-1.66.15-2.19.16-1.24.29-2.1a10.36,10.36,0,0,1,.5-2.09l.71-1.78a4.8,4.8,0,0,1,1-1.62,12.83,12.83,0,0,1,1.34-1.18,5,5,0,0,1,1.74-.83,8.37,8.37,0,0,1,2.19-.27h0a8.69,8.69,0,0,1,4.16,1A7.84,7.84,0,0,1,181,13.85a11.68,11.68,0,0,1,1.6,3.5,22.7,22.7,0,0,1,.77,4c.11,1.26.17,2.65.17,4.16h0c0,1,0,1.95-.06,2.78s-.11,1.75-.23,2.79a17,17,0,0,1-.5,2.75,14.25,14.25,0,0,1-.91,2.41,7,7,0,0,1-1.36,2,6,6,0,0,1-2,1.29,6.68,6.68,0,0,1-2.66.51h0a12.73,12.73,0,0,1-4.1-.59,7.47,7.47,0,0,1-2.81-1.61,7.12,7.12,0,0,1-1.73-2.74,16,16,0,0,1-.89-3.7A40.09,40.09,0,0,1,166,26.64Zm14.72.31h0a28.44,28.44,0,0,0-.29-3.93,32.08,32.08,0,0,0-1-4.4,8.79,8.79,0,0,0-2.14-3.83,4.72,4.72,0,0,0-3.5-1.48h0c-1,0-1.93.69-2.72,2.06A15,15,0,0,0,169.47,20a25.59,25.59,0,0,0-.5,4.84h0c0,1.05,0,1.85,0,2.4s0,1.34.13,2.36a16.53,16.53,0,0,0,.33,2.4,14.52,14.52,0,0,0,.67,2,5.33,5.33,0,0,0,1.1,1.79,5.81,5.81,0,0,0,1.66,1.12,5.62,5.62,0,0,0,2.29.52h0a4.76,4.76,0,0,0,4.2-3.16A17.53,17.53,0,0,0,180.76,27Z"/><path d="M205.5,11.84h0l2.23-.46a148.91,148.91,0,0,1,.87,15.08c.11,6.44.24,10.69.36,12.77h0c-.23.8-.68,1.2-1.34,1.2h0a2,2,0,0,1-1.33-.58,2.43,2.43,0,0,1-.79-1.39h0c0-.92,0-2.46,0-4.62h0V26.25c-.57,0-1.36.08-2.37.18s-1.94.16-2.78.21-1.62.07-2.37.07h0c-.66,0-1.15,0-1.46,0h0c.05,1.56.14,3.78.27,6.64s.22,4.84.27,5.91h0q-.34,1.2-1.35,1.2h0a2,2,0,0,1-1.33-.58,2.48,2.48,0,0,1-.79-1.39h0q.12-3.32.21-12.86t.37-14.22h0l1.73.39c0,.07,0,.2,0,.36a3.34,3.34,0,0,1,0,.41h0q.51,9.48.58,11.86h0l2.79-.25,3.28-.31c1.19-.11,2.12-.2,2.79-.25h0s0-.12,0-.38,0-1.3,0-3.12S205.5,15.52,205.5,11.84Z"/><path d="M218.72,19.39h0a9.28,9.28,0,0,1,.77-4.06A4.92,4.92,0,0,1,221.84,13a11.68,11.68,0,0,1,3.29-1,27.82,27.82,0,0,1,4.22-.27h0a29.53,29.53,0,0,1,5.17.39h0A12.32,12.32,0,0,1,234.8,15q.06,2.34.14,9.36t.3,14.62h0a1.37,1.37,0,0,1-1.34,1.16h0a2,2,0,0,1-1.33-.56,2.32,2.32,0,0,1-.79-1.37h0q.15-5.36.23-10.78h0c-.21,0-.57,0-1.08,0l-1.15,0h0q-.47,4-4.49,8.87t-7.92,5.76h0l-.62-1.73a11.41,11.41,0,0,0,3.33-1.79,13.18,13.18,0,0,0,2.49-2.45,18.41,18.41,0,0,0,1.79-3,21.33,21.33,0,0,0,1.23-2.93c.28-.83.55-1.75.83-2.77h0a7.46,7.46,0,0,1-5.7-2.14A8.41,8.41,0,0,1,218.72,19.39Zm13.44,5.55h0l.2-10a15.46,15.46,0,0,0-4.43-.74h0a6.64,6.64,0,0,0-4.69,1.53,5,5,0,0,0-1.63,3.87h0q.34,5.85,6.47,5.85h0A18.42,18.42,0,0,0,232.16,24.94Z"/><path d="M244.15,13.69h0L243.77,12l14.72-.85a2.32,2.32,0,0,1,1.61.7,2,2,0,0,1,.66,1.42h0a1.23,1.23,0,0,1-.39.89,1.88,1.88,0,0,1-1.16.46h0l-6.47-.35q1,13.61,1.43,24.73h0c-.23.77-.67,1.16-1.31,1.16h0a2.1,2.1,0,0,1-1.35-.56,2.3,2.3,0,0,1-.81-1.37h0q.08-2.07.08-6.32h0c0-1.05,0-2.63,0-4.73s0-3.69,0-4.74h0q0-4.59.15-8.28h0C248,13.91,245.75,13.77,244.15,13.69Z"/><path d="M273.59,11.61h0l2.93.2A107.42,107.42,0,0,0,281,25.31a123.36,123.36,0,0,1,4.43,13h0A3,3,0,0,1,285,40a1.13,1.13,0,0,1-1,.56h0a1.38,1.38,0,0,1-.94-.4,2.09,2.09,0,0,1-.6-1.14h0a58.22,58.22,0,0,0-2.23-6.78h0q-7.93-1-10-1.23h0a45.82,45.82,0,0,0-1.23,4.51c-.49,2.08-.88,3.51-1.16,4.31h0a1.68,1.68,0,0,1-1.31.69h0a1.7,1.7,0,0,1-1.38-.71,2.68,2.68,0,0,1-.58-1.75h0q1.23-4.52,4.47-13.25T273.59,11.61Zm1.35,3.89h0a76.21,76.21,0,0,1-4.27,13.68H275c1.95,0,3.58.06,4.89.19h0A60.26,60.26,0,0,1,274.94,15.5Z"/><path d="M121.83,58.9h0l-.73.84a4.7,4.7,0,0,0-2.81-1.06h0a2.79,2.79,0,0,0-1.58.44,3,3,0,0,0-1,1.06,5.87,5.87,0,0,0-.53,1.57A14.3,14.3,0,0,0,115,63.4c0,.46,0,1,0,1.63h0a7.3,7.3,0,0,0,.34,2.07,6.08,6.08,0,0,0,1.15,2.17,2.33,2.33,0,0,0,1.86,1h0a9.15,9.15,0,0,0,3.53-1.21h0a8.12,8.12,0,0,1,.62,1.15h0a7.51,7.51,0,0,1-4.11,1.59h0a3.51,3.51,0,0,1-2.15-.71,5.14,5.14,0,0,1-1.52-1.81,10.44,10.44,0,0,1-.86-2.3,9.28,9.28,0,0,1-.3-2.28h0a14.6,14.6,0,0,1,.18-2.31,11.38,11.38,0,0,1,.62-2.26,4.26,4.26,0,0,1,1.33-1.83,3.32,3.32,0,0,1,2.11-.69h0a7.17,7.17,0,0,1,2.19.36A7.44,7.44,0,0,1,121.83,58.9Z"/><path d="M128.64,62.74l-3.55-.16-.16-.81q2.44-.15,7.71-.4h0a1.06,1.06,0,0,1,.75.33.9.9,0,0,1,.32.66h0c0,.36-.25.57-.74.62h0l-3.42-.17c.06.92.1,2.25.1,4s0,3,.07,3.83h0a.64.64,0,0,1-.64.53h0a.89.89,0,0,1-.61-.26,1.09,1.09,0,0,1-.36-.62h0q.25-4.49.53-7.55Z"/><path d="M137.46,63.07h0l-.37-.93a3.47,3.47,0,0,1,1.2-.76,4,4,0,0,1,1.45-.28h0q3.09,0,3.09,5.34h0c0,.48,0,1.2-.08,2.15s-.08,1.67-.08,2.14h0q-.15.57-.57.57h0a.77.77,0,0,1-.6-.33,1.08,1.08,0,0,1-.28-.73h0a.62.62,0,0,1,0-.18h0a3.45,3.45,0,0,1-2.41,1.1h0a2.38,2.38,0,0,1-1.7-.71,2.3,2.3,0,0,1-.72-1.71h0a4.29,4.29,0,0,1,1.33-3.07,4.06,4.06,0,0,1,3-1.37h.15l.17,0,.15,0h0c-.1-1.43-.66-2.14-1.7-2.14h0A3.59,3.59,0,0,0,137.46,63.07Zm3.82,5.73h0c0-.86,0-1.51,0-1.94h0c0-.37,0-.88,0-1.54h-.15a3.51,3.51,0,0,0-2.37,1,3,3,0,0,0-1.07,2.3h0a1.25,1.25,0,0,0,.36.94,1.21,1.21,0,0,0,.87.34h0A5,5,0,0,0,141.28,68.8Z"/><path d="M152.12,61.7h0l.83.18.42,8.87a.65.65,0,0,1-.64.55h0a1,1,0,0,1-.64-.26,1.13,1.13,0,0,1-.39-.66h0s.06-1.06.17-3.08h0v-.15c-.34,0-.85,0-1.52,0h0a21.43,21.43,0,0,1-2.29-.09h0q.09,1.07.24,3.42h0c-.11.38-.32.57-.64.57h0a.93.93,0,0,1-.63-.27,1.05,1.05,0,0,1-.37-.65h0c0-.61.05-1.22.05-1.82h0c0-.4,0-1,0-1.76s0-1.36,0-1.74h0c0-1.17,0-2.15.1-2.95h0l.83.21c.24,2.64.37,4,.38,4.07h0l3.22.17h0q.75,0,.75-.09h0c0-.24,0-1,.07-2.32S152.11,61.83,152.12,61.7Z"/><path d="M157.25,61.7h0l.82.18c0,.39.06.85.12,1.37s.12,1.12.19,1.79h0a5,5,0,0,1,1.39-.21h0a3.57,3.57,0,0,1,1.46.3,3.67,3.67,0,0,1,1.16.79,3.88,3.88,0,0,1,.74,1.13,3.09,3.09,0,0,1,.28,1.29h0a2.41,2.41,0,0,1-.28,1.17,2.76,2.76,0,0,1-.73.9,3.3,3.3,0,0,1-1.06.59,3.86,3.86,0,0,1-1.28.21h0l-.57,0c-.29,0-.59,0-.92-.08a4.81,4.81,0,0,1-.86-.18c-.26-.07-.4-.17-.41-.3h0c0-.21,0-.5,0-.86s0-.76,0-1.2,0-.89,0-1.37,0-1,0-1.4,0-.87,0-1.25,0-.68,0-.9h0Q157.19,62.63,157.25,61.7Zm1.29,4.48h0l-.16,3.67a4,4,0,0,0,1.39.26h0a2.58,2.58,0,0,0,.94-.17,2.17,2.17,0,0,0,.72-.46,2,2,0,0,0,.46-.65,1.84,1.84,0,0,0,.17-.77h0a1.72,1.72,0,0,0-.17-.75,1.77,1.77,0,0,0-.49-.64,2.59,2.59,0,0,0-.81-.43,3.52,3.52,0,0,0-1.08-.15h0l-.43,0Z"/><path class="cls-1" d="M179.91,61.7h0l.82.18.42,8.87a.64.64,0,0,1-.64.55h0a1,1,0,0,1-.64-.26,1.17,1.17,0,0,1-.38-.66h0s0-1.06.16-3.08h0v-.15c-.34,0-.85,0-1.52,0h0a21.22,21.22,0,0,1-2.28-.09h0q.09,1.07.24,3.42h0c-.12.38-.33.57-.64.57h0a1,1,0,0,1-.64-.27,1.1,1.1,0,0,1-.37-.65h0c0-.61.06-1.22.06-1.82h0c0-.4,0-1,0-1.76s0-1.36,0-1.74h0c0-1.17,0-2.15.11-2.95h0l.82.21c.24,2.64.37,4,.38,4.07h0l3.22.17h0q.75,0,.75-.09h0c0-.24,0-1,.08-2.32S179.89,61.83,179.91,61.7Z"/><path class="cls-1" d="M186.59,69.45h0c0,.21,0,.49,0,.83h0c-.11.37-.32.56-.64.56h0a.92.92,0,0,1-.63-.26,1.14,1.14,0,0,1-.38-.65h0c0-1,.09-2.44.14-4.34s.1-3.18.12-3.86h0l.84-.14a20.66,20.66,0,0,1,.28,3.11c0,1.29.08,2.26.14,2.89h0c.23-.34.89-1.24,2-2.67a31.48,31.48,0,0,0,2.21-3.22h0a3.61,3.61,0,0,1,.51-.07h0a.48.48,0,0,1,.49.31,3.58,3.58,0,0,1,.17,1.17h0l.35,7.53a.64.64,0,0,1-.64.55h0a.93.93,0,0,1-.63-.27,1.12,1.12,0,0,1-.38-.64h0c0-.4,0-1.39.1-3s.11-2.68.14-3.33h0A37.4,37.4,0,0,0,186.59,69.45Z"/><path class="cls-1" d="M201.51,61.7h0l.82.18.42,8.87a.64.64,0,0,1-.64.55h0a1,1,0,0,1-.64-.26,1.17,1.17,0,0,1-.38-.66h0s0-1.06.16-3.08h0v-.15c-.34,0-.84,0-1.52,0h0a21.22,21.22,0,0,1-2.28-.09h0q.09,1.07.24,3.42h0c-.11.38-.33.57-.64.57h0a1,1,0,0,1-.64-.27,1.15,1.15,0,0,1-.37-.65h0c0-.61.06-1.22.06-1.82h0c0-.4,0-1,0-1.76s0-1.36,0-1.74h0c0-1.17,0-2.15.11-2.95h0L197,62c.25,2.64.37,4,.38,4.07h0l3.23.17h0q.75,0,.75-.09h0c0-.24,0-1,.07-2.32S201.5,61.83,201.51,61.7Z"/><path class="cls-1" d="M207.22,70.86l-.42,2.51-.83-.19c0-.13,0-.53-.07-1.18s-.07-1.14-.07-1.43h0a7.61,7.61,0,0,1,0-.79h1.19c.06-.2.16-.52.3-.93s.24-.71.29-.88.11-.42.2-.76a5.25,5.25,0,0,0,.19-.86c0-.23.06-.53.09-.88s.05-.73.05-1.12h0c0-.91,0-1.94-.11-3.09h0c.68,0,1.4.06,2.16.07s1.39,0,1.88.06a11.25,11.25,0,0,1,1.5.16h0c0,.83.08,2.19.12,4.09s.08,3.26.12,4.09h1.42v.55c0,.31,0,.77,0,1.35s0,1,0,1.17h0a6,6,0,0,1,0,.84h0l-.82-.18a5.09,5.09,0,0,1-.14-.65c0-.26-.09-.54-.14-.85s-.08-.53-.11-.66h0l-3.32-.22c-1.51-.11-2.7-.18-3.55-.22Zm2.39-8.45h0q0,.27,0,1.14c0,.59,0,1-.05,1.33s-.06.73-.11,1.27a9.19,9.19,0,0,1-.21,1.35,9.35,9.35,0,0,1-.38,1.18,4.85,4.85,0,0,1-.57,1.09h4l.37-7.21c-.17,0-.62,0-1.35-.06S210,62.45,209.61,62.41Z"/><path class="cls-1" d="M219.87,66.45h0l-.07-1h.35c1.23,0,1.85-.54,1.85-1.61h0a1.45,1.45,0,0,0-1.56-1.41h0a6,6,0,0,0-1.5.29h0l-.33-.53a3.15,3.15,0,0,1,2.2-.71h0a2.71,2.71,0,0,1,1.68.51,1.77,1.77,0,0,1,.68,1.5h0a3,3,0,0,1-.24,1.18,2,2,0,0,1-.63.87h0a1.61,1.61,0,0,1,1.1.94,4,4,0,0,1,.39,1.79h0A3.31,3.31,0,0,1,223,70.5a2.7,2.7,0,0,1-2.13,1h0a4.1,4.1,0,0,1-1.53-.37c-.6-.24-.9-.55-.9-.91h0c0-.26.17-.39.49-.39h0a1.86,1.86,0,0,1,.87.31,1.84,1.84,0,0,0,.87.29h0a1.76,1.76,0,0,0,1.36-.67,2.23,2.23,0,0,0,.58-1.5h0a1.55,1.55,0,0,0-.61-1.33,2.65,2.65,0,0,0-1.57-.44h-.53Z"/><path class="cls-1" d="M233.9,61.48h0l.28,9.82c-.12.37-.33.55-.62.55h0a1,1,0,0,1-.62-.25,1.14,1.14,0,0,1-.37-.63h0l.18-4a3,3,0,0,1-1.59.51h0a8,8,0,0,1-1.75,3.35,7.53,7.53,0,0,1-3.35,1.71h0l-.3-.79a4.91,4.91,0,0,0,3.9-4.52h0a3.41,3.41,0,0,1-1.45-1.12,2.7,2.7,0,0,1-.58-1.71h0a2.88,2.88,0,0,1,1-2.59,6,6,0,0,1,3.13-.64h0A8.51,8.51,0,0,1,233.9,61.48Zm-1,4h0l-.09-2.89a6.46,6.46,0,0,0-1.89-.21h0a2.71,2.71,0,0,0-1.5.4A1.39,1.39,0,0,0,228.8,64h0a2.17,2.17,0,0,0,.79,1.69,2.51,2.51,0,0,0,1.72.71h0A1.67,1.67,0,0,0,232.9,65.47Z"/><path d="M245.59,70.38l.4-8.79a26,26,0,0,1,3.46-.6h0c1.64,0,2.45.7,2.45,2.1h0a4,4,0,0,1-.25,1.42,1.64,1.64,0,0,1-.61.9h0a3.07,3.07,0,0,1,1.43,2.67h0a3.13,3.13,0,0,1-1.05,2.51,4.17,4.17,0,0,1-2.77.89h0a3.92,3.92,0,0,1-3.06-1.1Zm1.45-4.2h0l.16,3.71a2.33,2.33,0,0,0,1,.22h0a3.43,3.43,0,0,0,2.09-.71,2.07,2.07,0,0,0,.95-1.66h0a1.75,1.75,0,0,0-.51-1.22,1.67,1.67,0,0,0-1.3-.56h0C249.17,66,248.36,66,247,66.18Zm-.19-3.77h0l.13,2.82c.18,0,.46,0,.84-.06a6.54,6.54,0,0,0,.92-.08,2.85,2.85,0,0,0,.77-.27,1.47,1.47,0,0,0,.66-.74,4.35,4.35,0,0,0,.34-1.4h0q-.18-.54-1.11-.54h0a11.17,11.17,0,0,0-1.32.12Q247.18,62.4,246.85,62.41Z"/><path d="M271,62h0l1.24-.12a51.66,51.66,0,0,1,1.86,9.21h0a3.18,3.18,0,0,1-.62.07h0a2.79,2.79,0,0,1-.64-.09h0c-.17-.67-.37-1.86-.61-3.55s-.45-2.9-.63-3.6h0a38,38,0,0,0-2.42,5.37h0l-.44.08a4.21,4.21,0,0,1-.49,0h0a3,3,0,0,1-.47,0h0c-.2-.51-.49-1.31-.87-2.41s-.7-1.93-.93-2.49h0a45,45,0,0,0-2.19,6.65h0l-.72-.2a30.59,30.59,0,0,1,1-4.86c.61-2.31,1-3.78,1.1-4.41h0a3.22,3.22,0,0,1,.5,0,3.14,3.14,0,0,0,.43.05h0a21.09,21.09,0,0,1,1.3,3.16c.55,1.55.92,2.52,1.1,2.91h0A34.87,34.87,0,0,1,271,62Z"/><path d="M278.85,69.45h0c0,.21,0,.49,0,.83h0c-.11.37-.32.56-.64.56h0a.92.92,0,0,1-.63-.26,1.08,1.08,0,0,1-.37-.65h0c0-1,.08-2.44.13-4.34s.1-3.18.12-3.86h0l.84-.14a20.66,20.66,0,0,1,.28,3.11c0,1.29.08,2.26.15,2.89h0c.23-.34.88-1.24,2-2.67a31.48,31.48,0,0,0,2.21-3.22h0a3.61,3.61,0,0,1,.51-.07h0a.48.48,0,0,1,.49.31,3.58,3.58,0,0,1,.17,1.17h0l.35,7.53a.64.64,0,0,1-.64.55h0a.93.93,0,0,1-.63-.27,1.12,1.12,0,0,1-.38-.64h0c0-.4.05-1.39.1-3s.11-2.68.14-3.33h0A37.4,37.4,0,0,0,278.85,69.45Z"/><path d="M288.3,75.38l.22-14,1,.19c0,.25,0,.44,0,.56h0a3.73,3.73,0,0,1,2-.64h0a3,3,0,0,1,2.6,1.43,5.79,5.79,0,0,1,.94,3.23h0a10.88,10.88,0,0,1-.14,1.75,8.11,8.11,0,0,1-.49,1.7A3.09,3.09,0,0,1,293.43,71a2.87,2.87,0,0,1-1.74.52h0a3.73,3.73,0,0,1-1.87-.51h0c.05,2.14.09,3.72.13,4.76h0a.66.66,0,0,1-.64.56h0a1,1,0,0,1-.64-.26,1.22,1.22,0,0,1-.37-.65Zm1.41-12.09h0l.06,5.91a1.61,1.61,0,0,0,.67.7,2,2,0,0,0,1,.27h0a1.8,1.8,0,0,0,1.22-.46,2.51,2.51,0,0,0,.71-1.22,9,9,0,0,0,.29-1.42,10.2,10.2,0,0,0,.08-1.39h0c0-2.07-.7-3.1-2.1-3.1h0a3.86,3.86,0,0,0-1.25.19C290,62.9,289.78,63.07,289.71,63.29Z"/><path d="M306.32,69.2h0l.18.8a20.41,20.41,0,0,1-2.39.65,11.66,11.66,0,0,1-2.35.36h0a2,2,0,0,1-1.37-.52,3.3,3.3,0,0,1-.88-1.34,11,11,0,0,1-.43-1.61A9.29,9.29,0,0,1,299,66h0q0-4.58,4.13-4.57h0a2.62,2.62,0,0,1,1.74.63,2,2,0,0,1,.75,1.63h0a1.62,1.62,0,0,1-.3,1,2.35,2.35,0,0,1-.74.67,5.8,5.8,0,0,1-1.09.45,11.73,11.73,0,0,1-1.18.29l-1.23.2-1,.17h0c0,.35,0,.66.07.93a5.19,5.19,0,0,0,.18.87,2.07,2.07,0,0,0,.37.76,1.61,1.61,0,0,0,.63.51,2.15,2.15,0,0,0,.95.2h0a13.28,13.28,0,0,0,1.61-.12c.63-.08,1.2-.16,1.69-.24Zm-6.2-3.92h0a24.41,24.41,0,0,0,4.08-1.5h0a2.11,2.11,0,0,0-.35-.87.79.79,0,0,0-.66-.28h0a3.06,3.06,0,0,0-2,.77A2.84,2.84,0,0,0,300.12,65.28Z"/><path d="M114.11,80h0l-.36-.93a3.43,3.43,0,0,1,1.21-.76A4,4,0,0,1,116.4,78h0q3.09,0,3.09,5.34h0c0,.49,0,1.21-.08,2.15s-.08,1.67-.08,2.15h0q-.15.57-.57.57h0a.79.79,0,0,1-.6-.34,1.13,1.13,0,0,1-.28-.73h0a.74.74,0,0,1,0-.18h0a3.44,3.44,0,0,1-2.41,1.1h0a2.38,2.38,0,0,1-1.7-.71,2.3,2.3,0,0,1-.72-1.71h0a4.33,4.33,0,0,1,1.33-3.07,4,4,0,0,1,3-1.37h.14l.18,0a.47.47,0,0,0,.15,0h0c-.09-1.42-.66-2.14-1.7-2.14h0A3.64,3.64,0,0,0,114.11,80Zm3.83,5.73h0c0-.86,0-1.5,0-1.94h0c0-.37,0-.88,0-1.54h-.15a3.6,3.6,0,0,0-2.37,1,3,3,0,0,0-1.07,2.3h0a1.24,1.24,0,0,0,.36.94,1.22,1.22,0,0,0,.87.35h0A4.88,4.88,0,0,0,117.94,85.73Z"/><path d="M128.78,78.63h0l.83.18.42,8.88a.65.65,0,0,1-.64.55h0a1,1,0,0,1-.64-.27,1.07,1.07,0,0,1-.38-.65h0s0-1.07.16-3.09h0v-.15c-.34,0-.85,0-1.52,0h0a21.43,21.43,0,0,1-2.29-.09h0q.09,1.06.24,3.42h0c-.11.38-.32.57-.64.57h0a1,1,0,0,1-.63-.26,1.17,1.17,0,0,1-.38-.66h0c0-.6.06-1.21.06-1.82h0c0-.39,0-1,0-1.76s0-1.36,0-1.74h0c0-1.17,0-2.15.11-2.94h0l.83.2c.24,2.65.37,4,.38,4.08h0l3.22.16h0q.75,0,.75-.09h0c0-.24,0-1,.07-2.32S128.77,78.76,128.78,78.63Z"/><path d="M135.46,86.39h0c0,.2,0,.48,0,.82h0c-.11.38-.33.57-.64.57h0a.93.93,0,0,1-.63-.27,1.09,1.09,0,0,1-.38-.65h0c0-1,.08-2.43.14-4.33s.09-3.19.12-3.86h0l.84-.15a20.86,20.86,0,0,1,.27,3.11c0,1.29.09,2.25.15,2.89h0c.23-.34.89-1.23,2-2.67a30.36,30.36,0,0,0,2.22-3.22h0a3.43,3.43,0,0,1,.51-.07h0a.48.48,0,0,1,.48.31,3.56,3.56,0,0,1,.18,1.17h0l.34,7.53c-.11.37-.32.55-.63.55h0a1,1,0,0,1-.64-.26,1.16,1.16,0,0,1-.37-.65h0c0-.4,0-1.39.1-3s.1-2.68.14-3.33h0A37.59,37.59,0,0,0,135.46,86.39Z"/><path d="M152.09,78.88h0l1.24-.1A52,52,0,0,1,155.2,88h0a2.27,2.27,0,0,1-.63.08h0a2.64,2.64,0,0,1-.63-.09h0c-.17-.67-.38-1.85-.62-3.55s-.45-2.9-.63-3.61h0a38.86,38.86,0,0,0-2.42,5.38h0l-.44.08a4,4,0,0,1-.49,0h0a3,3,0,0,1-.47,0h0c-.2-.5-.49-1.31-.87-2.41s-.69-1.94-.92-2.5h0a44.91,44.91,0,0,0-2.2,6.66h0l-.71-.2a30.16,30.16,0,0,1,1-4.85c.61-2.31,1-3.79,1.1-4.42h0a2.29,2.29,0,0,1,.5,0l.43,0h0a21.82,21.82,0,0,1,1.3,3.15c.55,1.56.92,2.53,1.1,2.92h0A35.44,35.44,0,0,1,152.09,78.88Z"/><path d="M165.66,86.13h0l.18.8a18.82,18.82,0,0,1-2.38.65,11.86,11.86,0,0,1-2.35.36h0a2,2,0,0,1-1.38-.52,3.24,3.24,0,0,1-.88-1.34,11,11,0,0,1-.43-1.61,9.21,9.21,0,0,1-.13-1.56h0c0-3,1.37-4.57,4.13-4.57h0a2.62,2.62,0,0,1,1.74.63,2,2,0,0,1,.75,1.64h0a1.66,1.66,0,0,1-.3,1,2.29,2.29,0,0,1-.73.66,5,5,0,0,1-1.1.45,11.73,11.73,0,0,1-1.18.29l-1.23.2-1,.17h0c0,.35,0,.66.07.93a5.19,5.19,0,0,0,.18.87,2.21,2.21,0,0,0,.37.77,1.69,1.69,0,0,0,.63.5,2,2,0,0,0,1,.2h0a13.14,13.14,0,0,0,1.61-.12c.64-.07,1.2-.16,1.69-.24Zm-6.2-3.92h0a23.76,23.76,0,0,0,4.08-1.5h0a2.23,2.23,0,0,0-.35-.88.81.81,0,0,0-.66-.27h0a3.08,3.08,0,0,0-2,.77A2.92,2.92,0,0,0,159.46,82.21Z"/><path d="M178.1,86.39h0c0,.2,0,.48,0,.82h0c-.11.38-.32.57-.64.57h0a.93.93,0,0,1-.63-.27,1.13,1.13,0,0,1-.37-.65h0c0-1,.08-2.43.13-4.33s.1-3.19.12-3.86h0l.84-.15a20.66,20.66,0,0,1,.28,3.11c0,1.29.09,2.25.15,2.89h0c.23-.34.89-1.23,2-2.67a30.36,30.36,0,0,0,2.22-3.22h0a3.27,3.27,0,0,1,.51-.07h0a.48.48,0,0,1,.48.31,3.64,3.64,0,0,1,.17,1.17h0l.35,7.53a.64.64,0,0,1-.64.55h0a1,1,0,0,1-.63-.26,1.16,1.16,0,0,1-.37-.65h0c0-.4,0-1.39.1-3s.1-2.68.13-3.33h0A38.09,38.09,0,0,0,178.1,86.39Z"/><path d="M202.3,78.88h0l1.24-.1A52,52,0,0,1,205.41,88h0a2.25,2.25,0,0,1-.62.08h0a2.8,2.8,0,0,1-.65-.09h0c-.17-.67-.37-1.85-.61-3.55s-.45-2.9-.63-3.61h0a38,38,0,0,0-2.41,5.38h0l-.45.08a4.21,4.21,0,0,1-.49,0h0a3,3,0,0,1-.47,0h0c-.2-.5-.49-1.31-.87-2.41s-.69-1.94-.93-2.5h0A45.79,45.79,0,0,0,195.09,88h0l-.71-.2a30.16,30.16,0,0,1,1-4.85c.61-2.31,1-3.79,1.1-4.42h0a2.35,2.35,0,0,1,.5,0l.43,0h0a21.82,21.82,0,0,1,1.3,3.15c.55,1.56.92,2.53,1.1,2.92h0A36.34,36.34,0,0,1,202.3,78.88Z"/><path d="M209.16,80h0l-.37-.93a3.43,3.43,0,0,1,1.21-.76,3.88,3.88,0,0,1,1.44-.28h0q3.09,0,3.09,5.34h0c0,.49,0,1.21-.08,2.15s-.08,1.67-.08,2.15h0q-.15.57-.57.57h0a.79.79,0,0,1-.6-.34,1.12,1.12,0,0,1-.27-.73h0a.87.87,0,0,1,0-.18h0a3.44,3.44,0,0,1-2.41,1.1h0a2.38,2.38,0,0,1-1.7-.71,2.3,2.3,0,0,1-.72-1.71h0a4.29,4.29,0,0,1,1.33-3.07,4.06,4.06,0,0,1,3-1.37h.14l.18,0a.53.53,0,0,0,.16,0h0c-.1-1.42-.67-2.14-1.71-2.14h0A3.61,3.61,0,0,0,209.16,80ZM213,85.73h0c0-.86,0-1.5,0-1.94h0c0-.37,0-.88,0-1.54h-.15a3.6,3.6,0,0,0-2.37,1,3,3,0,0,0-1.07,2.3h0a1.24,1.24,0,0,0,.36.94,1.22,1.22,0,0,0,.87.35h0A4.92,4.92,0,0,0,213,85.73Z"/><path d="M223.82,78.63h0l.83.18.42,8.88a.65.65,0,0,1-.64.55h0a1,1,0,0,1-.64-.27,1.14,1.14,0,0,1-.39-.65h0s.06-1.07.17-3.09h0v-.15c-.34,0-.85,0-1.52,0h0a21.22,21.22,0,0,1-2.28-.09h0c0,.71.13,1.85.23,3.42h0c-.11.38-.32.57-.64.57h0a1,1,0,0,1-.63-.26,1.15,1.15,0,0,1-.37-.66h0c0-.6,0-1.21,0-1.82h0c0-.39,0-1,0-1.76s0-1.36,0-1.74h0c0-1.17,0-2.15.11-2.94h0l.83.2c.24,2.65.37,4,.38,4.08h0l3.22.16h0q.75,0,.75-.09h0c0-.24,0-1,.07-2.32S223.81,78.76,223.82,78.63Z"/><path d="M229.26,78.52h0l2.38-.25c1.06-.11,1.81-.19,2.24-.22h0a1.11,1.11,0,0,1,.78.33,1,1,0,0,1,.32.69h0c0,.36-.24.57-.73.62h0l-2.05-.18-2.08-.19h0c0,.75.08,2,.22,3.63s.2,2.94.2,3.82h0c0,.76-.3,1.13-.9,1.13h0q-.75,0-.75-1h0c0-.81,0-1.67.06-2.59s.09-2,.16-3.16S229.23,79.07,229.26,78.52Z"/><path d="M238.71,80h0l-.36-.93a3.38,3.38,0,0,1,1.2-.76A4,4,0,0,1,241,78h0q3.09,0,3.09,5.34h0c0,.49,0,1.21-.08,2.15s-.08,1.67-.08,2.15h0q-.15.57-.57.57h0a.79.79,0,0,1-.6-.34,1.08,1.08,0,0,1-.28-.73h0a.74.74,0,0,1,0-.18h0a3.46,3.46,0,0,1-2.42,1.1h0a2.33,2.33,0,0,1-1.68-.71,2.28,2.28,0,0,1-.73-1.71h0A4.29,4.29,0,0,1,239,82.6a4.06,4.06,0,0,1,3-1.37h.15l.18,0a.44.44,0,0,0,.15,0h0c-.1-1.42-.66-2.14-1.7-2.14h0A3.64,3.64,0,0,0,238.71,80Zm3.83,5.73h0c0-.86,0-1.5,0-1.94h0c0-.37,0-.88,0-1.54h-.15a3.6,3.6,0,0,0-2.37,1,3,3,0,0,0-1.07,2.3h0a1.24,1.24,0,0,0,.36.94,1.22,1.22,0,0,0,.87.35h0A4.88,4.88,0,0,0,242.54,85.73Z"/><path class="cls-2" d="M75.88,70c-2-.22-4.24.76-6.5,2.87a3.42,3.42,0,0,1-2.12,1c9.68-12.05,11.67-31.54,5.27-49.7a13.93,13.93,0,0,0,2.57.27A7.64,7.64,0,0,0,79.79,23c2.17-1.6,3.14-4.48,2.68-7.86a4.81,4.81,0,0,0-2.32-3.69c-2.74-1.58-6.85-.32-8.23.18h0l-.46-1c-.11-.22-2.66-5.58-6.28-8.21a3.53,3.53,0,0,0-3.12-.66,7.17,7.17,0,0,0-3.54,2.71A26.68,26.68,0,0,0,45.36.14C45.08.14,43.92,0,42,0s-4,.12-4.34.14A27.68,27.68,0,0,0,18.86,9.25a4.34,4.34,0,0,0-2.27-.44c-1.66.13-3.16,1.22-4.45,3.25a5.18,5.18,0,0,0-.69,4.5,6.3,6.3,0,0,0,1.24,2.12v.06c-9.1,20-7.8,41.83,3.11,55a3.17,3.17,0,0,1-3.26-.87C10.26,70.73,8.06,69.82,6,70a5.88,5.88,0,0,0-4.2,2.7C.32,74.89-.25,76.8.1,78.66a8,8,0,0,0,3.75,4.93c.07,1.93,1,4.24,4.34,5.79.29,2,1.49,4.16,5.09,5.27.65,1.95,2.4,4.11,6.89,4.54.81.06,1.66.19,2.57.33a31.86,31.86,0,0,0,4.77.48c3.77,0,7.7-1.28,10.21-7A36.52,36.52,0,0,0,40,86.31h2A36.38,36.38,0,0,0,44.16,93c2.51,5.8,6.45,7,10.22,7a31.86,31.86,0,0,0,4.77-.48c.91-.14,1.77-.27,2.56-.33,4.47-.43,6.25-2.59,6.88-4.59,3.58-1.08,4.79-3.3,5.09-5.26C77.06,87.79,78,85.49,78,83.55a8,8,0,0,0,3.79-4.94c.34-1.87-.22-3.81-1.74-5.94A5.88,5.88,0,0,0,75.88,70ZM37.67,2.79h.08s2.17-.15,4.2-.13,3.25.13,3.25.13h.13a23.79,23.79,0,0,1,11.73,4,9.24,9.24,0,0,0-.53,1.09l-.23.53.28.51a9.38,9.38,0,0,0,5,4.66c-3.82,2.15-12.44,3.94-18.85,3.94H41.61c-8.31,0-20.27-2.6-20.81-6.12v-.17A25.44,25.44,0,0,1,37.67,2.79ZM14.79,20.47a16.62,16.62,0,0,0,2.86,1.58c1.08.86,6.75,5.11,20.13,5.11,1.22,0,2.49.08,3.83.08h1.08c16.12,1.08,22.76-4,24-5,.29.15.55.17.73.26.68.32,1.32.53,2,.77,7.21,18.62,5.13,38.94-5.42,50.46V74c-1,1-2.07,2-3.15,3.12h0a1.8,1.8,0,0,0-.92.49v-.11c-.26.19-.52.32-.78.51l-.19.1c-.65.45-1.31.94-2,1.34-1.22.71-2.56.93-3.94,2h0c-1.21,0-2.45.83-3.74,1.2a36.27,36.27,0,0,1-4.12.85c-.29,0-.6.07-.91.1h-.12c-.36,0-.73.06-1.08.08A28.91,28.91,0,0,1,39,83.59l-.66-.06-.48-.07-1-.21a39.17,39.17,0,0,1-7.82-2.58c-.75-.35-1.5-.74-2.24-1.14q-.78-.44-1.53-.9h0c-.6-.38-1.2-.79-1.79-1.22l-.07,0-.33-.25c-.48-.37-1-.75-1.44-1.15l-.59-.52L21,75.3l-.36-.38-.36-.32c-.48-.46-.93-.93-1.37-1.41C7.78,61.09,6.17,40,14.79,20.47ZM4,74.22a3.26,3.26,0,0,1,2.31-1.6h.31c1.18,0,2.61.75,4.18,2.17a5.79,5.79,0,0,0,6.91,1l.06.07L18.81,77l.12.12-.08.06-.12.09-.19.13-.11.07-.22.1h-.08l-.3.11H15.74l-.14,0h-.08l-.14-.07h-.06l-.19-.09a13.16,13.16,0,0,0-3.25-1.33,6.51,6.51,0,0,0-3.81.07,5.89,5.89,0,0,0-3.46,3.61,8.44,8.44,0,0,0-.31.88h0a4.48,4.48,0,0,1-1.63-2.47,5.24,5.24,0,0,1,1.31-4ZM6.57,83a8.25,8.25,0,0,1,.6-2.33A3.24,3.24,0,0,1,9,78.54a4.21,4.21,0,0,1,.48-.12h1.14l.38.07h.18l.45.12h.12l.58.2.19.08.46.2.2.1.62.33h0l.61.3.19.08.41.15.21.06.38.11h.21l.4.07h1.37l.34-.06h.19l.32-.08h.18L19,80h.13l.45-.22h.06l.37-.22.14-.1.26-.18.15-.12.24-.19.14-.12H21l.48.37.46.34.44.32.57.4h0l-.11,0-.07.11-.05.09-.09.12-.06.08-.18.21-.07.07-.13.13-.1.09-.14.12-.11.09-.16.1-.12.08-.19.11-.11.05-.34.13h-.07l-.3.07h-1l-.32-.07h-.15a3.81,3.81,0,0,1-.51-.17c-2.91-1.15-5.3-1.25-7.12-.31a5.82,5.82,0,0,0-2.95,4c-.08.29-.13.57-.18.84h0A3.4,3.4,0,0,1,6.57,83Zm4.28,5.42a8.46,8.46,0,0,1,.3-2.24,3.27,3.27,0,0,1,1.58-2.32,2,2,0,0,1,.4-.16h.13l.32-.08h1.64l.48.09.29.06.55.15.26.08c.29.09.57.2.86.3a6,6,0,0,0,.67.23h.08l.6.14h.09l.48.05h.69a5.73,5.73,0,0,0,1.09-.16h0l.48-.15h0l.45-.18h0l.42-.23h0a6.44,6.44,0,0,0,.8-.57h0l.34-.32h0l.3-.31h0l.27-.33h0a6.32,6.32,0,0,0,.47-.68h0l.44.25.37.2.69.36.29.15h0v.42h0v.15a4.07,4.07,0,0,1-.45.94h0l-.15.23h0v.23l-.08.08-.14.15-.12.11-.14.12-.17.12-.13.09-.22.12-.12.06-.27.1h-.11l-.31.06H23.18a5.67,5.67,0,0,1-.57-.1c-3-.78-5.42-.59-7.11.57a5.85,5.85,0,0,0-2.42,4.34c0,.33-.07.65-.09,1v.09a3.39,3.39,0,0,1-2.19-3.17Zm24.49,3.55c-2.82,6.39-7.35,5.7-12.14,5-1-.14-1.87-.28-2.76-.36-3.68-.31-4.43-1.89-4.67-3.25a2.46,2.46,0,0,0-.06-.53,1.37,1.37,0,0,1,0-.57,9.07,9.07,0,0,1,.09-1.28h0a3.24,3.24,0,0,1,1.27-2.5,2.38,2.38,0,0,1,.45-.23l.16-.07L18,88h.23l.23-.06h1.93l.49.07h.24l.77.18a6,6,0,0,0,7.45-4.13h0v-.13h0v-.16h0l.2.07a5.26,5.26,0,0,0,1.67.62h0A6.8,6.8,0,0,1,33,85l.35.11c.56.16,1.08.32,1.71.47l.34.08c.55.13,1.08.26,1.67.37h.14a34.06,34.06,0,0,1-1.89,5.9Zm26.2,4.6c-.89.08-1.79.22-2.75.36-4.8.74-9.33,1.42-12.14-5a34.15,34.15,0,0,1-2-5.74h.09l.76-.11h0c.54-.08,1.09-.18,1.61-.29l.32-.06c.52-.11,1-.23,1.54-.36l.29-.08c.51-.13,1-.28,1.53-.43h0c.52-.16,1-.34,1.53-.51h.16a1.07,1.07,0,0,0,.14.36h0l.18.38h0l.2.38h0l.24.36h0l.27.37h0l.32.35h0l.34.32h0l.38.31h.06l.41.27h.06l.46.23h.07l.5.18h.08l.54.14h.08a5.77,5.77,0,0,0,.58.08h.07c.21,0,.42,0,.64,0h.05a5.38,5.38,0,0,0,.69-.07h0a3.17,3.17,0,0,0,.77-.15c2.17-.57,3.93-.5,4.95.2a3.25,3.25,0,0,1,1.6,2.85,3.68,3.68,0,0,0,.06.66,7.15,7.15,0,0,1-.07,1.73c-.24,1.35-1,2.94-4.67,3.24ZM69,91.62v-.08a4.14,4.14,0,0,0-.08-1,5.87,5.87,0,0,0-2.43-4.33,4.59,4.59,0,0,0-.61-.35l-.11-.06-.63-.26H65q-.36-.11-.72-.18h0c-.25,0-.5-.08-.76-.11H61.33l-.67.1h-.3c-.33.06-.66.14-1,.23l-.55.11h-1l-.35-.08h0l-.35-.12h0l-.31-.15h0l-.39-.17h0L56.18,85h0L56,84.76h0l-.18-.23h0l-.16-.21h0L55.34,84h0l-.09-.17h0l-.08-.25v-.24h0v-.06h0l.45-.22.61-.29.47-.24.51-.26h0l.22.28h0l.25.28h0l.28.28h0l.3.24h0l.32.24h.06l.34.22h0l.37.19h.08l.39.18h0l.38.13h.06l.5.36h.09l.44,0h1.16l.47-.07H63l.54-.13h.11l.58-.19c2.17-.83,3.84-1,4.93-.42a3.27,3.27,0,0,1,1.58,2.32,3.36,3.36,0,0,0,.14.61,8.23,8.23,0,0,1,.17,1.64h0a3.36,3.36,0,0,1-2.15,3.13Zm4.66-5.25h0a3.41,3.41,0,0,0-.18-.85,5.89,5.89,0,0,0-3-4.1,5.28,5.28,0,0,0-.69-.29l-.22-.06-.5-.13h-.29l-.49-.07h-1a2.86,2.86,0,0,0-.81.08h-.13c-.27,0-.56.1-.85.16h-.13c-.29.08-.59.15-.91.25h-.09c-.33.11-.65.22-1,.36l-.48.15h-.12l-.42.09v.22s-.32.33-.48.33h-.1c-.12,0-.24-.23-.36-.25s0-.12,0-.12a1.66,1.66,0,0,1-.31-.12L61,82l-.3-.12h0l-.24-.12h-.08l-.24-.15h0l-.19-.16-.07-.06-.19-.18h0l-.1-.11.37-.25.7-.47L61,80l.61-.45h.07l.23.15.11.08.41.24h.06l.35.17.15.06.28.1h.17l.27.08h2.61l.26-.07.21,0,.26-.09.19-.07.29-.12.17-.08.45-.22c2-1.09,3.68-1.49,4.84-1.09a3.24,3.24,0,0,1,1.87,2.09,7.93,7.93,0,0,1,.6,2.33,3.41,3.41,0,0,1-1.93,3.28Zm5.56-8.25a4.43,4.43,0,0,1-1.62,2.46h0c-.1-.28-.2-.58-.32-.88A5.88,5.88,0,0,0,73.77,76l-.43-.13H73.2l-.29-.07h-.62c-.13,0-.25-.41-.38-.41s0-.4-.07-.4h0c-.17,0-.34.4-.51.42s-.11.21-.17.22a2.67,2.67,0,0,1-.4.15c-.14,0-.09.06-.15.07l-.54.13H70l-.46.13-.18.06-.47.16h-.12l-.59.24-.15.07-.48.21-.17.09-.62.32a4,4,0,0,1-.51.24h-.14l-.42.13h-.09a2.42,2.42,0,0,1-.47.07h-.62A3.43,3.43,0,0,1,64,77.6h-.1l-.2-.09.12-.12c.41-.38.81-.77,1.2-1.16h.06a5.73,5.73,0,0,0,6-1.39c1.68-1.55,3.25-2.31,4.44-2.17a3.25,3.25,0,0,1,2.31,1.59A5.22,5.22,0,0,1,79.18,78.12Z"/><path class="cls-3" d="M31.62,69.5a9.76,9.76,0,1,0,9.75-9.75A9.76,9.76,0,0,0,31.62,69.5ZM41.37,62A7.46,7.46,0,1,1,34,69.54v0a7.46,7.46,0,0,1,7.46-7.42Z"/><path class="cls-4" d="M34.65,41.55a10,10,0,1,0-10,10A10,10,0,0,0,34.65,41.55Zm-17.72,0a7.7,7.7,0,1,1,7.7,7.7h0A7.72,7.72,0,0,1,16.93,41.55Z"/><circle class="cls-5" cx="24.09" cy="41.01" r="3.26"/><path class="cls-6" d="M58.2,51.58a10,10,0,1,0-10-10A10,10,0,0,0,58.2,51.58Zm0-17.72a7.7,7.7,0,1,1-7.69,7.69h0A7.7,7.7,0,0,1,58.2,33.86Z"/><circle class="cls-7" cx="57.66" cy="41.01" r="3.26"/><circle class="cls-8" cx="41.03" cy="68.99" r="3.26"/><circle class="cls-9" cx="60.55" cy="91.69" r="1.55"/><circle class="cls-10" cx="56.2" cy="93.25" r="1.55"/><circle class="cls-11" cx="51.07" cy="92.93" r="1.55"/><circle class="cls-12" cx="47.96" cy="88.89" r="1.55"/><circle class="cls-13" cx="20.44" cy="91.69" r="1.55"/><circle class="cls-14" cx="24.8" cy="93.25" r="1.55"/><circle class="cls-15" cx="29.93" cy="92.93" r="1.55"/><circle class="cls-16" cx="33.04" cy="88.89" r="1.55"/></g></g></svg>