<svg width="248" height="247" viewBox="0 0 248 247" fill="none" xmlns="http://www.w3.org/2000/svg">
<g clip-path="url(#clip0_2744_13989)">
<path d="M135 173.4C135 173.4 193.5 168.3 193.5 165.6C193.5 163 195.6 160.8 198.3 160.8C200.6 160.8 202.6 162.5 203 164.8C203.7 164.5 204.4 164.3 205.1 164.3C207.1 164.3 208.9 165.6 209.6 167.5C210.4 166.9 214.2 166.1 215.6 166.8C219 168.6 218.6 170.9 217.3 173.2H160.2" fill="#FFC300"/>
<path d="M135 173.4C135 173.4 193.5 168.3 193.5 165.6C193.5 163 195.6 160.8 198.3 160.8C200.6 160.8 202.6 162.5 203 164.8C203.7 164.5 204.4 164.3 205.1 164.3C207.1 164.3 208.9 165.6 209.6 167.5C210.4 166.9 214.2 166.1 215.6 166.8C219 168.6 218.6 170.9 217.3 173.2H160.2" stroke="#46001E" stroke-width="0.5" stroke-linecap="round" stroke-linejoin="round"/>
<path d="M55.699 129.6C57.099 130.3 63.699 136.6 69.599 144.8C72.899 146.9 75.799 149.4 78.299 152.5L80.999 158.8C82.099 159.4 83.099 160.3 83.599 161.5C83.799 162.5 83.799 163.6 83.499 164.5L83.799 165.2L82.999 166C82.099 166.9 80.699 168.4 79.599 169.5C79.599 169.3 79.599 169.2 79.599 169C79.399 164.5 78.199 160.1 76.199 156.1C74.899 155.5 73.699 155 72.299 154.6C71.799 154.4 71.299 154.3 70.799 154.2C68.799 153.7 66.699 153.3 64.599 153.2C63.899 153.2 62.999 153.3 62.999 154C62.999 154.7 63.699 155 64.399 155.2C71.499 157.5 76.799 163.5 78.099 170.9C78.099 171 78.099 171 78.099 171.1C78.099 171.4 78.199 171.6 78.199 171.9C78.199 171.9 79.199 171.1 79.899 170.6C81.699 171.7 89.999 158.4 89.499 158.3C88.999 158.1 80.899 152.8 80.899 152.8C80.899 152.8 73.499 132.3 56.099 127.7C54.899 127.1 53.999 128.8 55.699 129.6Z" fill="#007470" stroke="#46001E" stroke-width="0.5" stroke-linecap="round" stroke-linejoin="round"/>
<path d="M52.2006 142C55.9006 142.7 64.6006 148.4 71.0006 154.1C71.5006 154.2 72.0006 154.4 72.5006 154.5C73.8006 154.9 75.1006 155.4 76.4006 156C78.4006 160 79.6006 164.4 79.8006 168.9C79.8006 169.1 79.8006 169.2 79.8006 169.4C80.9006 168.2 82.4006 166.8 83.2006 165.9L84.0006 165.1L83.7006 164.4L81.2006 158.7L78.5006 152.4C76.0006 149.4 73.1006 146.8 69.8006 144.7C64.6006 141.3 58.5006 139.4 52.3006 139.1C50.0006 139.4 49.8006 141.6 52.2006 142Z" fill="#007470" stroke="#46001E" stroke-width="0.5" stroke-linecap="round" stroke-linejoin="round"/>
<path d="M145.799 184.3C135.399 190.9 133.199 192.3 133.199 192.3L132.199 190.7C132.199 190.7 134.299 189.3 144.699 182.8C162.699 169.6 163.899 149.3 164.999 131.5C165.099 130.1 165.199 128.7 165.299 127.4C166.499 109.4 170.999 94.8004 181.599 74.4004C181.699 74.5004 181.799 74.6004 181.899 74.6004C182.299 74.9004 182.699 75.2004 183.199 75.4004C172.699 95.4004 168.299 109.8 167.199 127.5C167.099 128.8 166.999 130.2 166.899 131.6C165.799 149.8 164.499 170.6 145.799 184.3Z" fill="#007470" stroke="#0A003C" stroke-width="0.463" stroke-miterlimit="10"/>
<path d="M187.399 71.2006C186.399 71.6006 185.499 72.1006 184.599 72.6006C184.099 73.5006 183.599 74.5006 183.099 75.4006C182.599 75.2006 182.199 74.9006 181.799 74.6006C181.699 74.5006 181.599 74.4006 181.499 74.4006C181.899 73.7006 182.299 72.9006 182.699 72.2006C181.999 70.9006 181.299 69.6006 180.799 68.3006C178.699 63.0006 179.499 59.7006 181.099 57.7006C182.599 56.0006 184.599 54.9006 186.799 54.6006C183.399 45.4006 191.199 46.3006 191.199 46.3006C189.099 42.1006 194.599 40.4006 194.599 40.4006C195.399 38.0006 201.999 25.3006 203.999 22.3006C204.699 21.2006 206.299 22.0006 205.799 22.9006C199.499 33.6006 197.599 41.1006 197.599 41.1006C201.499 44.0006 197.399 47.0006 197.399 47.0006C203.399 51.5006 196.199 56.5006 196.199 56.5006C200.899 64.8006 192.399 68.9006 187.399 71.2006Z" fill="#FFC300" stroke="#46001E" stroke-width="0.5" stroke-linecap="round" stroke-linejoin="round"/>
<path d="M196.1 56.3006C195.5 55.5006 194.8 54.7006 194 54.1006Z" fill="#EBF5FA"/>
<path d="M196.1 56.3006C195.5 55.5006 194.8 54.7006 194 54.1006" stroke="#0A003C" stroke-width="0.463" stroke-miterlimit="10"/>
<path d="M191.299 46.1006C192.299 46.2006 193.299 46.5006 194.199 47.0006Z" fill="#EBF5FA"/>
<path d="M191.299 46.1006C192.299 46.2006 193.299 46.5006 194.199 47.0006" stroke="#0A003C" stroke-width="0.463" stroke-miterlimit="10"/>
<path d="M184.599 72.6001C184.099 73.5001 183.599 74.5001 183.099 75.4001C182.599 75.2001 182.199 74.9001 181.799 74.6001C181.699 74.5001 181.599 74.4001 181.499 74.4001C181.899 73.7001 182.299 72.9001 182.699 72.2001C181.999 70.9001 181.299 69.6001 180.799 68.3001C182.099 67.8001 184.099 68.3001 185.799 69.6001C186.399 70.1001 186.999 70.7001 187.399 71.3001C186.399 71.6001 185.499 72.1001 184.599 72.6001Z" fill="#007470" stroke="#0A003C" stroke-width="0.463" stroke-miterlimit="10"/>
<path d="M197.6 40.9004C197.6 40.9004 197 40.4004 195.5 41.2004Z" fill="#EBF5FA"/>
<path d="M197.6 40.9004C197.6 40.9004 197 40.4004 195.5 41.2004" stroke="#0A003C" stroke-width="0.463" stroke-miterlimit="10"/>
<path d="M190.799 38.8004C195.399 34.1004 198.199 27.9004 198.799 21.3004C198.899 20.3004 198.799 19.3004 198.599 18.4004C198.299 17.4004 197.599 16.7004 196.599 16.4004C195.599 16.3004 194.499 16.6004 193.899 17.4004C193.299 18.2004 192.699 19.1004 192.399 20.0004L187.699 31.1004" fill="#007470"/>
<path d="M190.799 38.8004C195.399 34.1004 198.199 27.9004 198.799 21.3004C198.899 20.3004 198.799 19.3004 198.599 18.4004C198.299 17.4004 197.599 16.7004 196.599 16.4004C195.599 16.3004 194.499 16.6004 193.899 17.4004C193.299 18.2004 192.699 19.1004 192.399 20.0004L187.699 31.1004" stroke="#46001E" stroke-width="0.5" stroke-linecap="round" stroke-linejoin="round"/>
<path d="M198.298 34.4999C196.998 37.9999 193.598 41.2999 191.998 40.6999C190.398 40.0999 192.798 36.2999 194.098 32.7999C195.398 29.2999 196.098 26.4999 197.698 27.0999C199.298 27.6999 199.598 30.9999 198.298 34.4999Z" fill="#0A003C" stroke="#0A003C" stroke-width="0.463" stroke-miterlimit="10"/>
<path d="M193.599 37.7002C195.699 33.7002 196.799 29.2002 196.699 24.7002C196.799 22.5002 196.299 20.4002 195.299 18.5002C194.199 16.6002 191.899 13.8002 189.799 17.4002C188.499 19.7002 185.199 17.5002 183.999 19.9002C181.099 25.5002 183.899 27.1002 187.999 31.9002" fill="#007470"/>
<path d="M193.599 37.7002C195.699 33.7002 196.799 29.2002 196.699 24.7002C196.799 22.5002 196.299 20.4002 195.299 18.5002C194.199 16.6002 191.899 13.8002 189.799 17.4002C188.499 19.7002 185.199 17.5002 183.999 19.9002C181.099 25.5002 183.899 27.1002 187.999 31.9002" stroke="#46001E" stroke-width="0.5" stroke-linecap="round" stroke-linejoin="round"/>
<path d="M186.199 29.4004C183.899 28.9004 179.699 30.3004 180.199 33.6004C180.799 37.9004 183.199 37.4004 183.399 40.7004C183.599 44.1004 183.099 46.7004 184.599 46.7004C187.099 46.8004 189.499 45.0004 191.199 41.9004C192.199 39.9004 192.899 37.7004 193.199 35.4004" fill="#007470"/>
<path d="M186.199 29.4004C183.899 28.9004 179.699 30.3004 180.199 33.6004C180.799 37.9004 183.199 37.4004 183.399 40.7004C183.599 44.1004 183.099 46.7004 184.599 46.7004C187.099 46.8004 189.499 45.0004 191.199 41.9004C192.199 39.9004 192.899 37.7004 193.199 35.4004" stroke="#46001E" stroke-width="0.5" stroke-linecap="round" stroke-linejoin="round"/>
<path d="M153.5 69.5C177.2 70.9 198.1 126.3 191.1 129.6C191 156.7 198.8 201.5 162 201.5C125.2 201.5 153.5 69.5 153.5 69.5Z" fill="#0A003C" stroke="#46001E" stroke-width="0.5" stroke-miterlimit="10"/>
<path d="M142.1 74.1998H136.3V71.1998C136.3 67.5998 133.3 63.7998 129.6 63.7998H123C119.3 63.7998 116.3 67.5998 116.3 71.1998V74.1998H110.4V71.1998C110.5 64.2998 116.1 58.7998 123 58.7998H129.6C136.5 58.7998 142.1 64.2998 142.2 71.1998L142.1 74.1998Z" fill="#0A003C" stroke="#46001E" stroke-width="0.5" stroke-miterlimit="10"/>
<path d="M155.8 70.2998C169.6 73.3998 194.4 122.9 194.2 149.5C194 176.6 195.8 203 159 203C122.2 203 155.8 70.2998 155.8 70.2998Z" fill="#007470" stroke="#46001E" stroke-width="0.5" stroke-linecap="round" stroke-linejoin="round"/>
<path d="M97.7 202.9H156.3C163 202.9 168.4 197.5 168.4 190.8C159.8 156.9 160 122.1 168.4 86.5C168.4 77.1 160.8 69.5 151.4 69.5H99C92.1 69.5 86.5 75.1 86.5 82V191.7C86.5 197.9 91.5 202.9 97.7 202.9Z" fill="#FFC300" stroke="#46001E" stroke-width="0.5" stroke-linecap="round" stroke-linejoin="round"/>
<path d="M136.001 202.9H153.501C190.701 138.6 130.701 114 153.501 69.5H136.001C113.201 114 170.701 140.5 136.001 202.9Z" fill="#0A003C" stroke="#46001E" stroke-width="0.5" stroke-miterlimit="10"/>
<path d="M98.2009 202.9H116.301C71.101 84.7 96.001 114 116.301 69.5H98.2009C77.8009 114 51.0009 74.5 98.2009 202.9Z" fill="#0A003C" stroke="#46001E" stroke-width="0.5" stroke-miterlimit="10"/>
<path d="M193.001 150.5C193.201 151.3 192.701 152 191.901 152.2C190.301 156.1 182.201 157.6 177.901 155.4C175.701 154.3 175.401 153.3 175.401 153.3L172.801 139.8C171.501 133.6 170.701 132 172.501 128.3C172.901 127.4 170.701 124.1 177.101 122.5C183.901 120.8 184.401 123.8 184.701 125.7C185.201 128.4 187.201 126 188.501 133.2L191.201 149.6C192.001 149.3 192.801 149.8 193.001 150.5Z" fill="#0A003C" stroke="#46001E" stroke-width="0.534" stroke-miterlimit="10"/>
<path d="M175.2 126C177.4 127.1 180.1 126.7 181.9 124.9C182.2 124.5 181.4 121 181.4 121L174.1 122.1L174.5 124.5C174.6 124.9 174.8 125.8 175.2 126Z" fill="#0A003C" stroke="#46001E" stroke-width="0.534" stroke-miterlimit="10"/>
<path d="M178.065 123.368C180.087 123.076 181.605 121.997 181.455 120.959C181.305 119.92 179.544 119.315 177.521 119.608C175.499 119.9 173.981 120.979 174.131 122.017C174.281 123.056 176.042 123.661 178.065 123.368Z" fill="#EBF5FA" stroke="#46001E" stroke-width="0.5" stroke-miterlimit="10"/>
<path d="M40.0996 160.1H110.5C110.5 160.1 123.3 160.1 123.3 171.3H126.8C129.7 170 133 170 135.9 171.4L137.5 170.2C138 169.9 138.6 171.1 138.6 171.6L126.3 200L40.0996 202.1V160.1Z" fill="#FFC300" stroke="#46001E" stroke-width="0.5" stroke-linecap="round" stroke-linejoin="round"/>
<path d="M40.1 202.1C50.3725 202.1 58.7 192.698 58.7 181.1C58.7 169.502 50.3725 160.1 40.1 160.1C29.8275 160.1 21.5 169.502 21.5 181.1C21.5 192.698 29.8275 202.1 40.1 202.1Z" fill="#FFC300" stroke="#46001E" stroke-width="0.5" stroke-linecap="round" stroke-linejoin="round"/>
<path d="M54.0996 181.1C54.0996 184 53.3996 186.9 51.9996 189.5C49.6996 194 45.0996 196.8 40.0996 196.9C32.3996 196.9 26.0996 189.8 26.0996 181.1C26.0996 172.4 32.3996 165.3 40.0996 165.3C45.0996 165.4 49.6996 168.3 51.9996 172.7C53.3996 175.3 54.0996 178.2 54.0996 181.1Z" fill="#0A003C" stroke="#46001E" stroke-width="0.5" stroke-miterlimit="10"/>
<path d="M72.1006 88.5003C71.1006 88.5003 70.3006 87.8003 70.1006 86.8003C70.0006 85.8003 70.3006 84.9003 71.1006 84.3003C71.6006 83.9003 72.2006 83.6003 72.9006 83.5003C73.4006 83.4003 74.0006 83.4003 74.4006 83.6003C75.0006 84.1003 75.3006 84.8003 75.1006 85.6003C74.8006 87.0003 73.6006 88.2003 72.1006 88.5003Z" fill="#0A003C" stroke="#46001E" stroke-width="0.5" stroke-miterlimit="10"/>
<path d="M116.799 124.6C113.999 135.3 107.699 130.2 105.999 135.7C110.799 144.9 114.399 154.6 116.799 164.7C116.999 165.6 116.599 166.4 115.799 166.8C115.699 166.9 115.499 166.9 115.299 167C114.299 167.2 113.199 166.6 112.999 165.5C111.699 159.7 109.899 154 107.599 148.4C103.299 137.9 100.899 143.1 93.9994 143.9C84.9994 144.9 72.3994 132.9 70.0994 129C69.7994 128.4 69.8994 127.7 70.4994 127.4C70.5994 127.4 70.5994 127.3 70.6994 127.3C85.4994 121.7 97.8994 132.5 102.599 137.6C93.9994 121.5 84.1994 112.3 83.9994 112.1C83.1994 111.4 83.1994 110.1 83.8994 109.4C84.5994 108.6 85.8994 108.6 86.5994 109.3C87.1994 109.8 96.3994 118.4 104.899 133.7C104.799 132.5 104.799 131.6 104.799 131.6C104.699 131.2 99.6994 115 109.599 103.2C110.099 102.6 110.999 102.5 111.599 103C111.699 103.1 111.799 103.2 111.799 103.3C114.299 106.6 119.299 115 116.799 124.6Z" fill="#007470" stroke="#46001E" stroke-width="0.5" stroke-miterlimit="10"/>
<path d="M95 89.1998C95.6 90.2998 95.3 91.5998 94.5 92.3998C95.3 91.8998 96.3 91.9998 96.9 92.7998C97 92.8998 97 92.9998 97.1 93.1998C97.4 94.3998 96.9 95.5998 95.9 96.3998C96.7 96.0998 97.7 96.4998 98 97.3998C98.1 97.5998 98.1 97.6998 98.1 97.8998C98.1 99.0998 97.5 100.3 96.4 100.9C97.5 100.9 98.5 101.3 98.3 102.6C98 104 97.1 105.1 95.8 105.6C96.8 105.9 97.3 106.9 97 107.9C97 108 96.9 108.1 96.9 108.1C96.5 109.3 95.5 110.1 94.3 110.3C95.1 110.7 95.5 111.7 95 112.6C95 112.7 94.9 112.8 94.9 112.8C94.3 114 92.9 115 91.9 114.8C92.6 115.8 92.5 117.1 91.7 117.9C91.1 118.9 89.8 119.3 88.7 118.8C89.2 119.7 89.1 120.8 87.8 122C87.1 122.9 85.8 123 85 122.3C85 122.3 85 122.3 84.9 122.2C85.2 123.5 84.5 124.7 83.4 125.3C82.7 125.9 81.6 125.8 80.9 125.1C80.8 125 80.8 124.9 80.7 124.8C80.5 126.2 79.7 127.4 78.4 128C77.3 128.4 76.5 127.5 76.3 126.4C75.9 127.7 74.8 128.7 73.5 128.9C72.4 129 71.9 128.1 71.9 126.9C71.3 128.1 70.1 128.8 68.8 128.8C67.7 128.7 67.5 127.6 67.8 126.4C67.1 127.4 65.9 127.9 64.7 127.6C63.8 127.2 63.6 126.1 64.2 124.9C63.5 125.8 62.2 126.1 61.3 125.5C60.5 124.6 60.5 123.3 61.3 122.4C60.4 123.2 59.1 123.1 58.3 122.2C57.7 121.3 58.2 120 59.1 119.1C58 119.6 57 119.5 56.6 118.2C56.3 117 56.8 115.8 57.9 115.1C57 115.4 55.9 114.9 55.6 114C55.6 113.9 55.5 113.8 55.5 113.6C55.6 112.3 56.4 111.1 57.6 110.6C56.6 110.6 55.7 109.7 55.7 108.7C55.7 108.6 55.7 108.5 55.7 108.4C56 107.1 57 106.2 58.3 105.9C57.2 105.4 56.7 104.1 57.2 103C57.7 101.9 58.8 101.2 60 101.2C59.2 100.7 59 99.0998 59.7 97.8998C60.3 96.8998 61.5 96.3998 62.6 96.6998C62 95.8998 62.1 94.2998 63 93.1998C63.7 92.2998 64.9 92.0998 65.9 92.6998C65.3 91.5998 65.5 90.2998 66.4 89.3998C67.1 88.9998 67.9 88.7998 68.7 88.8998C69.1 87.9998 69.7 87.1998 70.5 86.5998C71.6 85.8998 72.3 86.6998 72.7 87.6998C72.9 86.2998 73.7 85.0998 74.9 84.4998C76 83.9998 76.8 84.7998 77 85.8998C77.4 84.4998 78.5 83.3998 79.9 82.9998C81 82.7998 81.4 83.9998 81.4 85.0998C81.9 83.7998 83.1 82.9998 84.5 82.7998C85.6 82.8998 85.8 84.1998 85.5 85.3998C86.1 84.2998 87.2 83.7998 88.4 84.0998C89.4 84.4998 89.7 85.6998 89.2 86.7998C89.9 85.8998 91.1 85.5998 92.1 86.0998C92.9 86.8998 93 88.1998 92.2 89.0998C93.2 88.3998 94.4 88.3998 95 89.1998Z" fill="#EEAAA2" stroke="#46001E" stroke-width="0.5" stroke-linecap="round" stroke-linejoin="round"/>
<path d="M85.2526 114.512C92.1676 107.681 93.998 98.3222 89.3409 93.6074C84.6838 88.8927 75.3028 90.6077 68.3878 97.4381C61.4729 104.269 59.6425 113.628 64.2996 118.342C68.9567 123.057 78.3377 121.342 85.2526 114.512Z" fill="#0A003C" stroke="#46001E" stroke-width="0.5" stroke-miterlimit="10"/>
<path d="M163.101 72.2004C163.801 72.0004 164.301 71.5005 164.501 70.8005C164.701 69.8005 164.201 68.8005 163.201 68.5005C161.201 67.8005 158.501 67.1004 157.001 66.7004C156.501 66.6004 156.201 66.2005 156.101 65.8005C155.601 64.0005 154.501 61.0004 150.801 60.3004C147.201 59.6004 145.901 61.4004 144.701 62.8004C144.601 62.9004 144.401 63.1005 144.301 63.2005C143.201 64.4005 141.601 62.9004 141.101 60.6004C141.001 59.7004 140.301 59.0004 139.401 58.8004C138.401 58.7004 137.401 59.5005 137.301 60.5005C137.301 60.6005 137.301 60.8005 137.301 60.9005C137.601 63.5005 139.201 66.7005 142.901 67.3005C144.301 67.5005 145.801 66.9005 146.701 65.8005C147.801 64.5005 148.601 63.7005 149.901 64.0005C151.601 64.4005 152.101 65.8005 152.501 67.4005C152.601 68.0005 152.801 68.5005 153.101 69.0005C153.501 69.6005 155.801 68.8004 162.001 72.2004C162.401 72.3004 162.801 72.3004 163.101 72.2004Z" fill="#EEAAA2" stroke="#0A003C" stroke-width="0.463" stroke-miterlimit="10"/>
<path d="M195.801 117.1C195.801 117.1 197.201 135.9 191.501 142.6C185.801 149.3 195.201 148.7 195.701 148.6C196.201 148.5 208.401 126.5 208.401 126.5C200.901 129.2 203.801 117.1 203.801 117.1" fill="#EEAAA2"/>
<path d="M195.801 117.1C195.801 117.1 197.201 135.9 191.501 142.6C185.801 149.3 195.201 148.7 195.701 148.6C196.201 148.5 208.401 126.5 208.401 126.5C200.901 129.2 203.801 117.1 203.801 117.1" stroke="#46001E" stroke-width="0.5" stroke-linecap="round" stroke-linejoin="round"/>
<path d="M216.8 118.5L127.9 203L122.4 211.3L161.1 203.4L180.6 178.8L230.8 132.8" fill="#EEAAA2"/>
<path d="M216.8 118.5L127.9 203L122.4 211.3L161.1 203.4L180.6 178.8L230.8 132.8" stroke="#46001E" stroke-width="0.5" stroke-linecap="round" stroke-linejoin="round"/>
<path d="M230.757 132.789C233.331 130.287 232.296 125.048 228.446 121.088C224.596 117.128 219.389 115.947 216.815 118.449C214.241 120.952 215.275 126.191 219.125 130.15C222.975 134.11 228.183 135.292 230.757 132.789Z" fill="#0A003C" stroke="#46001E" stroke-width="0.5" stroke-miterlimit="10"/>
<path d="M203.758 117.09C203.77 115.654 201.99 114.474 199.781 114.455C197.572 114.435 195.77 115.583 195.758 117.019C195.745 118.455 197.525 119.635 199.734 119.655C201.944 119.674 203.745 118.526 203.758 117.09Z" fill="#0A003C" stroke="#46001E" stroke-width="0.5" stroke-miterlimit="10"/>
<path d="M36 204.6C36 202 38.1 198 40.8 198C41.8 198 42.9 198.3 43.7 199C44.6 196.5 47.3 195.2 49.8 196.1C50 196.2 50.2 196.2 50.3 196.3C50.7 193.7 53.2 191.9 55.8 192.4C58.1 192.8 59.8 194.8 59.8 197.1C59.8 199.7 118.3 204.9 118.3 204.9" fill="#007470"/>
<path d="M36 204.6C36 202 38.1 198 40.8 198C41.8 198 42.9 198.3 43.7 199C44.6 196.5 47.3 195.2 49.8 196.1C50 196.2 50.2 196.2 50.3 196.3C50.7 193.7 53.2 191.9 55.8 192.4C58.1 192.8 59.8 194.8 59.8 197.1C59.8 199.7 118.3 204.9 118.3 204.9" stroke="#46001E" stroke-width="0.5" stroke-linecap="round" stroke-linejoin="round"/>
<path d="M208.601 195.6C208.601 195.8 208.601 195.9 208.701 196.1C207.501 195 205.901 193.7 205.001 192.9C204.801 192.4 204.601 191.9 204.401 191.4C204.001 190.4 203.901 189.4 204.001 188.4C204.401 187.2 205.301 186.2 206.401 185.5C207.201 184.9 208.001 184.4 208.601 184C209.401 183.5 210.101 182.9 210.901 182.5C209.201 186.6 208.401 191 208.601 195.6Z" fill="#EBF5FA" stroke="#46001E" stroke-width="0.5" stroke-miterlimit="10"/>
<path d="M77.6992 160.1H148.099C148.099 160.1 160.899 160.1 160.899 171.3H164.399C167.299 170 170.599 170 173.499 171.4L175.099 170.2C175.599 169.9 176.199 171.1 176.199 171.6L163.899 200L77.6992 202.1V160.1Z" fill="#FFC300" stroke="#46001E" stroke-width="0.5" stroke-linecap="round" stroke-linejoin="round"/>
<path d="M77.6996 202.1C87.9721 202.1 96.2996 192.698 96.2996 181.1C96.2996 169.502 87.9721 160.1 77.6996 160.1C67.4271 160.1 59.0996 169.502 59.0996 181.1C59.0996 192.698 67.4271 202.1 77.6996 202.1Z" fill="#FFC300" stroke="#46001E" stroke-width="0.5" stroke-linecap="round" stroke-linejoin="round"/>
<path d="M91.6992 181.1C91.6992 184 90.9992 186.9 89.5992 189.5C87.2992 194 82.6992 196.8 77.6992 196.9C69.9992 196.9 63.6992 189.8 63.6992 181.1C63.6992 172.4 69.9992 165.3 77.6992 165.3C82.6992 165.4 87.2992 168.3 89.5992 172.7C90.9992 175.3 91.6992 178.2 91.6992 181.1Z" fill="#0A003C" stroke="#46001E" stroke-width="0.5" stroke-miterlimit="10"/>
<path d="M105.199 205.4C102.099 196 101.799 185.9 104.199 176.4C108.199 160.7 104.199 151.7 102.899 148.3C101.599 144.9 103.699 146.3 104.299 147.9C104.899 149.5 112.199 163.3 109.999 172.4C107.799 181.5 108.799 192.9 110.899 196.9C112.099 199.7 112.499 202.8 111.899 205.8" fill="#EBF5FA"/>
<path d="M105.199 205.4C102.099 196 101.799 185.9 104.199 176.4C108.199 160.7 104.199 151.7 102.899 148.3C101.599 144.9 103.699 146.3 104.299 147.9C104.899 149.5 112.199 163.3 109.999 172.4C107.799 181.5 108.799 192.9 110.899 196.9C112.099 199.7 112.499 202.8 111.899 205.8" stroke="#46001E" stroke-width="0.5" stroke-miterlimit="10"/>
<path d="M61.7008 201.1C63.6008 199 65.2008 196.6 66.3008 194C66.6008 193.4 66.7008 192.7 66.5008 192.1C66.2008 191.6 65.7008 191.3 65.2008 191.2C64.6008 191.2 64.1008 191.2 63.6008 191.4C59.7008 192.4 56.5008 196.8 54.3008 200.7" fill="#007470"/>
<path d="M61.7008 201.1C63.6008 199 65.2008 196.6 66.3008 194C66.6008 193.4 66.7008 192.7 66.5008 192.1C66.2008 191.6 65.7008 191.3 65.2008 191.2C64.6008 191.2 64.1008 191.2 63.6008 191.4C59.7008 192.4 56.5008 196.8 54.3008 200.7" stroke="#46001E" stroke-width="0.5" stroke-linecap="round" stroke-linejoin="round"/>
<path d="M191.099 208.1H130.199C130.199 208.1 119.699 207.3 116.699 199.8C113.699 192.3 116.199 187.1 122.099 183.5C127.999 179.9 151.799 166.6 161.599 161.3C166.199 158.8 169.999 154.6 182.399 160.2C194.799 165.8 205.999 170.4 210.499 183C212.299 187.8 210.299 195.9 208.299 197.9C206.599 199.5 198.399 204.8 194.799 207C193.699 207.8 192.399 208.1 191.099 208.1Z" fill="#EBF5FA" stroke="#46001E" stroke-width="0.5" stroke-miterlimit="10"/>
<path d="M108.9 201.1C110 193.9 111.2 186.6 114.2 180C117 173.9 121.7 168.4 127.8 165.8C128.1 165.7 128.3 165.8 128.4 166.1C128.5 166.3 128.4 166.4 128.3 166.6C119.9 178.3 116.1 192.7 117.7 207" fill="#EBF5FA"/>
<path d="M108.9 201.1C110 193.9 111.2 186.6 114.2 180C117 173.9 121.7 168.4 127.8 165.8C128.1 165.7 128.3 165.8 128.4 166.1C128.5 166.3 128.4 166.4 128.3 166.6C119.9 178.3 116.1 192.7 117.7 207" stroke="#46001E" stroke-width="0.5" stroke-miterlimit="10"/>
<path d="M114 202.5C115.4 200.1 117.3 197.9 119.4 196.1C119.9 195.6 120.5 195.3 121.2 195.3C121.7 195.4 122.2 195.8 122.4 196.3C122.6 196.8 122.7 197.4 122.7 197.9C122.9 201.9 119.6 206.3 116.5 209.5" fill="#EBF5FA"/>
<path d="M114 202.5C115.4 200.1 117.3 197.9 119.4 196.1C119.9 195.6 120.5 195.3 121.2 195.3C121.7 195.4 122.2 195.8 122.4 196.3C122.6 196.8 122.7 197.4 122.7 197.9C122.9 201.9 119.6 206.3 116.5 209.5" stroke="#46001E" stroke-width="0.5" stroke-miterlimit="10"/>
<path d="M104.1 207.9C102.7 205.8 102.5 203.3 103.3 200.9C104.2 198.6 105.5 196.5 107.3 194.8C108.2 193.8 109.4 192.8 110.8 193.1C111.9 193.5 112.8 194.4 113.2 195.6C114.9 199.8 115 204.6 113.4 208.8" fill="#EBF5FA"/>
<path d="M104.1 207.9C102.7 205.8 102.5 203.3 103.3 200.9C104.2 198.6 105.5 196.5 107.3 194.8C108.2 193.8 109.4 192.8 110.8 193.1C111.9 193.5 112.8 194.4 113.2 195.6C114.9 199.8 115 204.6 113.4 208.8" stroke="#46001E" stroke-width="0.5" stroke-miterlimit="10"/>
<path d="M177.9 165.3L193.1 172.5" stroke="#46001E" stroke-width="0.5" stroke-miterlimit="10"/>
<path d="M203.6 195.3L191.9 203" stroke="#46001E" stroke-width="0.5" stroke-miterlimit="10"/>
<path d="M191.9 196.1L197.5 199.4" stroke="#46001E" stroke-width="0.5" stroke-miterlimit="10"/>
<path d="M160.4 167.1L137.5 177.9" stroke="#46001E" stroke-width="0.5" stroke-miterlimit="10"/>
<path d="M40.5997 154.2C40.5997 155.2 41.1997 156 42.1997 156.3C47.2997 157.9 52.7997 158.1 57.8997 156.7C58.9997 156.5 59.6997 155.4 59.4997 154.3C59.4997 154.2 59.4997 154.2 59.4997 154.1C59.0997 153.1 57.9997 152.5 56.8997 152.8C52.3997 154 47.6997 153.8 43.2997 152.4C43.1997 152.4 43.1997 152.4 43.0997 152.4V152.3C42.7997 151.4 41.8997 150.9 40.9997 151.2C40.0997 151.5 39.5997 152.4 39.8997 153.3C40.0997 153.7 40.2997 154 40.5997 154.2Z" fill="#0A003C" stroke="#46001E" stroke-width="0.5" stroke-miterlimit="10"/>
<path d="M43.1992 152.6C40.7992 148.4 39.6992 143.6 39.7992 138.7" stroke="#46001E" stroke-width="0.5" stroke-miterlimit="10" stroke-linecap="round"/>
<path d="M40.7004 154.8C40.7004 154.8 36.1004 147 35.4004 138.8" stroke="#46001E" stroke-width="0.5" stroke-miterlimit="10" stroke-linecap="round"/>
<path d="M57.9004 155.7C59.4004 157 61.3004 157.9 63.3004 158.1C63.3004 158.1 61.0004 159.4 61.0004 160.1" stroke="#46001E" stroke-width="0.5" stroke-linecap="round" stroke-linejoin="round"/>
<path d="M54.8008 155.7C56.3008 157 58.2008 157.9 60.2008 158.1C60.2008 158.1 57.9008 159.4 57.9008 160.1" stroke="#46001E" stroke-width="0.5" stroke-linecap="round" stroke-linejoin="round"/>
<path d="M43.0992 156.5C43.0992 156.5 42.6992 159.5 40.6992 160.2" stroke="#46001E" stroke-width="0.5" stroke-linecap="round" stroke-linejoin="round"/>
<path d="M41.3 156C41.3 156 40.5 159.4 38.5 160.1" stroke="#46001E" stroke-width="0.5" stroke-linecap="round" stroke-linejoin="round"/>
<path d="M44.5 153.4L57.1 151.7C57.5 151.6 57.9 151.7 58.2 151.9C58.4 152.3 58.4 152.7 58.1 153C57.8 153.3 57.4 153.4 57 153.5C54.1 154.2 51.2 154.8 48.3 155.2" fill="#0A003C"/>
<path d="M44.5 153.4L57.1 151.7C57.5 151.6 57.9 151.7 58.2 151.9C58.4 152.3 58.4 152.7 58.1 153C57.8 153.3 57.4 153.4 57 153.5C54.1 154.2 51.2 154.8 48.3 155.2" stroke="#46001E" stroke-width="0.5" stroke-miterlimit="10"/>
<path d="M185.499 89.3997C184.499 89.6997 183.899 90.5997 183.999 91.5997C183.999 97.0997 185.599 102.5 188.599 107.2C189.099 108.2 190.399 108.6 191.399 108.1C191.499 108.1 191.499 108 191.599 108C192.499 107.3 192.699 106 191.999 105.1C189.399 101.1 188.099 96.3997 187.999 91.6997C187.999 91.5997 187.999 91.5997 187.999 91.4997H188.099C188.899 90.9997 189.099 89.8997 188.599 89.0997C188.099 88.2997 186.999 88.0997 186.199 88.5997C185.899 88.6997 185.699 88.9997 185.499 89.3997Z" fill="#0A003C" stroke="#0A003C" stroke-width="0.463" stroke-miterlimit="10"/>
<path d="M185.699 90.7002C185.699 90.7002 185.899 79.8002 191.799 76.2002" stroke="#0A003C" stroke-width="0.463" stroke-miterlimit="10"/>
<path d="M188.2 93.3006C188.2 93.3006 187.8 82.1006 194.1 78.6006" stroke="#0A003C" stroke-width="0.463" stroke-miterlimit="10"/>
<path d="M186.8 101.601C186.8 101.601 186.9 106.801 188.2 109.401C187.2 109.601 186.4 110.301 186.1 111.301" stroke="#0A003C" stroke-width="0.463" stroke-miterlimit="10"/>
<path d="M190 104.2C190 104.2 189.2 108.1 190.5 110.7C189.7 110.8 188.9 111.2 188.6 112" stroke="#0A003C" stroke-width="0.463" stroke-miterlimit="10"/>
<path d="M184.2 91.4004C184.2 91.4004 183.5 96.1004 181.5 97.3004" stroke="#0A003C" stroke-width="0.463" stroke-miterlimit="10"/>
<path d="M186.001 92.2998C186.001 92.2998 185.301 96.9998 183.301 98.1998" stroke="#0A003C" stroke-width="0.463" stroke-miterlimit="10"/>
<path d="M192.3 103.2C192.6 103.8 192.9 104.5 192.6 105.1C192.2 105.6 191.6 105.7 191 105.5C190.5 105.3 190 104.9 189.7 104.4C187.8 102 186.6 99.1005 186.3 96.1005C186.2 95.4005 186.2 94.7005 186.4 94.1005C186.6 93.6005 187.3 92.6005 187.9 93.0005C188.4 93.3005 188.6 94.7005 188.8 95.3005C189.4 97.1005 190.1 98.8005 190.9 100.5C191.4 101.3 191.9 102.2 192.3 103.2Z" fill="#0A003C" stroke="#0A003C" stroke-width="0.463" stroke-miterlimit="10"/>
<path d="M83.3478 175.284C84.7124 174.25 85.1154 172.484 84.2481 171.339C83.3808 170.195 81.5716 170.105 80.207 171.139C78.8425 172.173 78.4394 173.939 79.3067 175.084C80.174 176.228 81.9833 176.318 83.3478 175.284Z" fill="#EBF5FA" stroke="#46001E" stroke-width="0.5" stroke-miterlimit="10.0001"/>
<path d="M44.8956 175.294C46.2598 174.26 46.6623 172.494 45.7945 171.349C44.9268 170.205 43.1175 170.116 41.7533 171.151C40.3891 172.186 39.9866 173.952 40.8544 175.096C41.7221 176.24 43.5315 176.329 44.8956 175.294Z" fill="#EBF5FA" stroke="#46001E" stroke-width="0.5" stroke-miterlimit="10"/>
<path d="M114.9 207.1C114.9 207.1 151.7 208.3 150.9 205.5C150.5 204.6 150.7 203.6 151.3 202.8C155.2 198.9 159.8 201.2 160.3 204.8C161 204.5 161.7 204.3 162.4 204.3C164.4 204.3 166.2 205.6 166.9 207.5C167.7 206.9 171.5 206.1 172.9 206.8L173 206.9C174.6 207.8 175.2 209.8 174.3 211.5C173.7 212.6 172.5 213.2 171.3 213.2L113.5 212.1" fill="#007470"/>
<path d="M114.9 207.1C114.9 207.1 151.7 208.3 150.9 205.5C150.5 204.6 150.7 203.6 151.3 202.8C155.2 198.9 159.8 201.2 160.3 204.8C161 204.5 161.7 204.3 162.4 204.3C164.4 204.3 166.2 205.6 166.9 207.5C167.7 206.9 171.5 206.1 172.9 206.8L173 206.9C174.6 207.8 175.2 209.8 174.3 211.5C173.7 212.6 172.5 213.2 171.3 213.2L113.5 212.1" stroke="#46001E" stroke-width="0.5" stroke-linecap="round" stroke-linejoin="round"/>
<path d="M135.3 199.7C135.3 199.7 98.5001 200.9 99.3001 198.1C99.7001 197.2 99.5001 196.2 98.9001 195.4C95.0001 191.5 90.4001 193.8 89.9001 197.4C89.2001 197.1 88.5001 196.9 87.8001 196.9C85.8001 196.9 84.0001 198.2 83.3001 200.1C82.5001 199.5 78.7001 198.7 77.3001 199.4L77.2001 199.5C75.6001 200.4 75.0001 202.4 75.9001 204.1C76.5001 205.2 77.7001 205.8 78.9001 205.8L136.7 204.7" fill="#007470"/>
<path d="M135.3 199.7C135.3 199.7 98.5001 200.9 99.3001 198.1C99.7001 197.2 99.5001 196.2 98.9001 195.4C95.0001 191.5 90.4001 193.8 89.9001 197.4C89.2001 197.1 88.5001 196.9 87.8001 196.9C85.8001 196.9 84.0001 198.2 83.3001 200.1C82.5001 199.5 78.7001 198.7 77.3001 199.4L77.2001 199.5C75.6001 200.4 75.0001 202.4 75.9001 204.1C76.5001 205.2 77.7001 205.8 78.9001 205.8L136.7 204.7" stroke="#46001E" stroke-width="0.5" stroke-linecap="round" stroke-linejoin="round"/>
<path d="M153.3 136.8V205.2C153.3 209.8 149.6 213.5 145 213.5H109.7C109.5 213.5 109.2 213.5 109 213.5H108.7C108.5 213.5 108.3 213.4 108.1 213.4H108C107.7 213.3 107.5 213.3 107.2 213.2C103.7 212.1 101.4 208.9 101.4 205.3V136.9C101.4 133.3 103.8 130 107.3 129H107.4C107.6 128.9 107.8 128.9 108 128.8H108.1C108.3 128.8 108.5 128.7 108.7 128.7H109C109.2 128.7 109.5 128.7 109.7 128.7H145C149.5 128.5 153.3 132.3 153.3 136.8Z" fill="#0A003C" stroke="#46001E" stroke-width="0.5" stroke-miterlimit="10"/>
<path d="M114.3 128.5H149.6C154.2 128.5 157.9 132.2 157.9 136.8V205.2C157.9 209.8 154.2 213.5 149.6 213.5H114.3C109.7 213.5 106 209.8 106 205.2V136.8C106 132.3 109.7 128.5 114.3 128.5Z" fill="#EBF5FA" stroke="#46001E" stroke-width="0.5" stroke-miterlimit="10"/>
<path d="M122.5 128.5H141.4V131.8C141.4 132.4 140.9 133 140.2 133H123.6C123 133 122.4 132.5 122.4 131.8V128.5H122.5Z" fill="#0A003C" stroke="#46001E" stroke-width="0.5" stroke-miterlimit="10"/>
<path d="M133.1 208.5C135.364 208.5 137.2 206.664 137.2 204.4C137.2 202.135 135.364 200.3 133.1 200.3C130.836 200.3 129 202.135 129 204.4C129 206.664 130.836 208.5 133.1 208.5Z" fill="#EBF5FA" stroke="#46001E" stroke-width="0.5" stroke-miterlimit="10"/>
<path d="M115.699 167.7H117.199C117.199 168.7 117.199 169.8 117.199 170.8H118.499V172.1L118.999 172.4H120.299V173.9H123.699V172.4H125.499C125.499 172.3 125.499 172.3 125.599 172.2C125.599 172.1 125.699 172.1 125.699 172L125.599 171.9C125.799 171.6 125.799 171.2 125.599 170.9L125.799 170.7H128.199C128.299 170.2 128.299 169.7 128.099 169.2C128.199 169.1 128.399 169.1 128.499 169.1C128.799 169.1 129.199 169.1 129.499 169.1H130.499V167.6C131.099 167.8 131.699 167.8 132.199 167.6V157.2H133.699L133.899 157V155.7C134.399 155.6 144.699 155.6 146.599 155.7V157.2H148.199V164.2H140.299V165.8H145.199C145.199 166 145.199 166.3 145.199 166.5C145.199 166.7 145.199 167 145.199 167.2H138.699V170.3H141.699L141.899 170.5V173.7H140.299V172.2H138.499C138.299 172.4 138.299 172.7 138.299 173C138.299 174.2 138.299 175.3 138.299 176.5C138.299 176.7 138.299 176.8 138.399 177L138.299 177.2L138.399 177.4L138.199 177.6C137.699 177.7 137.099 177.5 136.599 177.8V180H135.399L134.999 180.2V181.8C134.599 181.9 134.099 181.8 133.599 181.8C133.499 182 133.499 182.3 133.499 182.5C133.499 184.2 133.499 185.8 133.499 187.5C133.499 187.8 133.599 188 133.699 188.2H135.099C135.099 188.4 135.099 188.6 135.099 188.8C135.099 189 135.099 189.2 135.099 189.4H132.099V188.9C132.099 187.7 132.099 186.5 132.099 185.3C132.099 185.1 132.099 185 131.899 184.8H130.499V183.3H128.399V184.8H127.199L126.999 185V186.5H125.399V188H126.999C127.099 188.9 127.099 189.1 126.899 189.5C125.899 189.3 124.799 189.5 123.799 189.4V183.2H122.499C122.499 182.9 122.499 182.7 122.499 182.4C122.499 182.1 122.499 181.9 122.499 181.6H120.899C120.899 181.1 120.899 180.7 120.899 180.2C120.899 180.1 120.799 179.9 120.799 179.8H119.199V178.3H117.699V176.7C117.199 176.7 116.699 176.7 116.299 176.7C116.099 176.7 115.999 176.7 115.799 176.6L115.699 167.7ZM137.299 159.6C137.299 159 137.299 158.4 137.299 157.9H135.099C135.099 158.2 135.099 158.5 135.099 158.8C135.099 159.1 135.099 159.4 135.099 159.6H137.299V159.6Z" fill="#0A003C"/>
<path d="M151.6 126.3C143.9 122.6 137.8 116.4 134.3 108.7C133.7 107.6 133.4 106.4 133.3 105.1C133.2 103.8 133.8 102.6 134.8 101.8C136 101.2 137.4 101.2 138.5 101.9C139.6 102.6 140.6 103.4 141.5 104.4L152.1 115.7" fill="#EBF5FA"/>
<path d="M151.6 126.3C143.9 122.6 137.8 116.4 134.3 108.7C133.7 107.6 133.4 106.4 133.3 105.1C133.2 103.8 133.8 102.6 134.8 101.8C136 101.2 137.4 101.2 138.5 101.9C139.6 102.6 140.6 103.4 141.5 104.4L152.1 115.7" stroke="#46001E" stroke-width="0.5" stroke-miterlimit="10"/>
<path d="M144.7 129.7C148.6 132.5 154.6 133.6 155.8 131.8C157 130 151.8 127.7 147.8 124.9C143.8 122.1 141.1 119.6 139.8 121.4C138.5 123.2 140.7 126.9 144.7 129.7Z" fill="#0A003C" stroke="#46001E" stroke-width="0.5" stroke-miterlimit="10"/>
<path d="M149.101 127.9C144.801 124 141.501 119 139.601 113.5C138.601 110.9 138.201 108.1 138.601 105.3C139.001 102.5 140.901 100.1 143.501 99.0002C146.801 97.8002 150.401 99.6002 153.001 101.9C159.001 107.6 161.101 116.3 158.401 124.1" fill="#EBF5FA"/>
<path d="M149.101 127.9C144.801 124 141.501 119 139.601 113.5C138.601 110.9 138.201 108.1 138.601 105.3C139.001 102.5 140.901 100.1 143.501 99.0002C146.801 97.8002 150.401 99.6002 153.001 101.9C159.001 107.6 161.101 116.3 158.401 124.1" stroke="#46001E" stroke-width="0.5" stroke-miterlimit="10"/>
<path d="M156.599 120.5C159.399 119 162.799 119.4 165.199 121.5C167.799 123.6 169.099 127.7 168.099 130.8C167.399 132.7 165.899 134.2 163.899 134.9C160.699 136 157.199 135.6 154.399 133.7C151.299 131.6 149.099 128.4 148.199 124.8" fill="#EBF5FA"/>
<path d="M156.599 120.5C159.399 119 162.799 119.4 165.199 121.5C167.799 123.6 169.099 127.7 168.099 130.8C167.399 132.7 165.899 134.2 163.899 134.9C160.699 136 157.199 135.6 154.399 133.7C151.299 131.6 149.099 128.4 148.199 124.8" stroke="#46001E" stroke-width="0.5" stroke-miterlimit="10"/>
<path d="M115.699 189.5H145.599" stroke="#46001E" stroke-width="0.5" stroke-miterlimit="10"/>
<path d="M172.301 145.5C180.101 146.9 186.901 146.6 189.901 141.8L188.701 134.3C185.801 138.7 178.801 138.4 171.101 137.7C170.501 137.6 169.901 138.1 169.801 138.8C169.801 138.9 169.801 139.1 169.801 139.2L171.101 144.5C171.301 145 171.801 145.4 172.301 145.5Z" fill="#007470" stroke="#46001E" stroke-width="0.5" stroke-linecap="round" stroke-linejoin="round"/>
</g>
<defs>
<clipPath id="clip0_2744_13989">
<rect width="247" height="247" fill="white" transform="translate(0.5)"/>
</clipPath>
</defs>
</svg>
