<svg width="247" height="247" viewBox="0 0 247 247" fill="none" xmlns="http://www.w3.org/2000/svg">
<g clip-path="url(#clip0_4059_646)">
<path d="M97.2 85.9002C99.7 82.8002 112.9 75.7002 122.8 69.7002L155.6 158.8L130 157.3L94.1 105.6L92.5 98.5002L93.4 92.8002L95.3 88.4002L97.2 85.9002Z" fill="#0A003C" stroke="#0A003C" stroke-width="0.5" stroke-linecap="round" stroke-linejoin="round"/>
<path d="M166.799 161.4C163.599 163.7 163.199 168.8 165.999 172.7C168.799 176.6 173.699 177.9 176.899 175.5C180.099 173.1 180.499 168.1 177.699 164.2C174.899 160.3 169.999 159.1 166.799 161.4ZM174.299 175.1C172.599 176.4 169.799 175.5 168.099 173.1C166.399 170.7 166.399 167.8 168.199 166.6C169.999 165.4 172.699 166.2 174.399 168.6C176.099 171 176.099 173.9 174.299 175.1Z" fill="#0A003C" stroke="#46001E" stroke-width="0.5" stroke-miterlimit="10"/>
<path d="M174.359 175.089C176.105 173.827 176.157 170.918 174.475 168.59C172.793 166.262 170.015 165.397 168.269 166.659C166.523 167.92 166.471 170.83 168.153 173.158C169.834 175.485 172.613 176.35 174.359 175.089Z" fill="#FFC300" stroke="#46001E" stroke-width="0.5" stroke-linecap="round" stroke-linejoin="round"/>
<path d="M171.044 170.281C171.805 169.731 171.819 168.451 171.076 167.421C170.332 166.392 169.112 166.003 168.351 166.552C167.59 167.102 167.576 168.383 168.32 169.412C169.063 170.442 170.283 170.831 171.044 170.281Z" fill="#EBF5FA"/>
<path d="M138.6 182.9L143.5 191.1" stroke="#46001E" stroke-width="5" stroke-linecap="round" stroke-linejoin="round"/>
<path d="M89.7004 37.0996L135.9 99.0996L110.8 114.1L66.4004 49.3996" stroke="#0A003C" stroke-width="3" stroke-linecap="round" stroke-linejoin="round"/>
<path d="M163.7 176.9L140.3 190.2C131.8 192.7 119.5 190.4 115.6 184.3L76.7005 126.1C71.6005 118.5 72.8005 108.3 79.5005 102.1L97.6005 85.2998C92.0005 91.1998 91.3005 100.2 95.9005 107L140.5 171.9C145.7 179.4 155.9 181.6 163.7 176.9Z" fill="#EEAAA2" stroke="#46001E" stroke-width="0.5" stroke-linecap="round" stroke-linejoin="round"/>
<path d="M163.699 176.9C156.099 181.6 143.999 180.8 138.799 173.1C122.199 152.7 107.299 131 94.1994 108.2C89.5994 101.5 92.0994 91.7004 97.1994 85.9004C91.9994 91.8004 91.4994 100.5 95.9994 107C112.899 127.1 127.799 148.9 140.599 171.9C145.699 179.4 155.899 181.6 163.699 176.9Z" fill="#0A003C" stroke="#0A003C" stroke-width="0.5" stroke-linecap="round" stroke-linejoin="round"/>
<path d="M92.0008 124C93.8008 128 95.6008 131.9 97.6008 135.7L99.1008 138.5C99.6008 139.4 100.101 140.4 100.701 141.3C101.801 143.1 102.901 144.9 104.201 146.7C106.601 150.2 109.201 153.6 112.001 156.8C114.801 160.1 117.801 163.2 120.801 166.4C121.201 166.8 121.201 167.4 120.801 167.8C120.501 168.1 120.001 168.2 119.601 167.9C115.701 165.6 112.201 162.9 108.901 159.8C105.601 156.7 102.701 153.3 100.101 149.6C98.8008 147.7 97.6008 145.8 96.5008 143.8C95.4008 141.8 94.4008 139.8 93.5008 137.7C91.7008 133.6 90.5008 129.2 89.7008 124.8C89.6008 124.2 90.0008 123.6 90.7008 123.5C91.3008 123.3 91.8008 123.6 92.0008 124Z" fill="#0A003C"/>
<path d="M143.799 192L143.699 192.1C143.199 192.4 142.399 192 141.899 191.3C141.399 190.6 141.499 189.7 141.999 189.3C142.099 189.2 142.299 189.2 142.399 189.2C141.999 189.8 141.999 190.5 142.399 191.1C142.699 191.6 143.199 192 143.799 192Z" fill="#0A003C"/>
<path d="M143.8 192C143.2 191.9 142.7 191.6 142.4 191.1C142 190.6 142 189.8 142.4 189.2C143 189.3 143.5 189.6 143.8 190.1C144.2 190.7 144.2 191.5 143.8 192Z" fill="#EBF5FA"/>
<path d="M80.1 95.6999C74.6 97.5999 68.6 98.5999 63.4 101.3C58.2 104 53.7 109.3 54.3 115.1C54.8 120.2 59 124.1 63.6 126.3C68.2 128.5 73.3 129.3 78.1 131C81.1 132.1 84.2 133.6 85.8 136.4C87.5 139.3 87.3 143.3 89.7 145.7C91.9 147.9 95.4 148.1 98.4 147.6C103.6 146.7 108.4 144.4 112.3 140.8C115.1 138.3 117.3 135.2 119.8 132.4C122.3 129.6 125.3 127.1 129 126.1C131.6 125.4 134.5 125.4 136.5 123.6C137.8 122.3 138.6 120.4 138.5 118.5C138.4 116.6 138 114.8 137.3 113.1C135.3 107.3 132.2 102 128 97.4999C123.8 92.9999 118.2 90.0999 112.1 89.1999C108.8 88.7999 105.4 89.0999 102.1 88.7999C99.8 88.5999 97.6 87.8999 95.7 86.6999C95.1 86.2999 94 84.7999 93.2 85.0999C92.6 85.2999 91.9 87.2999 91.5 87.8999C88.9 91.6999 84.5 94.0999 80.1 95.6999Z" fill="#007470" stroke="#46001E" stroke-width="0.5" stroke-linecap="round" stroke-linejoin="round"/>
<path d="M106.701 147.3C94.0008 163.9 94.5008 161.5 90.4008 184C82.9008 183 75.7008 183.6 68.3008 181.9C75.5008 149.9 84.0008 137.8 105.401 115.1C105.601 115.6 120.101 112.9 120.301 113.4C121.001 115.5 122.401 121.4 123.101 123.5C123.601 125.2 124.301 126.9 125.001 128.6C125.801 130.5 110.801 142.7 106.601 147.2C106.701 147.2 106.701 147.2 106.701 147.3Z" fill="#007470" stroke="#46001E" stroke-width="0.5" stroke-linecap="round" stroke-linejoin="round"/>
<path d="M90.2638 184.694C90.5667 181.506 85.865 178.451 79.7622 177.871C73.6594 177.291 68.4666 179.406 68.1637 182.595C67.8608 185.784 72.5625 188.839 78.6653 189.419C84.7681 189.998 89.9609 187.883 90.2638 184.694Z" fill="#0A003C" stroke="#46001E" stroke-width="0.5" stroke-miterlimit="10"/>
<path d="M74 169.9C76.3 169.3 78.6 169 81 169.3C84 169.5 86.8 170.5 89.3 172.2" stroke="#46001E" stroke-width="0.5" stroke-miterlimit="10"/>
<path d="M89.3001 176.5L88.9001 177.1C88.6001 177.5 87.8001 177.6 87.2001 177.1C86.6001 176.6 86.3001 176 86.6001 175.5L87.0001 174.9L87.4001 175.2C87.7001 175.2 88.0001 175.3 88.3001 175.5C88.6001 175.7 88.8001 175.9 88.9001 176.2L89.3001 176.5Z" fill="#FFC300" stroke="#46001E" stroke-width="0.5" stroke-linecap="round" stroke-linejoin="round"/>
<path d="M89.2875 176.552C89.5934 176.092 89.3196 175.373 88.6758 174.944C88.032 174.516 87.2622 174.542 86.9562 175.001C86.6503 175.461 86.9242 176.181 87.568 176.609C88.2118 177.038 88.9816 177.012 89.2875 176.552Z" fill="#FFC300" stroke="#46001E" stroke-width="0.5" stroke-linecap="round" stroke-linejoin="round"/>
<path d="M91.4993 108.2C89.3993 107.6 86.6993 106.8 86.2993 104.7C85.9993 103.3 86.8993 101.9 87.6993 100.6C90.6993 95.7998 100.299 89.8998 93.1993 85.0998C94.5993 83.7998 95.9993 83.9998 97.5993 83.6998L108.999 81.6998C110.499 81.3998 112.199 81.1998 113.599 81.8998C115.599 82.9998 116.099 85.4998 116.399 87.7998L118.199 101.6C118.599 104.6 118.899 107.9 117.499 110.6C116.099 113 113.799 114.7 111.099 115.3C108.299 116.1 104.399 116.8 101.899 115C98.3993 112.2 95.7993 109.5 91.4993 108.2Z" fill="#007470" stroke="#46001E" stroke-width="0.5" stroke-linecap="round" stroke-linejoin="round"/>
<path d="M120.299 168.2C119.799 168.5 119.199 168.5 118.699 168.4C118.299 168.2 117.899 168 117.599 167.7C116.499 166.8 115.699 165.6 115.299 164.3C115.299 164.2 115.199 164.1 115.199 164C115.199 163.8 115.399 163.7 115.599 163.6C116.099 163.3 116.699 163.3 117.199 163.7C117.899 164.2 118.599 164.7 119.299 165.3C119.799 165.8 120.399 166.3 120.899 166.8C121.199 167 121.199 167.2 120.999 167.5C120.799 167.8 120.599 168 120.299 168.2Z" fill="#0A003C"/>
<path d="M119.17 167.591C119.555 167.557 119.836 167.173 119.797 166.732C119.758 166.292 119.414 165.963 119.029 165.997C118.644 166.031 118.364 166.415 118.402 166.855C118.441 167.296 118.785 167.625 119.17 167.591Z" fill="#EBF5FA" stroke="#46001E" stroke-width="0.5" stroke-miterlimit="10"/>
<path d="M66.5377 49.6582C67.1255 49.2459 67.3964 48.6185 67.1427 48.2568C66.889 47.895 66.2068 47.936 65.619 48.3483C65.0312 48.7605 64.7603 49.388 65.014 49.7497C65.2677 50.1114 65.9499 50.0704 66.5377 49.6582Z" fill="#EBF5FA" stroke="#0A003C" stroke-width="0.5" stroke-miterlimit="10"/>
<path d="M90.2699 38.8376C90.8579 38.4256 91.1289 37.7982 90.8754 37.4364C90.6218 37.0746 89.9396 37.1153 89.3517 37.5274C88.7637 37.9394 88.4927 38.5667 88.7462 38.9286C88.9998 39.2904 89.682 39.2496 90.2699 38.8376Z" fill="#EBF5FA" stroke="#0A003C" stroke-width="0.5001" stroke-miterlimit="10.0012"/>
<path d="M182.099 63.8002L166.199 57.7002C153.099 50.2002 160.799 30.1002 175.499 33.2002L176.499 33.6002C179.599 36.3002 179.999 41.0002 177.299 44.1002C175.799 45.8002 173.699 46.7002 171.499 46.7002L175.999 48.4002C174.099 54.4002 176.699 60.9002 182.099 63.8002Z" fill="#EBF5FA" stroke="#46001E" stroke-width="0.5" stroke-miterlimit="10"/>
<path d="M182.099 63.8002L166.199 57.7002C153.099 50.2002 160.799 30.1002 175.499 33.2002L176.499 33.6002C179.599 36.3002 179.999 41.0002 177.299 44.1002C175.799 45.8002 173.699 46.7002 171.499 46.7002L175.999 48.4002C174.099 54.4002 176.699 60.9002 182.099 63.8002Z" fill="#007470" stroke="#46001E" stroke-width="0.5" stroke-linecap="round" stroke-linejoin="round"/>
<path d="M187.5 52.9002L171.6 46.8002C175.7 46.9002 179.1 43.6002 179.2 39.5002C179.2 37.3002 178.3 35.1002 176.6 33.7002L192.5 39.8002C195.6 42.5002 196 47.2002 193.3 50.3002C191.8 52.0002 189.7 52.9002 187.5 52.9002Z" fill="#EBF5FA" stroke="#46001E" stroke-width="0.5" stroke-miterlimit="10"/>
<path d="M94.5008 149.5C95.3008 149.1 96.3008 148.9 97.2008 148.9C97.1008 149.4 97.2008 149.9 97.4008 150.4L119.001 202.9C119.101 203.2 119.301 203.5 119.601 203.8C119.201 205 117.901 205.7 116.701 205.4C114.801 205.1 113.701 203 112.801 201.3C110.001 195.8 105.601 191.2 100.301 188C98.1008 186.7 95.5008 185.3 95.0008 182.8C94.6008 180.5 96.5008 178.4 96.5008 176.1C96.6008 168.4 90.8008 162.7 89.4008 161.3C85.1008 157.2 77.8008 156.3 94.5008 149.5Z" fill="#EBF5FA" stroke="#46001E" stroke-width="0.5" stroke-miterlimit="10"/>
<path d="M98.9994 146.6C100.499 146 102.099 146.7 102.699 148.2L124.299 200.7C124.899 202.2 124.199 203.8 122.799 204.4C121.699 204.9 120.399 204.6 119.599 203.7C119.399 203.4 119.199 203.2 118.999 202.8L97.3994 150.3C97.1994 149.8 97.0994 149.3 97.1994 148.8C97.1994 148.5 97.2994 148.3 97.3994 148.1C97.6994 147.4 98.1994 146.9 98.9994 146.6Z" fill="#EBF5FA" stroke="#46001E" stroke-width="0.5" stroke-miterlimit="10"/>
<path d="M82.6008 100.9C75.3008 100.3 66.8008 104.7 61.8008 110.6L82.6008 100.9Z" fill="#007470"/>
<path d="M82.6008 100.9C75.3008 100.3 66.8008 104.7 61.8008 110.6" stroke="#46001E" stroke-width="0.5" stroke-linecap="round" stroke-linejoin="round"/>
<path d="M42.7 171C41.8 170.6 41.1 170 40.5 169.3C40.9 169 41.3 168.7 41.5 168.2L68.7 118.3C68.9 118 69 117.7 69 117.3C70.2 116.9 71.5 117.4 72 118.6C73 120.3 72.1 122.4 71.3 124.2C68.8 129.9 68 136.2 68.9 142.3C69.3 144.8 69.9 147.7 68.2 149.7C66.7 151.5 63.8 151.3 62 152.8C56 157.5 55.2 165.7 55 167.7C54.7 173.4 58.6 179.7 42.7 171Z" fill="#EBF5FA" stroke="#46001E" stroke-width="0.5" stroke-miterlimit="10"/>
<path d="M37.7006 169.4C36.3006 168.6 35.8005 166.9 36.6005 165.5L63.8005 115.6C64.5005 114.2 66.3005 113.7 67.7005 114.4C68.7005 115 69.3005 116.1 69.2005 117.3C69.2005 117.6 69.0005 118 68.9006 118.3L41.7006 168.2C41.5006 168.6 41.1006 169 40.7006 169.3C40.5006 169.4 40.3005 169.5 40.0005 169.6C39.2005 169.8 38.4006 169.7 37.7006 169.4Z" fill="#EBF5FA" stroke="#46001E" stroke-width="0.5" stroke-miterlimit="10"/>
<path d="M66.9012 147.2C67.2878 147.2 67.6012 146.886 67.6012 146.5C67.6012 146.113 67.2878 145.8 66.9012 145.8C66.5146 145.8 66.2012 146.113 66.2012 146.5C66.2012 146.886 66.5146 147.2 66.9012 147.2Z" fill="#46001E"/>
<path d="M66.6004 141.3C66.987 141.3 67.3004 140.987 67.3004 140.6C67.3004 140.214 66.987 139.9 66.6004 139.9C66.2138 139.9 65.9004 140.214 65.9004 140.6C65.9004 140.987 66.2138 141.3 66.6004 141.3Z" fill="#46001E"/>
<path d="M66.7 134.6C67.0866 134.6 67.4 134.287 67.4 133.9C67.4 133.514 67.0866 133.2 66.7 133.2C66.3134 133.2 66 133.514 66 133.9C66 134.287 66.3134 134.6 66.7 134.6Z" fill="#46001E"/>
<path d="M123.299 111.9C112.999 109.4 104.899 109.7 100.699 115.2C97.9992 118.7 95.9992 123.3 94.1992 127.9C92.6992 132.1 90.8992 136.1 88.9992 140.1C86.5992 144.7 83.5992 148.5 79.0992 150.4C77.3992 151.1 75.5992 151.5 73.7992 151.7C69.2992 152 63.6992 148.5 60.9992 144.9C60.9992 144.9 60.9992 144.8 60.8992 144.8C60.4992 144.3 60.5992 143.6 61.0992 143.2C61.1992 143.1 61.3992 143 61.4992 143C61.5992 143 61.7992 143 61.8992 143C67.7992 143.9 72.0992 142.7 75.4992 140.2C77.2992 138.9 78.7992 137.2 80.0992 135.4C82.5992 131.8 84.4992 127.4 86.2992 122.8C87.7992 119 89.1992 115.1 90.9992 111.6C93.0992 107.4 95.6992 103.8 99.3992 101.6C103.199 99.2999 108.099 98.5999 114.699 100.2L123.299 111.9Z" fill="#0A003C" stroke="#46001E" stroke-width="0.5" stroke-miterlimit="10"/>
<path d="M103.799 126.4L121.799 115.6L125.899 121.4L109.599 133.8L103.799 126.4Z" fill="#FFC300" stroke="#46001E" stroke-width="0.5" stroke-linecap="round" stroke-linejoin="round"/>
<path d="M109.635 133.767C110.934 132.738 110.679 130.254 109.067 128.22C107.455 126.185 105.095 125.37 103.797 126.399C102.498 127.428 102.752 129.912 104.364 131.947C105.977 133.981 108.336 134.796 109.635 133.767Z" fill="#FFC300" stroke="#46001E" stroke-width="0.5" stroke-linecap="round" stroke-linejoin="round"/>
<path d="M107.132 132.193C107.651 131.781 107.572 130.816 106.954 130.036C106.337 129.257 105.415 128.959 104.896 129.371C104.376 129.783 104.456 130.748 105.073 131.527C105.691 132.306 106.612 132.604 107.132 132.193Z" fill="#FFC300" stroke="#46001E" stroke-width="0.5" stroke-linecap="round" stroke-linejoin="round"/>
<path d="M105.832 133.248C106.265 132.905 106.171 132.066 105.622 131.373C105.073 130.681 104.277 130.397 103.844 130.74C103.411 131.083 103.505 131.923 104.054 132.615C104.603 133.308 105.399 133.591 105.832 133.248Z" fill="#FFC300" stroke="#46001E" stroke-width="0.44" stroke-linecap="round" stroke-linejoin="round"/>
<path d="M106.399 139.7C108.299 139.6 109.899 140.7 109.999 142.1L109.899 142.8L109.399 145.7L103.999 145.9L103.299 143L103.099 142.3C102.899 140.9 104.499 139.8 106.399 139.7Z" fill="#FFC300" stroke="#46001E" stroke-width="0.5" stroke-linecap="round" stroke-linejoin="round"/>
<path d="M106.655 147.7C108.146 147.657 109.33 146.772 109.3 145.723C109.27 144.675 108.037 143.859 106.547 143.901C105.056 143.944 103.872 144.829 103.902 145.878C103.932 146.927 105.165 147.742 106.655 147.7Z" fill="#FFC300" stroke="#46001E" stroke-width="0.5" stroke-linecap="round" stroke-linejoin="round"/>
<path d="M104.999 144.299L104.199 140.399" stroke="#46001E" stroke-width="0.5" stroke-linecap="round" stroke-linejoin="round"/>
<path d="M155.6 179C148.8 179.9 142.9 177 138 170.7C135.9 167.9 134.4 164.4 132.7 161.3C129.9 156.2 127.3 151 125 145.7C125 145.7 125 145.6 124.9 145.6C124.1 143.7 123.2 141.8 122.5 139.8C121.2 136.6 120.1 133.4 119 130.3C118.3 128.2 117.6 126 116.9 123.9C116.7 123.4 116.6 122.9 116.4 122.3C115.8 120.2 115.2 118.1 114.6 116C112.1 106.8 110.2 97.8998 108.1 88.7998C107.5 79.9998 110.5 73.3998 118.1 68.5998C118.3 68.4998 118.6 68.2998 118.9 68.1998C119.3 67.9998 120.4 67.5998 120.9 67.3998C121.1 67.2998 121.2 67.2998 121.4 67.1998C122.2 66.9998 123 66.7998 123.8 66.5998C134.3 65.1998 148 62.6998 157.8 61.7998C158 61.7998 158.2 61.7998 158.4 61.7998C148.6 62.7998 135.4 65.0998 125.2 66.5998C124.4 66.7998 123.6 66.8998 122.8 67.1998C122.6 67.2998 122.4 67.2998 122.3 67.3998C121.7 67.5998 120.7 67.9998 120.3 68.1998C120 68.2998 119.8 68.3998 119.5 68.5998C111.9 73.3998 108.9 79.8998 109.5 88.7998C111.6 97.9998 113.6 106.9 116 116C116.6 118.1 117.1 120.2 117.8 122.3C118 122.8 118.1 123.3 118.3 123.9C119 126 119.7 128.2 120.4 130.3C121.5 133.4 122.6 136.6 123.9 139.8C124.7 141.7 125.5 143.6 126.4 145.6C126.4 145.6 126.4 145.7 126.5 145.7C128.8 151 131.4 156.2 134.2 161.3C136 164.4 137.4 167.9 139.5 170.7C143.9 176.4 149.4 179.4 155.6 179Z" fill="#007470" stroke="#46001E" stroke-width="0.5" stroke-linecap="round" stroke-linejoin="round"/>
<path d="M190.499 152.3C182.899 159.8 172.799 167.6 164.899 175.1C164.199 175.9 163.299 176.5 162.299 177C160.199 178 157.899 178.7 155.599 179C149.399 179.4 143.899 176.5 139.299 170.5C137.199 167.7 135.699 164.2 133.999 161.1C131.199 156 128.599 150.8 126.299 145.5C126.299 145.5 126.299 145.4 126.199 145.4C125.399 143.5 124.499 141.6 123.699 139.6C122.399 136.4 121.299 133.2 120.199 130.1C119.499 128 118.799 125.8 118.099 123.7C117.899 123.2 117.799 122.7 117.599 122.1C116.999 120 116.399 117.9 115.799 115.8C113.299 106.6 111.399 97.7001 109.299 88.6001C108.699 79.8001 111.699 73.2001 119.299 68.4001C119.499 68.3001 119.799 68.1001 120.099 68.0001C120.499 67.8001 121.599 67.4001 122.099 67.2001C122.299 67.1001 122.399 67.1001 122.599 67.0001C123.399 66.8001 124.199 66.6001 124.999 66.4001C135.199 65.0001 148.499 62.6001 158.199 61.6001C167.999 60.9001 170.399 66.3001 174.299 73.6001C179.799 91.7001 186.099 112.9 193.099 129.7C197.499 140.3 198.099 144.8 190.499 152.3Z" fill="#FFC300" stroke="#46001E" stroke-width="0.5" stroke-linecap="round" stroke-linejoin="round"/>
<path d="M191.799 152.2C184.199 159.7 174.099 167.5 166.199 175C165.499 175.8 164.599 176.4 163.599 176.9C161.099 178.1 158.299 178.8 155.499 179C149.299 179.4 143.799 176.5 139.199 170.5C137.099 167.7 135.599 164.2 133.899 161.1C131.099 156 128.499 150.8 126.199 145.5C126.199 145.5 126.199 145.4 126.099 145.4C125.299 143.5 124.399 141.6 123.599 139.6C122.299 136.4 121.199 133.2 120.099 130.1C119.399 128 118.699 125.8 117.999 123.7C117.799 123.2 117.699 122.7 117.499 122.1C116.899 120 116.299 117.9 115.699 115.8C113.199 106.6 111.299 97.7003 109.199 88.6003C108.599 79.8003 111.599 73.2003 119.199 68.4003C119.399 68.3003 119.699 68.1003 119.999 68.0003C120.399 67.8003 121.499 67.4003 121.999 67.2003C122.199 67.1003 122.299 67.1003 122.499 67.0003C123.299 66.8003 124.099 66.6003 124.899 66.4003C135.099 65.0003 148.399 62.6003 158.099 61.6003C158.299 61.6003 158.599 61.5003 158.799 61.5003C169.099 60.5003 171.499 66.0003 175.499 73.5003C180.999 91.6003 187.299 112.8 194.299 129.6C198.799 140.2 199.399 144.7 191.799 152.2Z" fill="#FFC300" stroke="#46001E" stroke-width="0.5" stroke-linecap="round" stroke-linejoin="round"/>
<path d="M126.199 104.2C124.899 98.2004 121.899 87.9004 124.599 82.4004C126.899 77.6004 146.499 72.4004 159.099 72.4004C164.399 72.4004 170.199 87.2004 173.199 91.6004C176.099 95.9004 156.499 94.9004 157.199 100C158.399 107.2 159.099 114.4 159.299 121.7C159.499 129 158.299 136.3 155.599 143.1C155.199 144.4 154.399 145.4 153.299 146.1C152.099 146.5 150.699 146.6 149.499 146.1C145.899 145.3 142.199 144.8 138.699 143.7C136.099 142.9 135.699 141.2 134.999 138.7C132.899 131.3 130.899 123.9 129.099 116.5C128.099 112.5 127.199 108.3 126.199 104.2Z" fill="#0A003C" stroke="#0A003C" stroke-width="0.5" stroke-linecap="round" stroke-linejoin="round"/>
<path d="M149.899 145.2C150.499 145.3 151.099 145.4 151.699 145.5C150.599 145.7 149.499 145.6 148.399 145.3C144.799 144.5 141.099 144 137.599 142.9C134.899 142.1 134.599 140.4 133.899 137.9C131.799 130.5 129.799 123.2 127.999 115.7C126.999 111.6 126.199 107.4 125.199 103.3C123.899 97.3002 120.699 86.9002 123.599 81.5002C125.999 77.2002 141.999 72.5002 154.399 71.7002C142.299 72.9002 127.299 77.6002 124.699 81.9002C121.599 87.2002 125.299 97.2002 126.599 103.2C127.599 107.3 128.499 111.5 129.399 115.6C131.199 123 133.199 130.4 135.299 137.8C135.999 140.3 136.399 142 138.999 142.8C142.499 143.9 146.299 144.4 149.899 145.2Z" fill="#007470" stroke="#46001E" stroke-width="0.5" stroke-linecap="round" stroke-linejoin="round"/>
<path d="M121.901 103.1C128.501 102.4 135.001 106.3 141.601 99.5999C139.001 91.9999 136.501 82.7999 134.001 72.8999C127.401 73.5999 120.901 69.6999 114.301 76.3999C116.801 83.9999 119.401 93.1999 121.901 103.1Z" fill="#EBF5FA"/>
<path d="M121.901 103.1C128.501 102.4 135.001 106.3 141.601 99.5999C139.001 91.9999 136.501 82.7999 134.001 72.8999C127.401 73.5999 120.901 69.6999 114.301 76.3999C116.801 83.9999 119.401 93.1999 121.901 103.1Z" stroke="#46001E" stroke-width="0.5" stroke-miterlimit="10"/>
<path d="M149.401 68.3998C149.001 68.4998 148.401 68.5998 148.101 68.5998C147.901 68.5998 147.601 68.6998 147.401 68.7998C140.301 71.5998 136.801 75.7998 134.501 83.0998C127.601 101.9 130.701 124.3 132.201 131C132.601 132.7 136.101 144.8 138.101 149.4C139.301 152.3 140.701 155.2 142.301 157.9C146.101 163.5 150.401 166.8 156.001 166.6C149.601 167.5 144.901 164.2 140.701 158C139.101 155.3 137.601 152.5 136.501 149.5C134.501 144.9 131.001 132.8 130.601 131.1C129.101 124.4 126.001 102 132.901 83.1998C135.201 75.9998 138.701 71.7998 145.801 68.8998C146.001 68.7998 146.301 68.7998 146.501 68.6998C146.801 68.5998 147.901 68.4998 148.201 68.3998C148.401 68.3998 148.501 68.3998 148.701 68.2998C149.001 68.3998 149.201 68.3998 149.401 68.3998Z" fill="#007470" stroke="#46001E" stroke-width="0.5" stroke-linecap="round" stroke-linejoin="round"/>
<path d="M187.901 130.7C190.701 139 190.801 141.9 184.601 147.7C178.401 153.5 170.801 161.9 161.401 165.4C153.001 168.5 147.201 165.2 142.201 157.8C140.601 155.1 139.101 152.3 138.001 149.3C136.001 144.7 132.501 132.6 132.101 130.9C130.601 124.2 127.501 101.8 134.401 83.0001C136.701 75.8001 140.201 71.6001 147.301 68.7001C147.501 68.6001 147.801 68.6001 148.001 68.5001C148.301 68.4001 149.401 68.3001 149.701 68.2001C149.901 68.2001 150.001 68.2001 150.201 68.1001C150.901 68.1001 151.601 68.0001 152.301 68.1001C160.801 68.7001 171.301 68.7001 179.001 71.2001C187.001 73.8001 189.301 77.1001 187.901 84.9001C186.201 99.5001 183.401 117.1 187.901 130.7Z" fill="#FFC300" stroke="#46001E" stroke-width="0.5" stroke-linecap="round" stroke-linejoin="round"/>
<path d="M128.599 112.2H128.799C129.499 112.1 130.099 112.6 130.199 113.3L130.599 116.5C130.699 117.2 130.199 117.8 129.499 117.9H129.299C128.599 118 127.999 117.5 127.899 116.8L127.499 113.6C127.399 113 127.899 112.3 128.599 112.2Z" fill="#007470" stroke="#46001E" stroke-width="0.5" stroke-linecap="round" stroke-linejoin="round"/>
<path d="M127.9 114.9L128.6 114.8C129.5 114.7 130.4 115.3 130.5 116.3L130.9 119.9C131 120.8 130.4 121.7 129.4 121.8L128.7 121.9C127.8 122 126.9 121.4 126.8 120.4L126.4 116.8C126.3 115.9 127 115.1 127.9 114.9Z" fill="#007470" stroke="#46001E" stroke-width="0.5" stroke-linecap="round" stroke-linejoin="round"/>
<path d="M127.599 112.4H127.799C128.499 112.3 129.099 112.8 129.199 113.5L129.599 116.7C129.699 117.4 129.199 118 128.499 118.1H128.299C127.599 118.2 126.999 117.7 126.899 117L126.499 113.8C126.399 113.1 126.899 112.5 127.599 112.4Z" fill="#007470" stroke="#46001E" stroke-width="0.5" stroke-linecap="round" stroke-linejoin="round"/>
<path d="M110.801 74.2998L111.501 74.5998C112.301 74.9998 112.701 75.9998 112.301 76.8998L110.801 80.1998C110.401 80.9998 109.401 81.3998 108.501 80.9998L107.801 80.6998C107.001 80.2998 106.601 79.2998 107.001 78.3998L108.501 75.0998C108.901 74.1998 109.901 73.8998 110.801 74.2998Z" fill="#007470" stroke="#46001E" stroke-width="0.5" stroke-linecap="round" stroke-linejoin="round"/>
<path d="M111 75.5999L110.9 75.7999C110.7 76.4999 110 76.8999 109.3 76.6999L106.2 75.8999C105.5 75.6999 105.1 74.9999 105.3 74.2999L105.4 74.0999C105.6 73.3999 106.3 72.9999 107 73.1999L110.1 73.9999C110.8 74.2999 111.2 74.9999 111 75.5999Z" fill="#007470" stroke="#46001E" stroke-width="0.5" stroke-linecap="round" stroke-linejoin="round"/>
<path d="M98.8992 185C99.2858 185 99.5992 184.686 99.5992 184.3C99.5992 183.913 99.2858 183.6 98.8992 183.6C98.5126 183.6 98.1992 183.913 98.1992 184.3C98.1992 184.686 98.5126 185 98.8992 185Z" fill="#46001E"/>
<path d="M103.1 188C103.487 188 103.8 187.686 103.8 187.3C103.8 186.913 103.487 186.6 103.1 186.6C102.714 186.6 102.4 186.913 102.4 187.3C102.4 187.686 102.714 188 103.1 188Z" fill="#46001E"/>
<path d="M107.3 191.7C107.686 191.7 108 191.386 108 191C108 190.613 107.686 190.3 107.3 190.3C106.913 190.3 106.6 190.613 106.6 191C106.6 191.386 106.913 191.7 107.3 191.7Z" fill="#46001E"/>
<path d="M148.199 110.1L181.299 102.3" stroke="#46001E" stroke-width="0.5" stroke-miterlimit="10"/>
<path d="M157.9 113.2L181.3 102.3" stroke="#46001E" stroke-width="0.5" stroke-miterlimit="10"/>
<path d="M159.299 95.7002L183.199 79.7002C180.299 97.2002 191.499 113.9 208.699 117.9L184.799 133.9C167.499 129.9 156.399 113.2 159.299 95.7002Z" fill="#EBF5FA" stroke="#46001E" stroke-width="0.5" stroke-miterlimit="10"/>
<path d="M156.8 151.3L138.1 146.2C143.7 156.7 140.1 169.8 129.9 176L148.6 181.1C158.8 174.9 162.4 161.8 156.8 151.3Z" fill="#007470" stroke="#46001E" stroke-width="0.5" stroke-linecap="round" stroke-linejoin="round"/>
<path d="M169 211.3C168.5 219.6 173.7 226.7 180.6 227.2C187.5 227.7 193.5 221.2 194 212.8C194.5 204.4 189.3 197.4 182.4 196.9C175.5 196.4 169.4 202.9 169 211.3Z" fill="#0A003C" stroke="#46001E" stroke-width="0.5" stroke-miterlimit="10"/>
<path d="M177.591 221.684C181.341 221.48 184.16 217.246 183.887 212.228C183.613 207.21 180.352 203.307 176.602 203.511C172.852 203.715 170.034 207.949 170.307 212.967C170.58 217.985 173.841 221.888 177.591 221.684Z" fill="#FFC300" stroke="#46001E" stroke-width="0.5" stroke-linecap="round" stroke-linejoin="round"/>
<path d="M178.355 216.577C180.005 216.429 181.184 214.526 180.987 212.325C180.79 210.125 179.293 208.461 177.642 208.609C175.992 208.756 174.814 210.66 175.011 212.86C175.208 215.06 176.705 216.724 178.355 216.577Z" fill="#EBF5FA" stroke="#46001E" stroke-width="0.5" stroke-miterlimit="10"/>
<path d="M156.601 203.6C156.401 204 156.201 204.3 155.901 204.6C155.301 205.2 154.501 205.3 153.801 205C153.001 204.5 152.701 203.5 153.001 202.7C153.301 201.9 153.901 201.1 154.601 200.6C158.901 197.2 164.601 196.3 169.701 198.3" stroke="#46001E" stroke-width="0.5" stroke-linecap="round" stroke-linejoin="round"/>
<path d="M149.801 191.6C151.901 192.6 153.701 194.2 154.801 196.2" stroke="#46001E" stroke-width="0.5" stroke-linecap="round" stroke-linejoin="round"/>
<path d="M92.2996 39.9003C90.5996 41.0003 88.5996 41.0003 88.0996 40.4003L87.5996 39.7003C87.5996 39.4003 87.4996 39.1003 87.2996 38.8003C86.6996 37.8003 85.4996 37.2003 84.2996 37.4003C82.9996 37.5003 81.7996 38.4003 81.3996 39.7003C81.2996 40.1003 80.8996 40.2003 80.4996 40.1003C80.4996 40.1003 80.4996 40.1003 80.3996 40.1003C79.5996 39.7003 78.6996 39.6003 77.7996 39.9003C76.7996 40.2003 75.8996 40.9003 75.5996 41.9003C75.4996 42.3003 74.9996 42.5003 74.6996 42.3003C73.8996 41.9003 73.0996 41.9003 72.2996 42.1003C70.7996 42.5003 69.5996 43.7003 69.2996 45.3003C69.0996 45.9003 69.1996 46.6003 69.5996 47.1003L70.0996 47.7003H69.9996C70.4996 48.3003 69.5996 49.8003 67.9996 51.1003C66.3996 52.4003 64.7996 52.9003 64.2996 52.3003L64.1996 52.2003L63.6996 51.6003C61.8996 49.3003 61.2996 46.2003 62.0996 43.3003C62.8996 40.4003 64.9996 38.1003 67.7996 37.1003L82.5996 32.2003C86.4996 30.7003 90.7996 32.0003 93.3996 35.2003L93.8996 35.8003C93.8996 35.8003 94.5996 36.8003 94.5996 36.9003C94.7996 37.5003 93.8996 38.9003 92.2996 39.9003Z" fill="#FFC300" stroke="#46001E" stroke-width="0.5" stroke-linecap="round" stroke-linejoin="round"/>
<path d="M93.7988 35.8999C93.7988 35.8999 93.7988 35.7999 93.7988 35.8999V35.8999Z" fill="#FFC300" stroke="#46001E" stroke-width="0.5" stroke-linecap="round" stroke-linejoin="round"/>
<path d="M55.5614 72.41C57.1203 71.5775 57.1397 68.5724 55.6046 65.6981C54.0695 62.8238 51.5614 61.1687 50.0024 62.0013C48.4435 62.8338 48.4241 65.8389 49.9592 68.7132C51.4942 71.5875 54.0024 73.2426 55.5614 72.41Z" fill="#EEAAA2" stroke="#46001E" stroke-width="0.5" stroke-linecap="round" stroke-linejoin="round"/>
<path d="M54 72.1C54.3 81.8 67.7 78 70.4 85C70.8 86.2 72.8 85.8 73.7 84.9L73.9 84.6C74.2 84.3 73.9 83.8 73.9 83.3C73.2 73.3 56.7 79.7 56.8 69C55.8 69.9 54.9 71.2 54 72.1Z" fill="#EEAAA2" stroke="#46001E" stroke-width="0.5" stroke-linecap="round" stroke-linejoin="round"/>
<path d="M54.9986 71.1996C54.8986 81.1996 68.3986 76.9996 70.9986 84.2996C71.2986 85.1996 72.1986 85.5996 73.0986 85.2996C73.2986 85.1996 73.4986 85.0996 73.6986 84.8996C74.0986 84.5996 74.1986 84.0996 74.1986 83.5996C73.4986 73.6996 57.6986 78.7996 57.7986 68.0996C56.8986 68.9996 55.8986 70.2996 54.9986 71.1996Z" fill="#EEAAA2" stroke="#46001E" stroke-width="0.5" stroke-linecap="round" stroke-linejoin="round"/>
<path d="M50.6994 61.9996C47.1994 52.5996 36.0994 61.2996 31.0994 55.4996C30.2994 54.5996 29.9994 54.1996 29.6994 54.0996L29.3994 54.2996C28.5994 55.0996 28.2994 56.1996 28.3994 57.3996C32.5994 66.3996 45.4994 55.9996 49.2994 66.0996C49.6994 64.7996 50.0994 63.1996 50.6994 61.9996Z" fill="#EEAAA2" stroke="#46001E" stroke-width="0.5" stroke-linecap="round" stroke-linejoin="round"/>
<path d="M52.3001 70.1003C52.2001 70.2003 52.1001 70.3003 51.9001 70.4003C51.9001 70.5003 52.0001 70.6003 51.9001 70.7003C51.8001 71.0003 51.4001 71.1003 51.0001 70.9003C50.6001 70.7003 50.4001 70.4003 50.5001 70.1003C50.6001 70.0003 50.7001 69.9003 50.9001 69.8003C50.9001 69.7003 50.8001 69.6003 50.9001 69.5003C51.1001 69.2003 51.5001 69.1003 51.8001 69.3003C52.2001 69.5003 52.4001 69.8003 52.3001 70.1003Z" fill="#EEAAA2" stroke="#46001E" stroke-width="0.5" stroke-linecap="round" stroke-linejoin="round"/>
<path d="M51.3 60.8C47.8 51.5 36.8 59.9 31.7 54.3C31.1 53.6 30 53.5 29.3 54.1C29.1 54.3 29 54.5 28.9 54.7C28.7 55.2 28.7 55.7 28.9 56.1C33.1 65.1 46 54.7 49.8 64.8C50.4 63.6 50.8 62 51.3 60.8Z" fill="#EEAAA2" stroke="#46001E" stroke-width="0.5" stroke-linecap="round" stroke-linejoin="round"/>
<path d="M56.9696 71.4237C58.5285 70.5911 58.5479 67.5861 57.0128 64.7118C55.4778 61.8375 52.9696 60.1824 51.4106 61.0149C49.8517 61.8475 49.8323 64.8525 51.3674 67.7268C52.9024 70.6012 55.4106 72.2563 56.9696 71.4237Z" fill="#EEAAA2" stroke="#46001E" stroke-width="0.5" stroke-linecap="round" stroke-linejoin="round"/>
<path d="M163.599 199.2L163.799 201.5L165.499 203L163.399 204L162.499 206L160.899 204.4L158.699 204.1L159.799 202.1L159.399 199.9L161.599 200.3L163.599 199.2Z" fill="#FFC300" stroke="#46001E" stroke-width="0.5" stroke-linecap="round" stroke-linejoin="round"/>
<path d="M92.3002 147C91.0002 148 89.5002 148.9 87.9002 149.5C86.8002 149.7 86.6002 149.6 86.4002 148.8C86.3002 148 87.2002 147.6 88.0002 147.2C90.1002 146.3 91.8002 144.9 93.1002 143C93.3002 142.7 93.4002 142.6 93.5002 142.3C94.0002 141.3 94.6002 140.4 95.4002 139.6C96.0002 139.1 96.6002 138.8 97.4002 138.6C97.9002 138.4 97.9002 138.4 98.2002 138.3C99.2002 137.9 100.1 137 100.4 136C100.5 135.4 101 134.9 101.6 134.8C102.1 134.7 102.5 135.1 102.6 135.5C102.6 135.6 102.6 135.7 102.6 135.8C102.5 137.9 100.5 139.3 98.7002 140.2C98.4002 140.3 98.1002 140.4 97.7002 140.6C97.3002 140.7 97.0002 140.9 96.7002 141.1C96.3002 141.5 96.0002 142 95.8002 142.5C95.6002 142.9 95.5002 143 95.4002 143.3C94.7002 144.8 93.6002 146.1 92.3002 147Z" fill="#EBF5FA" stroke="#46001E" stroke-width="0.5" stroke-miterlimit="10"/>
<path d="M79.8004 160C79.7004 160.3 79.6004 160.5 79.4004 160.7C78.8004 161 78.2004 161.5 77.9004 162.2C77.8004 162.8 77.8004 163.4 78.0004 164L78.1004 164.3C78.4004 165.4 78.3004 166.7 77.7004 167.7C77.4004 168.1 76.7004 168.2 76.3004 167.9C75.9004 167.6 75.8004 166.9 76.1004 166.5C76.3004 166.2 76.4004 165.6 76.2004 164.8L76.1004 164.5C75.3004 162.4 76.3004 160 78.3004 159.1C78.8004 158.8 79.4004 158.9 79.7004 159.4C79.8004 159.4 79.9004 159.7 79.8004 160Z" fill="#EBF5FA" stroke="#46001E" stroke-width="0.5" stroke-miterlimit="10"/>
<path d="M125.001 62.8002C130.401 59.1002 138.601 52.9002 144.001 49.2002C130.401 46.0002 121.501 33.0002 123.501 19.2002C118.101 22.9002 109.901 29.1002 104.501 32.8002C102.501 46.6002 111.401 59.6002 125.001 62.8002Z" fill="#EBF5FA" stroke="#46001E" stroke-width="0.5" stroke-miterlimit="10"/>
<path d="M125.001 62.8002C130.401 59.1002 138.601 52.9002 144.001 49.2002C130.401 46.0002 121.501 33.0002 123.501 19.2002C118.101 22.9002 109.901 29.1002 104.501 32.8002C102.501 46.6002 111.401 59.6002 125.001 62.8002Z" fill="#EBF5FA" stroke="#46001E" stroke-width="0.5" stroke-miterlimit="10"/>
</g>
<defs>
<clipPath id="clip0_4059_646">
<rect width="247" height="247" fill="white"/>
</clipPath>
</defs>
</svg>
